<?xml version="1.0" encoding="utf-8"?>
<!-- Generator: Adobe Illustrator 23.0.6, SVG Export Plug-In . SVG Version: 6.00 Build 0)  -->
<svg version="1.1" id="Web" xmlns="http://www.w3.org/2000/svg" xmlns:xlink="http://www.w3.org/1999/xlink" x="0px" y="0px"
	 viewBox="0 0 252 144" style="enable-background:new 0 0 252 144;" xml:space="preserve">
<style type="text/css">
	.st0{fill:url(#SVGID_1_);stroke:#231F20;stroke-width:2;stroke-miterlimit:10;}
	.st1{fill:url(#SVGID_2_);stroke:#231F20;stroke-width:2;stroke-miterlimit:10;}
	.st2{fill:url(#SVGID_3_);stroke:#231F20;stroke-width:2;stroke-miterlimit:10;}
	.st3{fill:url(#SVGID_4_);stroke:#231F20;stroke-width:2;stroke-miterlimit:10;}
	.st4{fill:url(#SVGID_5_);stroke:#231F20;stroke-width:2;stroke-miterlimit:10;}
	.st5{fill:url(#SVGID_6_);stroke:#231F20;stroke-width:2;stroke-miterlimit:10;}
	.st6{fill:url(#SVGID_7_);stroke:#231F20;stroke-width:2;stroke-miterlimit:10;}
	.st7{fill:url(#SVGID_8_);stroke:#231F20;stroke-width:2;stroke-miterlimit:10;}
	.st8{fill:url(#SVGID_9_);stroke:#231F20;stroke-width:2;stroke-miterlimit:10;}
	.st9{fill:url(#SVGID_10_);stroke:#231F20;stroke-width:2;stroke-miterlimit:10;}
	.st10{fill:url(#SVGID_11_);stroke:#231F20;stroke-width:2;stroke-miterlimit:10;}
	.st11{fill:url(#SVGID_12_);stroke:#231F20;stroke-width:2;stroke-miterlimit:10;}
	.st12{fill:url(#SVGID_13_);stroke:#231F20;stroke-width:2;stroke-miterlimit:10;}
	.st13{fill:url(#SVGID_14_);stroke:#231F20;stroke-width:2;stroke-miterlimit:10;}
	.st14{opacity:0.4;}
	.st15{clip-path:url(#SVGID_16_);}
	.st16{fill:none;stroke:#231F20;stroke-width:2;stroke-miterlimit:10;}
	.st17{fill:#231F20;stroke:#231F20;stroke-width:2;stroke-miterlimit:10;}
	.st18{fill:url(#SVGID_17_);stroke:#231F20;stroke-width:2;stroke-miterlimit:10;}
	.st19{fill:url(#SVGID_18_);stroke:#231F20;stroke-width:2;stroke-miterlimit:10;}
	.st20{fill:url(#SVGID_19_);stroke:#231F20;stroke-width:2;stroke-miterlimit:10;}
	.st21{fill:url(#SVGID_20_);stroke:#231F20;stroke-width:2;stroke-miterlimit:10;}
	.st22{fill:url(#SVGID_21_);stroke:#231F20;stroke-width:2;stroke-miterlimit:10;}
	.st23{fill:url(#SVGID_22_);stroke:#231F20;stroke-width:2;stroke-miterlimit:10;}
	.st24{fill:url(#SVGID_23_);stroke:#231F20;stroke-width:2;stroke-miterlimit:10;}
	.st25{fill:url(#SVGID_24_);stroke:#231F20;stroke-width:2;stroke-miterlimit:10;}
	.st26{fill:url(#SVGID_25_);stroke:#231F20;stroke-width:2;stroke-miterlimit:10;}
	.st27{fill:url(#SVGID_26_);stroke:#231F20;stroke-width:2;stroke-miterlimit:10;}
	.st28{fill:url(#SVGID_27_);stroke:#231F20;stroke-width:2;stroke-miterlimit:10;}
	.st29{fill:url(#SVGID_28_);stroke:#231F20;stroke-width:2;stroke-miterlimit:10;}
	.st30{fill:url(#SVGID_29_);stroke:#231F20;stroke-width:2;stroke-miterlimit:10;}
	.st31{fill:url(#SVGID_30_);stroke:#231F20;stroke-width:2;stroke-miterlimit:10;}
	.st32{clip-path:url(#SVGID_33_);}
	.st33{fill:#231F20;stroke:#1C161B;stroke-width:2;stroke-miterlimit:10;}
	.st34{fill:url(#SVGID_34_);stroke:#231F20;stroke-width:2;stroke-miterlimit:10;}
	.st35{fill:url(#SVGID_35_);stroke:#231F20;stroke-width:2;stroke-miterlimit:10;}
	.st36{fill:url(#SVGID_36_);stroke:#231F20;stroke-width:2;stroke-miterlimit:10;}
	.st37{fill:url(#SVGID_37_);stroke:#231F20;stroke-width:2;stroke-miterlimit:10;}
	.st38{fill:url(#SVGID_38_);stroke:#231F20;stroke-width:2;stroke-miterlimit:10;}
	.st39{fill:url(#SVGID_39_);stroke:#231F20;stroke-width:2;stroke-miterlimit:10;}
	.st40{fill:url(#SVGID_40_);stroke:#231F20;stroke-width:2;stroke-miterlimit:10;}
	.st41{fill:url(#SVGID_41_);stroke:#231F20;stroke-width:2;stroke-miterlimit:10;}
	.st42{fill:url(#SVGID_42_);stroke:#231F20;stroke-width:2;stroke-miterlimit:10;}
	.st43{fill:url(#SVGID_43_);stroke:#231F20;stroke-width:2;stroke-miterlimit:10;}
	.st44{fill:url(#SVGID_44_);stroke:#231F20;stroke-width:2;stroke-miterlimit:10;}
	.st45{fill:url(#SVGID_45_);stroke:#231F20;stroke-width:2;stroke-miterlimit:10;}
	.st46{fill:url(#SVGID_46_);stroke:#231F20;stroke-width:2;stroke-miterlimit:10;}
	.st47{fill:url(#SVGID_47_);stroke:#231F20;stroke-width:2;stroke-miterlimit:10;}
	.st48{clip-path:url(#SVGID_49_);}
	.st49{fill:url(#SVGID_50_);stroke:#231F20;stroke-width:2;stroke-miterlimit:10;}
	.st50{fill:url(#SVGID_51_);stroke:#231F20;stroke-width:2;stroke-miterlimit:10;}
	.st51{fill:url(#SVGID_52_);stroke:#231F20;stroke-width:2;stroke-miterlimit:10;}
	.st52{fill:url(#SVGID_53_);stroke:#231F20;stroke-width:2;stroke-miterlimit:10;}
	.st53{fill:url(#SVGID_54_);stroke:#231F20;stroke-width:2;stroke-miterlimit:10;}
	.st54{fill:url(#SVGID_55_);stroke:#231F20;stroke-width:2;stroke-miterlimit:10;}
	.st55{fill:url(#SVGID_56_);stroke:#231F20;stroke-width:2;stroke-miterlimit:10;}
	.st56{fill:url(#SVGID_57_);stroke:#231F20;stroke-width:2;stroke-miterlimit:10;}
	.st57{fill:url(#SVGID_58_);stroke:#231F20;stroke-width:2;stroke-miterlimit:10;}
	.st58{fill:url(#SVGID_59_);stroke:#231F20;stroke-width:2;stroke-miterlimit:10;}
	.st59{fill:url(#SVGID_60_);stroke:#231F20;stroke-width:2;stroke-miterlimit:10;}
	.st60{fill:url(#SVGID_61_);stroke:#231F20;stroke-width:2;stroke-miterlimit:10;}
	.st61{fill:url(#SVGID_62_);stroke:#231F20;stroke-width:2;stroke-miterlimit:10;}
	.st62{fill:url(#SVGID_63_);stroke:#231F20;stroke-width:2;stroke-miterlimit:10;}
	.st63{clip-path:url(#SVGID_66_);}
	.st64{fill:url(#SVGID_67_);stroke:#231F20;stroke-width:2;stroke-miterlimit:10;}
	.st65{fill:url(#SVGID_68_);stroke:#231F20;stroke-width:2;stroke-miterlimit:10;}
	.st66{fill:url(#SVGID_69_);stroke:#231F20;stroke-width:2;stroke-miterlimit:10;}
	.st67{fill:url(#SVGID_70_);stroke:#231F20;stroke-width:2;stroke-miterlimit:10;}
	.st68{fill:url(#SVGID_71_);stroke:#231F20;stroke-width:2;stroke-miterlimit:10;}
	.st69{fill:url(#SVGID_72_);stroke:#231F20;stroke-width:2;stroke-miterlimit:10;}
	.st70{fill:url(#SVGID_73_);stroke:#231F20;stroke-width:2;stroke-miterlimit:10;}
	.st71{fill:url(#SVGID_74_);stroke:#231F20;stroke-width:2;stroke-miterlimit:10;}
	.st72{fill:url(#SVGID_75_);stroke:#231F20;stroke-width:2;stroke-miterlimit:10;}
	.st73{fill:url(#SVGID_76_);stroke:#231F20;stroke-width:2;stroke-miterlimit:10;}
	.st74{fill:url(#SVGID_77_);stroke:#231F20;stroke-width:2;stroke-miterlimit:10;}
	.st75{fill:url(#SVGID_78_);stroke:#231F20;stroke-width:2;stroke-miterlimit:10;}
	.st76{fill:url(#SVGID_79_);stroke:#231F20;stroke-width:2;stroke-miterlimit:10;}
	.st77{fill:url(#SVGID_80_);stroke:#231F20;stroke-width:2;stroke-miterlimit:10;}
	.st78{clip-path:url(#SVGID_82_);}
	.st79{fill:url(#SVGID_83_);stroke:#231F20;stroke-width:2;stroke-miterlimit:10;}
	.st80{fill:url(#SVGID_84_);stroke:#231F20;stroke-width:2;stroke-miterlimit:10;}
	.st81{fill:url(#SVGID_85_);stroke:#231F20;stroke-width:2;stroke-miterlimit:10;}
	.st82{fill:url(#SVGID_86_);stroke:#231F20;stroke-width:2;stroke-miterlimit:10;}
	.st83{fill:url(#SVGID_87_);stroke:#231F20;stroke-width:2;stroke-miterlimit:10;}
	.st84{fill:url(#SVGID_88_);stroke:#231F20;stroke-width:2;stroke-miterlimit:10;}
	.st85{fill:url(#SVGID_89_);stroke:#231F20;stroke-width:2;stroke-miterlimit:10;}
	.st86{fill:url(#SVGID_90_);stroke:#231F20;stroke-width:2;stroke-miterlimit:10;}
	.st87{fill:url(#SVGID_91_);stroke:#231F20;stroke-width:2;stroke-miterlimit:10;}
	.st88{fill:url(#SVGID_92_);stroke:#231F20;stroke-width:2;stroke-miterlimit:10;}
	.st89{fill:url(#SVGID_93_);stroke:#231F20;stroke-width:2;stroke-miterlimit:10;}
	.st90{fill:url(#SVGID_94_);stroke:#231F20;stroke-width:2;stroke-miterlimit:10;}
	.st91{fill:url(#SVGID_95_);stroke:#231F20;stroke-width:2;stroke-miterlimit:10;}
	.st92{fill:url(#SVGID_96_);stroke:#231F20;stroke-width:2;stroke-miterlimit:10;}
	.st93{clip-path:url(#SVGID_98_);}
	.st94{fill:url(#SVGID_99_);stroke:#231F20;stroke-width:2;stroke-miterlimit:10;}
	.st95{fill:url(#SVGID_100_);stroke:#231F20;stroke-width:2;stroke-miterlimit:10;}
	.st96{fill:url(#SVGID_101_);stroke:#231F20;stroke-width:2;stroke-miterlimit:10;}
	.st97{fill:url(#SVGID_102_);stroke:#231F20;stroke-width:2;stroke-miterlimit:10;}
	.st98{fill:url(#SVGID_103_);stroke:#231F20;stroke-width:2;stroke-miterlimit:10;}
	.st99{fill:url(#SVGID_104_);stroke:#231F20;stroke-width:2;stroke-miterlimit:10;}
	.st100{fill:url(#SVGID_105_);stroke:#231F20;stroke-width:2;stroke-miterlimit:10;}
	.st101{fill:url(#SVGID_106_);stroke:#231F20;stroke-width:2;stroke-miterlimit:10;}
	.st102{fill:url(#SVGID_107_);stroke:#231F20;stroke-width:2;stroke-miterlimit:10;}
	.st103{fill:url(#SVGID_108_);stroke:#231F20;stroke-width:2;stroke-miterlimit:10;}
	.st104{fill:url(#SVGID_109_);stroke:#231F20;stroke-width:2;stroke-miterlimit:10;}
	.st105{fill:url(#SVGID_110_);stroke:#231F20;stroke-width:2;stroke-miterlimit:10;}
	.st106{fill:url(#SVGID_111_);stroke:#231F20;stroke-width:2;stroke-miterlimit:10;}
	.st107{fill:url(#SVGID_112_);stroke:#231F20;stroke-width:2;stroke-miterlimit:10;}
	.st108{clip-path:url(#SVGID_115_);}
	.st109{fill:url(#SVGID_116_);stroke:#231F20;stroke-width:2;stroke-miterlimit:10;}
	.st110{fill:url(#SVGID_117_);stroke:#231F20;stroke-width:2;stroke-miterlimit:10;}
	.st111{fill:url(#SVGID_118_);stroke:#231F20;stroke-width:2;stroke-miterlimit:10;}
	.st112{fill:url(#SVGID_119_);stroke:#231F20;stroke-width:2;stroke-miterlimit:10;}
	.st113{fill:url(#SVGID_120_);stroke:#231F20;stroke-width:2;stroke-miterlimit:10;}
	.st114{fill:url(#SVGID_121_);stroke:#231F20;stroke-width:2;stroke-miterlimit:10;}
	.st115{fill:url(#SVGID_122_);stroke:#231F20;stroke-width:2;stroke-miterlimit:10;}
	.st116{fill:url(#SVGID_123_);stroke:#231F20;stroke-width:2;stroke-miterlimit:10;}
	.st117{fill:url(#SVGID_124_);stroke:#231F20;stroke-width:2;stroke-miterlimit:10;}
	.st118{fill:url(#SVGID_125_);stroke:#231F20;stroke-width:2;stroke-miterlimit:10;}
	.st119{fill:url(#SVGID_126_);stroke:#231F20;stroke-width:2;stroke-miterlimit:10;}
	.st120{fill:url(#SVGID_127_);stroke:#231F20;stroke-width:2;stroke-miterlimit:10;}
	.st121{fill:url(#SVGID_128_);stroke:#231F20;stroke-width:2;stroke-miterlimit:10;}
	.st122{fill:url(#SVGID_129_);stroke:#231F20;stroke-width:2;stroke-miterlimit:10;}
	.st123{clip-path:url(#SVGID_131_);}
	.st124{fill:url(#SVGID_132_);stroke:#231F20;stroke-width:2;stroke-miterlimit:10;}
	.st125{fill:url(#SVGID_133_);stroke:#231F20;stroke-width:2;stroke-miterlimit:10;}
	.st126{fill:url(#SVGID_134_);stroke:#231F20;stroke-width:2;stroke-miterlimit:10;}
	.st127{fill:url(#SVGID_135_);stroke:#231F20;stroke-width:2;stroke-miterlimit:10;}
	.st128{fill:url(#SVGID_136_);stroke:#231F20;stroke-width:2;stroke-miterlimit:10;}
	.st129{fill:url(#SVGID_137_);stroke:#231F20;stroke-width:2;stroke-miterlimit:10;}
	.st130{fill:url(#SVGID_138_);stroke:#231F20;stroke-width:2;stroke-miterlimit:10;}
	.st131{fill:url(#SVGID_139_);stroke:#231F20;stroke-width:2;stroke-miterlimit:10;}
	.st132{fill:url(#SVGID_140_);stroke:#231F20;stroke-width:2;stroke-miterlimit:10;}
	.st133{fill:url(#SVGID_141_);stroke:#231F20;stroke-width:2;stroke-miterlimit:10;}
	.st134{fill:url(#SVGID_142_);stroke:#231F20;stroke-width:2;stroke-miterlimit:10;}
	.st135{fill:url(#SVGID_143_);stroke:#231F20;stroke-width:2;stroke-miterlimit:10;}
	.st136{fill:url(#SVGID_144_);stroke:#231F20;stroke-width:2;stroke-miterlimit:10;}
	.st137{fill:url(#SVGID_145_);stroke:#231F20;stroke-width:2;stroke-miterlimit:10;}
	.st138{clip-path:url(#SVGID_147_);}
	.st139{fill:url(#SVGID_148_);stroke:#231F20;stroke-width:2;stroke-miterlimit:10;}
	.st140{fill:url(#SVGID_149_);stroke:#231F20;stroke-width:2;stroke-miterlimit:10;}
	.st141{fill:url(#SVGID_150_);stroke:#231F20;stroke-width:2;stroke-miterlimit:10;}
	.st142{fill:url(#SVGID_151_);stroke:#231F20;stroke-width:2;stroke-miterlimit:10;}
	.st143{fill:url(#SVGID_152_);stroke:#231F20;stroke-width:2;stroke-miterlimit:10;}
	.st144{fill:url(#SVGID_153_);stroke:#231F20;stroke-width:2;stroke-miterlimit:10;}
	.st145{fill:url(#SVGID_154_);stroke:#231F20;stroke-width:2;stroke-miterlimit:10;}
	.st146{fill:url(#SVGID_155_);stroke:#231F20;stroke-width:2;stroke-miterlimit:10;}
	.st147{fill:url(#SVGID_156_);stroke:#231F20;stroke-width:2;stroke-miterlimit:10;}
	.st148{fill:url(#SVGID_157_);stroke:#231F20;stroke-width:2;stroke-miterlimit:10;}
	.st149{fill:url(#SVGID_158_);stroke:#231F20;stroke-width:2;stroke-miterlimit:10;}
	.st150{fill:url(#SVGID_159_);stroke:#231F20;stroke-width:2;stroke-miterlimit:10;}
	.st151{fill:url(#SVGID_160_);stroke:#231F20;stroke-width:2;stroke-miterlimit:10;}
	.st152{fill:url(#SVGID_161_);stroke:#231F20;stroke-width:2;stroke-miterlimit:10;}
	.st153{clip-path:url(#SVGID_164_);}
	.st154{fill:url(#SVGID_165_);stroke:#231F20;stroke-width:2;stroke-miterlimit:10;}
	.st155{fill:url(#SVGID_166_);stroke:#231F20;stroke-width:2;stroke-miterlimit:10;}
	.st156{fill:url(#SVGID_167_);stroke:#231F20;stroke-width:2;stroke-miterlimit:10;}
	.st157{fill:url(#SVGID_168_);stroke:#231F20;stroke-width:2;stroke-miterlimit:10;}
	.st158{fill:url(#SVGID_169_);stroke:#231F20;stroke-width:2;stroke-miterlimit:10;}
	.st159{fill:url(#SVGID_170_);stroke:#231F20;stroke-width:2;stroke-miterlimit:10;}
	.st160{fill:url(#SVGID_171_);stroke:#231F20;stroke-width:2;stroke-miterlimit:10;}
	.st161{fill:url(#SVGID_172_);stroke:#231F20;stroke-width:2;stroke-miterlimit:10;}
	.st162{fill:url(#SVGID_173_);stroke:#231F20;stroke-width:2;stroke-miterlimit:10;}
	.st163{fill:url(#SVGID_174_);stroke:#231F20;stroke-width:2;stroke-miterlimit:10;}
	.st164{fill:url(#SVGID_175_);stroke:#231F20;stroke-width:2;stroke-miterlimit:10;}
	.st165{fill:url(#SVGID_176_);stroke:#231F20;stroke-width:2;stroke-miterlimit:10;}
	.st166{fill:url(#SVGID_177_);stroke:#231F20;stroke-width:2;stroke-miterlimit:10;}
	.st167{fill:url(#SVGID_178_);stroke:#231F20;stroke-width:2;stroke-miterlimit:10;}
	.st168{clip-path:url(#SVGID_180_);}
	.st169{fill:url(#SVGID_181_);stroke:#231F20;stroke-width:2;stroke-miterlimit:10;}
	.st170{fill:url(#SVGID_182_);stroke:#231F20;stroke-width:2;stroke-miterlimit:10;}
	.st171{fill:url(#SVGID_183_);stroke:#231F20;stroke-width:2;stroke-miterlimit:10;}
	.st172{fill:url(#SVGID_184_);stroke:#231F20;stroke-width:2;stroke-miterlimit:10;}
	.st173{fill:url(#SVGID_185_);stroke:#231F20;stroke-width:2;stroke-miterlimit:10;}
	.st174{fill:url(#SVGID_186_);stroke:#231F20;stroke-width:2;stroke-miterlimit:10;}
	.st175{fill:url(#SVGID_187_);stroke:#231F20;stroke-width:2;stroke-miterlimit:10;}
	.st176{fill:url(#SVGID_188_);stroke:#231F20;stroke-width:2;stroke-miterlimit:10;}
	.st177{fill:url(#SVGID_189_);stroke:#231F20;stroke-width:2;stroke-miterlimit:10;}
	.st178{fill:url(#SVGID_190_);stroke:#231F20;stroke-width:2;stroke-miterlimit:10;}
	.st179{fill:url(#SVGID_191_);stroke:#231F20;stroke-width:2;stroke-miterlimit:10;}
	.st180{fill:url(#SVGID_192_);stroke:#231F20;stroke-width:2;stroke-miterlimit:10;}
	.st181{fill:url(#SVGID_193_);stroke:#231F20;stroke-width:2;stroke-miterlimit:10;}
	.st182{fill:url(#SVGID_194_);stroke:#231F20;stroke-width:2;stroke-miterlimit:10;}
	.st183{clip-path:url(#SVGID_196_);}
	.st184{fill:url(#SVGID_197_);stroke:#231F20;stroke-width:2;stroke-miterlimit:10;}
	.st185{fill:url(#SVGID_198_);stroke:#231F20;stroke-width:2;stroke-miterlimit:10;}
	.st186{fill:url(#SVGID_199_);stroke:#231F20;stroke-width:2;stroke-miterlimit:10;}
	.st187{fill:url(#SVGID_200_);stroke:#231F20;stroke-width:2;stroke-miterlimit:10;}
	.st188{fill:url(#SVGID_201_);stroke:#231F20;stroke-width:2;stroke-miterlimit:10;}
	.st189{fill:url(#SVGID_202_);stroke:#231F20;stroke-width:2;stroke-miterlimit:10;}
	.st190{fill:url(#SVGID_203_);stroke:#231F20;stroke-width:2;stroke-miterlimit:10;}
	.st191{fill:url(#SVGID_204_);stroke:#231F20;stroke-width:2;stroke-miterlimit:10;}
	.st192{fill:url(#SVGID_205_);stroke:#231F20;stroke-width:2;stroke-miterlimit:10;}
	.st193{fill:url(#SVGID_206_);stroke:#231F20;stroke-width:2;stroke-miterlimit:10;}
	.st194{fill:url(#SVGID_207_);stroke:#231F20;stroke-width:2;stroke-miterlimit:10;}
	.st195{fill:url(#SVGID_208_);stroke:#231F20;stroke-width:2;stroke-miterlimit:10;}
	.st196{fill:url(#SVGID_209_);stroke:#231F20;stroke-width:2;stroke-miterlimit:10;}
	.st197{fill:url(#SVGID_210_);stroke:#231F20;stroke-width:2;stroke-miterlimit:10;}
	.st198{clip-path:url(#SVGID_213_);}
	.st199{fill:url(#SVGID_214_);}
	.st200{fill:url(#SVGID_215_);}
	.st201{fill:url(#SVGID_216_);}
	.st202{fill:url(#SVGID_217_);}
	.st203{fill:url(#SVGID_218_);}
	.st204{fill:url(#SVGID_219_);}
	.st205{fill:url(#SVGID_220_);}
	.st206{fill:url(#SVGID_221_);}
	.st207{fill:url(#SVGID_222_);}
	.st208{fill:url(#SVGID_223_);}
	.st209{fill:url(#SVGID_224_);}
	.st210{fill:url(#SVGID_225_);}
	.st211{fill:url(#SVGID_226_);}
	.st212{fill:url(#SVGID_227_);}
	.st213{clip-path:url(#SVGID_229_);}
	.st214{fill:none;stroke:url(#SVGID_230_);stroke-miterlimit:10;}
	.st215{stroke:#000000;stroke-miterlimit:10;}
	.st216{font-family:'MyriadPro-Regular';}
	.st217{font-size:14px;}
	.st218{fill:none;stroke:#231F20;stroke-miterlimit:10;}
	.st219{fill:#231F20;stroke:#231F20;stroke-miterlimit:10;}
</style>
<g id="Text">
</g>
<linearGradient id="SVGID_1_" gradientUnits="userSpaceOnUse" x1="99.0529" y1="71.9925" x2="152.9471" y2="71.9925">
	<stop  offset="0" style="stop-color:#45C8FF"/>
	<stop  offset="1" style="stop-color:#0000CC"/>
</linearGradient>
<polygon style="fill:none;stroke:url(#SVGID_1_);stroke-miterlimit:10;" points="126,45.76 113.62,48.81 104.08,57.26 99.56,69.18 
	101.1,81.83 108.34,92.32 119.63,98.24 132.37,98.24 143.66,92.32 150.9,81.83 152.44,69.18 147.92,57.26 138.38,48.81 "/>
<text transform="matrix(1 0 0 1 103.2158 70.6968)"><tspan x="0" y="0" class="st215 st216 st217">optweb</tspan><tspan x="8.52" y="10" class="st215 st216 st217">.com</tspan></text>
<line class="st218" x1="138.38" y1="48.81" x2="163.49" y2="0"/>
<line class="st219" x1="126" y1="45.76" x2="126" y2="0"/>
<line class="st219" x1="147.92" y1="57.26" x2="225.36" y2="0"/>
<line class="st219" x1="152.44" y1="69.18" x2="252" y2="69.18"/>
<path class="st218" d="M150.9,81.83c9.8,3.46,101.1,25.03,101.1,25.03"/>
<line class="st218" x1="143.66" y1="92.32" x2="208.88" y2="144"/>
<line class="st219" x1="132.37" y1="98.24" x2="142.17" y2="144"/>
<line class="st219" x1="119.63" y1="98.24" x2="107.76" y2="144"/>
<line class="st219" x1="108.34" y1="92.32" x2="64.56" y2="144"/>
<line class="st219" x1="101.1" y1="81.83" x2="0" y2="118.8"/>
<line class="st219" x1="99.56" y1="69.18" x2="0" y2="63.96"/>
<line class="st219" x1="104.08" y1="57.26" x2="36" y2="0"/>
<line class="st219" x1="113.62" y1="48.81" x2="92.04" y2="0"/>
<path class="st218" d="M126.03,38.19c1.77,2.07,4.43,3.22,7.11,3.67c2.68,0.45,6.31-0.25,9.03-0.43"/>
<path class="st218" d="M142.17,41.44c-0.34,1.04,0,2.54,0.55,3.48c0.55,0.95,1.38,1.7,2.24,2.38c2.96,2.3,6.93,3.79,10.65,4.27"/>
<path class="st218" d="M155.28,51.82c-1.19,2.39-1.24,5.59-0.22,8.05c0.69,1.67,1.84,3.09,2.98,4.49c1.25,1.54,2.5,3.08,3.75,4.62"
	/>
<path class="st218" d="M161.79,68.99c-3.2,4.09-3.99,10.65-1.83,15.38"/>
<path class="st218" d="M160.26,84.49c-1.47,0.81-3.56,1.9-4.86,2.96c-3.05,2.49-4.96,6.32-5.09,10.26"/>
<path class="st218" d="M149.84,97.71c0.46-0.11-12.66,3.01-15.93,8.63"/>
<path class="st218" d="M133.91,106.34c-2.48-1.35-5.48-2.81-8.31-2.94c-2.82-0.13-5.74,0.61-7.97,2.34"/>
<path class="st218" d="M117.23,105.93c0.4,0.35-8.32-7.2-13.97-7.37"/>
<path class="st218" d="M102.62,99.08c-1.1-4.14-3.23-8.61-5.64-12.15c-0.75-1.1-1.74-2.44-3.06-2.47"/>
<path class="st218" d="M93.91,84.46c0.86-3.23,1.35-7.68,0.5-10.91c-0.39-1.48-1.35-3.63-2.37-4.76c3.67-4.74,4.94-11.76,4.65-17.74
	"/>
<path class="st218" d="M97.42,51.52c5.68-0.94,10.63-6.27,12.18-11.82"/>
<path class="st218" d="M109.6,39.7c1.35,1.61,4,2.66,6.07,2.99c1.98,0.32,4.06-0.06,5.84-0.98c1.58-0.82,3.53-3.06,4.49-4.57"/>
<path class="st218" d="M126.09,30.16c0.7,0.89,1.59,1.63,2.59,2.16c2.22,1.17,4.83,1.26,7.34,1.32c3.35,0.08,6.7,0.17,10.05,0.25"/>
<path class="st218" d="M146.19,33.64c0.17,1.77,1.27,3.3,2.42,4.66c1.53,1.81,3.23,3.5,5.28,4.69c2.88,1.66,6.24,2.21,9.52,2.73"/>
<path class="st218" d="M163.53,45.82c-0.85,4.84,0.04,9.97,2.46,14.24c0.59,1.05,1.28,2.04,1.96,3.03c1.37,1.99,2.73,3.98,4.1,5.97"
	/>
<path class="st218" d="M172.53,69.06c-1.36,0.66-2.56,2.11-3.23,3.46c-0.68,1.35-1.04,2.83-1.41,4.3c-0.25,1.02-0.51,2.06-0.5,3.12
	c0.02,1.36,0.48,2.69,1.15,3.88s1.52,2.26,2.37,3.33"/>
<path class="st218" d="M170.11,86.83c-1.68,0.63-3.19,1.73-4.3,3.15c-0.61,0.77-1.1,1.62-1.59,2.47c-0.94,1.64-1.89,3.29-2.74,4.98
	c-1.09,2.17-2.04,4.41-2.82,6.7"/>
<path class="st218" d="M158.94,104.43c0.14-0.01-9.33,0.59-13.43,2.54c-4.04,1.93-7.33,4.89-9.37,8.88"/>
<path class="st218" d="M135.72,115.4c0.79-0.65-0.35-1.13-1.07-1.44c-0.57-0.24-1.14-0.47-1.74-0.62c-1.34-0.34-2.68-0.67-4.02-1.01
	c-1.32-0.33-2.64-0.66-3.99-0.78c-1.35-0.12-2.75-0.02-4.01,0.5c-0.76,0.31-1.46,0.77-2.15,1.23c-1.19,0.78-2.37,1.57-3.56,2.35"/>
<path class="st218" d="M115.19,115.62c-0.66-1.4-1.88-3.2-2.84-4.42c-0.78-0.99-1.66-1.9-2.69-2.64c-1.08-0.77-2.3-1.34-3.57-1.72
	c-1.2-0.36-2.45-0.54-3.69-0.73c-1.68-0.25-3.35-0.51-5.03-0.76"/>
<path class="st218" d="M96.8,105.89c-0.13-3.68-1.13-7.34-2.89-10.57c-1.76-3.24-4.29-6.06-7.31-8.17"/>
<path class="st218" d="M85.3,87.61c0.89-3.58,1.93-7.62,1.66-11.3c-0.2-2.79-1.09-5.53-2.56-7.91"/>
<path class="st218" d="M83.23,68.32c1.47-1.58,3.25-3.55,3.91-5.6c0.35-1.09,0.44-2.25,0.56-3.4c0.47-4.55,1.42-9.06,2.82-13.41"/>
<path class="st218" d="M90.24,45.61c1.25,0.25,3.05-0.02,4.27-0.39s2.36-0.93,3.5-1.5c1.54-0.78,3.13-1.63,4.14-3.03
	c0.57-0.78,0.93-1.7,1.28-2.6c0.86-2.22,1.72-4.45,2.58-6.67"/>
<path class="st218" d="M106.42,32.13c2.84,0.78,5.74,1.57,8.67,1.38c1.21-0.08,2.41-0.32,3.6-0.58c2.54-0.55,5.19-1.24,7.11-3"/>
<path class="st218" d="M103.13,24.89c3.41,0.68,6.94,0.29,10.39-0.11c1.28-0.15,2.57-0.29,3.85-0.44c2.96-0.34,6.05-0.72,8.52-2.39"
	/>
<path class="st218" d="M126.03,21.35c0.73,0.88,2.04,1.61,3.09,2.08c3.66,1.64,7.56,2.9,11.57,3.01c3.19,0.08,6.77-0.72,9.9-1.37"/>
<path class="st218" d="M150.75,24.84c0.55,2.25,1.77,4.31,3.32,6.03s3.44,3.12,5.42,4.32c1.09,0.66,2.22,1.26,3.35,1.86
	c2.26,1.21,5.6,1.91,7.86,3.12"/>
<path class="st218" d="M170.98,40.22c1.27,6.78,2.91,13.58,6.11,19.69c0.82,1.57,1.75,3.09,2.67,4.6c0.93,1.53,1.86,3.05,2.79,4.58"
	/>
<path class="st218" d="M181.81,69.08c-1.82,2.98-2.51,6.53-2.53,10.02c-0.02,3.49,0.59,6.94,1.2,10.38"/>
<path class="st218" d="M180.22,89.78c-3.55,2.44-6.22,6.02-8.06,9.91c-1.85,3.89-2.92,8.11-3.73,12.34"/>
<path class="st218" d="M167.36,111.15c-5.33-0.46-10.53,1.8-15.12,4.55c-5.1,3.05-9.79,6.77-13.92,11.03"/>
<path class="st218" d="M138.31,125.99c-2.96-3.35-8.09-5.02-12.56-4.87c-4.47,0.14-8.78,1.58-13.02,3.01"/>
<path class="st218" d="M112.56,124.5c0.37,0.48-5.71-7.57-10.02-10.27c-3.18-2-7.06-2.81-10.8-2.51"/>
<path class="st218" d="M90.99,112.34c0.11,0.23-7.51-15.92-14.39-21.52"/>
<path class="st218" d="M76.61,90.39c1.07-7.66,0.39-15.18-2.07-22.52"/>
<path class="st218" d="M74.07,67.75c0.57-1.11,1.11-2.57,1.59-3.72c3.46-8.11,4.67-16.97,5.84-25.71"/>
<path class="st218" d="M81.54,38.24c5.15-0.68,9.63-3.83,13.5-7.29c2.57-2.29,4.98-4.76,7.21-7.38"/>
<path class="st218" d="M75.66,33.12c2.7-1.29,5.14-3.07,7.5-4.92c3.65-2.86,7.16-5.89,10.51-9.1c1.43-1.37,2.87-2.8,4.71-3.52"/>
<path class="st218" d="M98.75,14.88c2.19,1.15,4.7,1.57,7.17,1.55c2.47-0.02,4.92-0.46,7.34-0.95c4.25-0.86,8.46-1.9,12.62-3.09"/>
<path class="st218" d="M126.18,12.14c2.32,1.49,5.11,2,7.83,2.45c6.74,1.12,13.52,2.07,20.31,2.86"/>
<path class="st218" d="M154.8,16.89c3.27,4.78,8.56,8.61,13.78,11.11c4.01,1.92,8.49,3.49,12.81,4.51"/>
<path class="st218" d="M181.78,32.24c-0.06,5.48,1.77,10.79,3.58,15.97c1.23,3.53,2.48,7.09,4.3,10.36
	c1.02,1.82,2.21,3.54,3.39,5.25c1.21,1.75,2.43,3.5,3.64,5.25"/>
<path class="st218" d="M195.18,69.41c-2.77,7.37-3.4,15.54-1.78,23.25"/>
<path class="st218" d="M193.25,92.66c-5.88,6.71-10.17,14.79-12.44,23.41c-0.41,1.57-0.76,3.17-1.11,4.76"/>
<path class="st218" d="M179.75,121.03c-9.59,1.29-18.26,6.16-26.68,10.93c-2.49,1.41-4.98,2.83-7.48,4.24
	c-1.7,0.97-3.5,2.03-4.36,3.79"/>
<path class="st218" d="M140.13,134.46c-10.01-3.69-20.76-3.52-30.24,1.36"/>
<path class="st218" d="M109.88,135.82c-2.01-2.87-4.87-5.85-7.62-8.02c-1.35-1.06-2.77-2.03-4.3-2.81c-1.1-0.56-2.24-1.03-3.38-1.5
	c-3.18-1.3-6.35-2.59-9.53-3.89"/>
<path class="st218" d="M84.05,120.49c-4.39-9.71-10.89-18.46-18.91-25.48"/>
<path class="st218" d="M64.56,95.01c0.29-4.82,0.8-10.46,0.16-15.25c-0.57-4.28-1.88-8.42-3.18-12.54"/>
<path class="st218" d="M61.53,66.88c2.31-3.97,4.28-8.13,5.91-12.43c1.04-2.76,1.94-5.57,2.84-8.38c1.42-4.44,2.84-8.89,4.25-13.33"
	/>
<path class="st218" d="M48.79,66.52c3.4-2.52,5.04-7.04,6.52-11c1.59-4.26,3.18-8.52,4.77-12.77c2.12-5.68,4.24-11.36,5.91-17.18"/>
<path class="st218" d="M65.76,25.55c4.74-1.25,9.54-2.52,13.84-4.88c6.46-3.54,11.54-10.24,13.97-17.2"/>
<path class="st218" d="M93.29,2.83c1.88,0.91,4.51,1.77,6.58,2c1.65,0.19,3.31,0.18,4.97,0.17c3.36-0.02,6.72-0.04,10.09-0.06
	c1.97-0.01,3.97-0.03,5.87-0.56c1.84-0.52,3.89-1.52,5.23-2.88"/>
<path class="st218" d="M126.03,1.51c4.73,4.08,11.54,5.49,17.76,6.13c5.68,0.59,11.69,0.57,16.74-2.08"/>
<path class="st218" d="M160.51,6.06c0.7,1.91,1.72,3.71,3.03,5.27c2.74,3.3,6.56,5.48,10.29,7.59c1.8,1.02,3.59,2.03,5.43,2.97
	c3.47,1.76,7.1,3.22,10.83,4.35"/>
<path class="st218" d="M173.67,0c1.84,3.73,4.83,7.32,8.17,9.8c3.34,2.48,7.05,4.41,10.74,6.33c2.16,1.13,4.33,2.25,6.49,3.38"/>
<path class="st218" d="M193.36,0c0.69,3.25,3.55,5.74,6.38,7.48c2.86,1.76,5.89,3.24,9.03,4.41"/>
<path class="st218" d="M211.65,0c0.12,0.83,0.88,1.67,1.57,2.14c1.61,1.08,3.22,2.16,4.83,3.24"/>
<path class="st218" d="M190.21,25.98c0.22,7.85,3.67,15.2,7.05,22.29c3.37,7.07,6.74,14.13,10.11,21.2"/>
<path class="st218" d="M199.04,19.47c1.46,7.16,4.34,13.94,7.2,20.67c4.2,9.87,8.82,20.09,14.92,28.92"/>
<path class="st218" d="M208.73,11.75c2.7,20.95,11.78,41.4,25.51,57.45"/>
<path class="st218" d="M219.1,4.77c-0.05,6.22,2.42,12.15,4.95,17.84c7.07,15.9,14.92,31.46,23.52,46.59"/>
<path class="st218" d="M207.37,69.47c-4.36,7.59-5.98,17.25-3.91,25.75"/>
<path class="st218" d="M220.7,69.41c-5.33,8.06-7.75,18.76-6.42,28.33"/>
<path class="st218" d="M234.24,69.2c-1.56,2.33-2.96,5.28-3.85,7.93c-2.56,7.65-2.1,15.94-1.62,23.99"/>
<path class="st218" d="M246.93,69.46c-2.63,11.73-3.42,23.86-2.33,35.83"/>
<path class="st218" d="M203.46,95.22c-8.08,8.65-13.69,20.1-15.85,31.73"/>
<path class="st218" d="M215.06,98.04c-5.56,8.1-11.19,16.82-14.42,26.1c-1.26,3.63-2.15,7.39-3.02,11.14"/>
<path class="st218" d="M229.17,101.43c-9.02,12.66-16.56,26.95-21.94,41.53"/>
<path class="st218" d="M240.9,104.23c-7.67,12.51-14.71,26.38-20.29,39.95"/>
<path class="st218" d="M252,107.28c-3.74,5.83-17.49,30.27-19.96,36.73"/>
<path class="st218" d="M187.4,127.32c-11.35,4.65-22.84,9.36-32.71,16.63"/>
<path class="st218" d="M197.54,134.97c-5.99,1.91-11.57,5.08-16.28,9.25"/>
<path class="st218" d="M206.71,142.49c-1.03,0.31-1.97,0.9-2.69,1.7"/>
<path class="st218" d="M141.55,141.32c-11.13-2.08-22.72-1.62-33.64,1.33"/>
<path class="st218" d="M107.48,143.24c0.26,0.21-3.33-2.67-5.38-3.95c-3.45-2.14-7-4.13-10.5-6.2c-4.08-2.41-8.2-4.84-12.72-6.26"/>
<path class="st218" d="M91.65,144c-2.66-1.83-5.32-3.32-7.98-5.15c-3.32-2.29-6.99-4.68-11.01-4.41"/>
<path class="st218" d="M72.96,144.09c-2.01-1.07-4.03-2.15-6.04-3.22"/>
<path class="st218" d="M78.87,127.19c-1.34-6.29-4.85-11.96-9.28-16.62c-4.42-4.66-9.74-8.38-15.21-11.76"/>
<path class="st218" d="M72.24,134.95c-3.48-8.63-8.62-16.6-15.04-23.33c-3.61-3.79-7.81-7.69-12.87-9.03"/>
<path class="st218" d="M66.55,141.2c-6.6-9.56-13.69-18.78-21.24-27.62c-2.81-3.3-5.55-6.56-9.7-7.81"/>
<path class="st218" d="M55.45,144.08c-1.89-4.32-4.81-8.1-7.7-11.83c-2.49-3.21-4.98-6.42-7.47-9.63
	c-4.05-5.22-8.32-10.62-14.27-13.47"/>
<path class="st218" d="M41.38,143.81c-2.25-4.35-4.49-8.7-6.74-13.05c-1.06-2.06-2.13-4.13-3.36-6.1
	c-3.17-5.06-7.42-9.44-12.39-12.75"/>
<path class="st218" d="M27.24,144c-0.93-4.17-2.44-8.21-4.49-11.96c-3.41-6.25-8.23-11.6-13-16.89"/>
<path class="st218" d="M14.04,144c0.03-3.21-0.96-6.36-2.39-9.23c-1.44-2.87-3.31-5.49-5.18-8.09c-1.48-2.07-4.99-5.37-6.47-7.43"/>
<path class="st218" d="M4.66,144.11c-0.44-2.05-3.36-5.75-4.66-7.4"/>
<path class="st218" d="M54.42,98.45c1.84-10.74-0.02-22.09-5.21-31.68"/>
<path class="st218" d="M44.49,102.22c0.99-8.04,0.75-16.22-0.68-24.19c-0.77-4.25-1.95-8.6-4.73-11.91"/>
<path class="st218" d="M35.16,105.47c1.43-10.27,2.37-20.99-1.07-30.77c-1.12-3.19-2.7-6.22-4.67-8.97"/>
<path class="st218" d="M25.43,109.47c1.49-7.6,2.99-15.29,2.66-23.03s-2.69-15.66-7.99-21.3"/>
<path class="st218" d="M18.87,111.94c-1.11-10.33,0.9-20.88-0.99-31.1c-1.05-5.71-3.33-11.2-6.62-15.98"/>
<path class="st218" d="M8.92,115.51c2.43-17.38-0.32-35.46-7.81-51.33"/>
<path class="st218" d="M38.78,65.68c4.1-2.56,6.5-7.07,8.53-11.45c1.79-3.85,3.45-7.78,4.74-11.83c2.59-8.13,3.66-16.66,4.72-25.13"
	/>
<path class="st218" d="M29.04,65.45c3.03-4.31,5.23-9.13,7.41-13.92c5.87-12.91,11.85-26.22,12.52-40.4"/>
<path class="st218" d="M20.59,64.74c5.01-11.47,9.79-23.04,14.58-34.61c3.25-7.86,6.55-16.5,6.93-25"/>
<path class="st218" d="M9.79,63.9c5.37-7.85,10.34-16.56,13.43-25.56c1.74-5.07,3.1-10.27,5.17-15.21C31.47,15.81,36.24,7.94,36,0"
	/>
<path class="st218" d="M1.04,63.9c5.47-8.67,9.4-18.2,13.31-27.68c2.54-6.15,5.07-12.3,7.61-18.45c2.39-5.79,4.78-11.59,6.51-17.6"
	/>
<path class="st218" d="M0.01,43.04C3.42,38.2,6.3,32.98,8.55,27.51c1.69-4.09,3.04-8.32,4.38-12.54c1.55-4.86,3.1-9.73,4.17-14.72"
	/>
<path class="st218" d="M-0.31,23.34C4.35,16.51,7.76,8.14,9.2,0"/>
<path class="st218" d="M0.34,5.29C1.02,3.62,1.7,1.96,2.38,0.3"/>
<path class="st218" d="M57.75,18.18c11.15-1.52,21.47-8.3,27.31-17.92"/>
<path class="st218" d="M49.42,11.14c6.9-1.67,13.26-5.54,17.9-10.91"/>
<path class="st218" d="M42.52,5.31c4.24-0.87,8.31-2.57,11.92-4.97"/>
<path class="st218" d="M225.6,1.23c5.79,18.6,14.88,36.16,26.73,51.62"/>
<path class="st218" d="M236.91,0.43c3.62,10.72,8.63,20.96,14.86,30.4"/>
<path class="st218" d="M247.55,0.4c0.81,2.52,2.39,4.78,4.46,6.42"/>
</svg>
