<?xml version="1.0" encoding="utf-8"?>
<!-- Generator: Adobe Illustrator 23.0.6, SVG Export Plug-In . SVG Version: 6.00 Build 0)  -->
<svg version="1.1" id="Web" xmlns="http://www.w3.org/2000/svg" xmlns:xlink="http://www.w3.org/1999/xlink" x="0px" y="0px"
	 viewBox="0 0 252 144" style="enable-background:new 0 0 252 144;" xml:space="preserve">
<style type="text/css">
	.st0{fill:url(#SVGID_1_);stroke:#231F20;stroke-width:2;stroke-miterlimit:10;}
	.st1{fill:url(#SVGID_2_);stroke:#231F20;stroke-width:2;stroke-miterlimit:10;}
	.st2{fill:url(#SVGID_3_);stroke:#231F20;stroke-width:2;stroke-miterlimit:10;}
	.st3{fill:url(#SVGID_4_);stroke:#231F20;stroke-width:2;stroke-miterlimit:10;}
	.st4{fill:url(#SVGID_5_);stroke:#231F20;stroke-width:2;stroke-miterlimit:10;}
	.st5{fill:url(#SVGID_6_);stroke:#231F20;stroke-width:2;stroke-miterlimit:10;}
	.st6{fill:url(#SVGID_7_);stroke:#231F20;stroke-width:2;stroke-miterlimit:10;}
	.st7{fill:url(#SVGID_8_);stroke:#231F20;stroke-width:2;stroke-miterlimit:10;}
	.st8{fill:url(#SVGID_9_);stroke:#231F20;stroke-width:2;stroke-miterlimit:10;}
	.st9{fill:url(#SVGID_10_);stroke:#231F20;stroke-width:2;stroke-miterlimit:10;}
	.st10{fill:url(#SVGID_11_);stroke:#231F20;stroke-width:2;stroke-miterlimit:10;}
	.st11{fill:url(#SVGID_12_);stroke:#231F20;stroke-width:2;stroke-miterlimit:10;}
	.st12{fill:url(#SVGID_13_);stroke:#231F20;stroke-width:2;stroke-miterlimit:10;}
	.st13{fill:url(#SVGID_14_);stroke:#231F20;stroke-width:2;stroke-miterlimit:10;}
	.st14{opacity:0.4;}
	.st15{clip-path:url(#SVGID_16_);}
	.st16{fill:none;stroke:#231F20;stroke-width:2;stroke-miterlimit:10;}
	.st17{fill:#231F20;stroke:#231F20;stroke-width:2;stroke-miterlimit:10;}
	.st18{fill:url(#SVGID_17_);stroke:#231F20;stroke-width:2;stroke-miterlimit:10;}
	.st19{fill:url(#SVGID_18_);stroke:#231F20;stroke-width:2;stroke-miterlimit:10;}
	.st20{fill:url(#SVGID_19_);stroke:#231F20;stroke-width:2;stroke-miterlimit:10;}
	.st21{fill:url(#SVGID_20_);stroke:#231F20;stroke-width:2;stroke-miterlimit:10;}
	.st22{fill:url(#SVGID_21_);stroke:#231F20;stroke-width:2;stroke-miterlimit:10;}
	.st23{fill:url(#SVGID_22_);stroke:#231F20;stroke-width:2;stroke-miterlimit:10;}
	.st24{fill:url(#SVGID_23_);stroke:#231F20;stroke-width:2;stroke-miterlimit:10;}
	.st25{fill:url(#SVGID_24_);stroke:#231F20;stroke-width:2;stroke-miterlimit:10;}
	.st26{fill:url(#SVGID_25_);stroke:#231F20;stroke-width:2;stroke-miterlimit:10;}
	.st27{fill:url(#SVGID_26_);stroke:#231F20;stroke-width:2;stroke-miterlimit:10;}
	.st28{fill:url(#SVGID_27_);stroke:#231F20;stroke-width:2;stroke-miterlimit:10;}
	.st29{fill:url(#SVGID_28_);stroke:#231F20;stroke-width:2;stroke-miterlimit:10;}
	.st30{fill:url(#SVGID_29_);stroke:#231F20;stroke-width:2;stroke-miterlimit:10;}
	.st31{fill:url(#SVGID_30_);stroke:#231F20;stroke-width:2;stroke-miterlimit:10;}
	.st32{clip-path:url(#SVGID_33_);}
	.st33{fill:#231F20;stroke:#1C161B;stroke-width:2;stroke-miterlimit:10;}
	.st34{fill:url(#SVGID_34_);stroke:#231F20;stroke-width:2;stroke-miterlimit:10;}
	.st35{fill:url(#SVGID_35_);stroke:#231F20;stroke-width:2;stroke-miterlimit:10;}
	.st36{fill:url(#SVGID_36_);stroke:#231F20;stroke-width:2;stroke-miterlimit:10;}
	.st37{fill:url(#SVGID_37_);stroke:#231F20;stroke-width:2;stroke-miterlimit:10;}
	.st38{fill:url(#SVGID_38_);stroke:#231F20;stroke-width:2;stroke-miterlimit:10;}
	.st39{fill:url(#SVGID_39_);stroke:#231F20;stroke-width:2;stroke-miterlimit:10;}
	.st40{fill:url(#SVGID_40_);stroke:#231F20;stroke-width:2;stroke-miterlimit:10;}
	.st41{fill:url(#SVGID_41_);stroke:#231F20;stroke-width:2;stroke-miterlimit:10;}
	.st42{fill:url(#SVGID_42_);stroke:#231F20;stroke-width:2;stroke-miterlimit:10;}
	.st43{fill:url(#SVGID_43_);stroke:#231F20;stroke-width:2;stroke-miterlimit:10;}
	.st44{fill:url(#SVGID_44_);stroke:#231F20;stroke-width:2;stroke-miterlimit:10;}
	.st45{fill:url(#SVGID_45_);stroke:#231F20;stroke-width:2;stroke-miterlimit:10;}
	.st46{fill:url(#SVGID_46_);stroke:#231F20;stroke-width:2;stroke-miterlimit:10;}
	.st47{fill:url(#SVGID_47_);stroke:#231F20;stroke-width:2;stroke-miterlimit:10;}
	.st48{clip-path:url(#SVGID_49_);}
	.st49{fill:url(#SVGID_50_);stroke:#231F20;stroke-width:2;stroke-miterlimit:10;}
	.st50{fill:url(#SVGID_51_);stroke:#231F20;stroke-width:2;stroke-miterlimit:10;}
	.st51{fill:url(#SVGID_52_);stroke:#231F20;stroke-width:2;stroke-miterlimit:10;}
	.st52{fill:url(#SVGID_53_);stroke:#231F20;stroke-width:2;stroke-miterlimit:10;}
	.st53{fill:url(#SVGID_54_);stroke:#231F20;stroke-width:2;stroke-miterlimit:10;}
	.st54{fill:url(#SVGID_55_);stroke:#231F20;stroke-width:2;stroke-miterlimit:10;}
	.st55{fill:url(#SVGID_56_);stroke:#231F20;stroke-width:2;stroke-miterlimit:10;}
	.st56{fill:url(#SVGID_57_);stroke:#231F20;stroke-width:2;stroke-miterlimit:10;}
	.st57{fill:url(#SVGID_58_);stroke:#231F20;stroke-width:2;stroke-miterlimit:10;}
	.st58{fill:url(#SVGID_59_);stroke:#231F20;stroke-width:2;stroke-miterlimit:10;}
	.st59{fill:url(#SVGID_60_);stroke:#231F20;stroke-width:2;stroke-miterlimit:10;}
	.st60{fill:url(#SVGID_61_);stroke:#231F20;stroke-width:2;stroke-miterlimit:10;}
	.st61{fill:url(#SVGID_62_);stroke:#231F20;stroke-width:2;stroke-miterlimit:10;}
	.st62{fill:url(#SVGID_63_);stroke:#231F20;stroke-width:2;stroke-miterlimit:10;}
	.st63{clip-path:url(#SVGID_66_);}
	.st64{fill:url(#SVGID_67_);stroke:#231F20;stroke-width:2;stroke-miterlimit:10;}
	.st65{fill:url(#SVGID_68_);stroke:#231F20;stroke-width:2;stroke-miterlimit:10;}
	.st66{fill:url(#SVGID_69_);stroke:#231F20;stroke-width:2;stroke-miterlimit:10;}
	.st67{fill:url(#SVGID_70_);stroke:#231F20;stroke-width:2;stroke-miterlimit:10;}
	.st68{fill:url(#SVGID_71_);stroke:#231F20;stroke-width:2;stroke-miterlimit:10;}
	.st69{fill:url(#SVGID_72_);stroke:#231F20;stroke-width:2;stroke-miterlimit:10;}
	.st70{fill:url(#SVGID_73_);stroke:#231F20;stroke-width:2;stroke-miterlimit:10;}
	.st71{fill:url(#SVGID_74_);stroke:#231F20;stroke-width:2;stroke-miterlimit:10;}
	.st72{fill:url(#SVGID_75_);stroke:#231F20;stroke-width:2;stroke-miterlimit:10;}
	.st73{fill:url(#SVGID_76_);stroke:#231F20;stroke-width:2;stroke-miterlimit:10;}
	.st74{fill:url(#SVGID_77_);stroke:#231F20;stroke-width:2;stroke-miterlimit:10;}
	.st75{fill:url(#SVGID_78_);stroke:#231F20;stroke-width:2;stroke-miterlimit:10;}
	.st76{fill:url(#SVGID_79_);stroke:#231F20;stroke-width:2;stroke-miterlimit:10;}
	.st77{fill:url(#SVGID_80_);stroke:#231F20;stroke-width:2;stroke-miterlimit:10;}
	.st78{clip-path:url(#SVGID_82_);}
	.st79{fill:url(#SVGID_83_);stroke:#231F20;stroke-width:2;stroke-miterlimit:10;}
	.st80{fill:url(#SVGID_84_);stroke:#231F20;stroke-width:2;stroke-miterlimit:10;}
	.st81{fill:url(#SVGID_85_);stroke:#231F20;stroke-width:2;stroke-miterlimit:10;}
	.st82{fill:url(#SVGID_86_);stroke:#231F20;stroke-width:2;stroke-miterlimit:10;}
	.st83{fill:url(#SVGID_87_);stroke:#231F20;stroke-width:2;stroke-miterlimit:10;}
	.st84{fill:url(#SVGID_88_);stroke:#231F20;stroke-width:2;stroke-miterlimit:10;}
	.st85{fill:url(#SVGID_89_);stroke:#231F20;stroke-width:2;stroke-miterlimit:10;}
	.st86{fill:url(#SVGID_90_);stroke:#231F20;stroke-width:2;stroke-miterlimit:10;}
	.st87{fill:url(#SVGID_91_);stroke:#231F20;stroke-width:2;stroke-miterlimit:10;}
	.st88{fill:url(#SVGID_92_);stroke:#231F20;stroke-width:2;stroke-miterlimit:10;}
	.st89{fill:url(#SVGID_93_);stroke:#231F20;stroke-width:2;stroke-miterlimit:10;}
	.st90{fill:url(#SVGID_94_);stroke:#231F20;stroke-width:2;stroke-miterlimit:10;}
	.st91{fill:url(#SVGID_95_);stroke:#231F20;stroke-width:2;stroke-miterlimit:10;}
	.st92{fill:url(#SVGID_96_);stroke:#231F20;stroke-width:2;stroke-miterlimit:10;}
	.st93{clip-path:url(#SVGID_98_);}
	.st94{fill:url(#SVGID_99_);stroke:#231F20;stroke-width:2;stroke-miterlimit:10;}
	.st95{fill:url(#SVGID_100_);stroke:#231F20;stroke-width:2;stroke-miterlimit:10;}
	.st96{fill:url(#SVGID_101_);stroke:#231F20;stroke-width:2;stroke-miterlimit:10;}
	.st97{fill:url(#SVGID_102_);stroke:#231F20;stroke-width:2;stroke-miterlimit:10;}
	.st98{fill:url(#SVGID_103_);stroke:#231F20;stroke-width:2;stroke-miterlimit:10;}
	.st99{fill:url(#SVGID_104_);stroke:#231F20;stroke-width:2;stroke-miterlimit:10;}
	.st100{fill:url(#SVGID_105_);stroke:#231F20;stroke-width:2;stroke-miterlimit:10;}
	.st101{fill:url(#SVGID_106_);stroke:#231F20;stroke-width:2;stroke-miterlimit:10;}
	.st102{fill:url(#SVGID_107_);stroke:#231F20;stroke-width:2;stroke-miterlimit:10;}
	.st103{fill:url(#SVGID_108_);stroke:#231F20;stroke-width:2;stroke-miterlimit:10;}
	.st104{fill:url(#SVGID_109_);stroke:#231F20;stroke-width:2;stroke-miterlimit:10;}
	.st105{fill:url(#SVGID_110_);stroke:#231F20;stroke-width:2;stroke-miterlimit:10;}
	.st106{fill:url(#SVGID_111_);stroke:#231F20;stroke-width:2;stroke-miterlimit:10;}
	.st107{fill:url(#SVGID_112_);stroke:#231F20;stroke-width:2;stroke-miterlimit:10;}
	.st108{clip-path:url(#SVGID_115_);}
	.st109{fill:url(#SVGID_116_);stroke:#231F20;stroke-width:2;stroke-miterlimit:10;}
	.st110{fill:url(#SVGID_117_);stroke:#231F20;stroke-width:2;stroke-miterlimit:10;}
	.st111{fill:url(#SVGID_118_);stroke:#231F20;stroke-width:2;stroke-miterlimit:10;}
	.st112{fill:url(#SVGID_119_);stroke:#231F20;stroke-width:2;stroke-miterlimit:10;}
	.st113{fill:url(#SVGID_120_);stroke:#231F20;stroke-width:2;stroke-miterlimit:10;}
	.st114{fill:url(#SVGID_121_);stroke:#231F20;stroke-width:2;stroke-miterlimit:10;}
	.st115{fill:url(#SVGID_122_);stroke:#231F20;stroke-width:2;stroke-miterlimit:10;}
	.st116{fill:url(#SVGID_123_);stroke:#231F20;stroke-width:2;stroke-miterlimit:10;}
	.st117{fill:url(#SVGID_124_);stroke:#231F20;stroke-width:2;stroke-miterlimit:10;}
	.st118{fill:url(#SVGID_125_);stroke:#231F20;stroke-width:2;stroke-miterlimit:10;}
	.st119{fill:url(#SVGID_126_);stroke:#231F20;stroke-width:2;stroke-miterlimit:10;}
	.st120{fill:url(#SVGID_127_);stroke:#231F20;stroke-width:2;stroke-miterlimit:10;}
	.st121{fill:url(#SVGID_128_);stroke:#231F20;stroke-width:2;stroke-miterlimit:10;}
	.st122{fill:url(#SVGID_129_);stroke:#231F20;stroke-width:2;stroke-miterlimit:10;}
	.st123{clip-path:url(#SVGID_131_);}
	.st124{fill:url(#SVGID_132_);stroke:#231F20;stroke-width:2;stroke-miterlimit:10;}
	.st125{fill:url(#SVGID_133_);stroke:#231F20;stroke-width:2;stroke-miterlimit:10;}
	.st126{fill:url(#SVGID_134_);stroke:#231F20;stroke-width:2;stroke-miterlimit:10;}
	.st127{fill:url(#SVGID_135_);stroke:#231F20;stroke-width:2;stroke-miterlimit:10;}
	.st128{fill:url(#SVGID_136_);stroke:#231F20;stroke-width:2;stroke-miterlimit:10;}
	.st129{fill:url(#SVGID_137_);stroke:#231F20;stroke-width:2;stroke-miterlimit:10;}
	.st130{fill:url(#SVGID_138_);stroke:#231F20;stroke-width:2;stroke-miterlimit:10;}
	.st131{fill:url(#SVGID_139_);stroke:#231F20;stroke-width:2;stroke-miterlimit:10;}
	.st132{fill:url(#SVGID_140_);stroke:#231F20;stroke-width:2;stroke-miterlimit:10;}
	.st133{fill:url(#SVGID_141_);stroke:#231F20;stroke-width:2;stroke-miterlimit:10;}
	.st134{fill:url(#SVGID_142_);stroke:#231F20;stroke-width:2;stroke-miterlimit:10;}
	.st135{fill:url(#SVGID_143_);stroke:#231F20;stroke-width:2;stroke-miterlimit:10;}
	.st136{fill:url(#SVGID_144_);stroke:#231F20;stroke-width:2;stroke-miterlimit:10;}
	.st137{fill:url(#SVGID_145_);stroke:#231F20;stroke-width:2;stroke-miterlimit:10;}
	.st138{clip-path:url(#SVGID_147_);}
	.st139{fill:url(#SVGID_148_);stroke:#231F20;stroke-width:2;stroke-miterlimit:10;}
	.st140{fill:url(#SVGID_149_);stroke:#231F20;stroke-width:2;stroke-miterlimit:10;}
	.st141{fill:url(#SVGID_150_);stroke:#231F20;stroke-width:2;stroke-miterlimit:10;}
	.st142{fill:url(#SVGID_151_);stroke:#231F20;stroke-width:2;stroke-miterlimit:10;}
	.st143{fill:url(#SVGID_152_);stroke:#231F20;stroke-width:2;stroke-miterlimit:10;}
	.st144{fill:url(#SVGID_153_);stroke:#231F20;stroke-width:2;stroke-miterlimit:10;}
	.st145{fill:url(#SVGID_154_);stroke:#231F20;stroke-width:2;stroke-miterlimit:10;}
	.st146{fill:url(#SVGID_155_);stroke:#231F20;stroke-width:2;stroke-miterlimit:10;}
	.st147{fill:url(#SVGID_156_);stroke:#231F20;stroke-width:2;stroke-miterlimit:10;}
	.st148{fill:url(#SVGID_157_);stroke:#231F20;stroke-width:2;stroke-miterlimit:10;}
	.st149{fill:url(#SVGID_158_);stroke:#231F20;stroke-width:2;stroke-miterlimit:10;}
	.st150{fill:url(#SVGID_159_);stroke:#231F20;stroke-width:2;stroke-miterlimit:10;}
	.st151{fill:url(#SVGID_160_);stroke:#231F20;stroke-width:2;stroke-miterlimit:10;}
	.st152{fill:url(#SVGID_161_);stroke:#231F20;stroke-width:2;stroke-miterlimit:10;}
	.st153{clip-path:url(#SVGID_164_);}
	.st154{fill:url(#SVGID_165_);stroke:#231F20;stroke-width:2;stroke-miterlimit:10;}
	.st155{fill:url(#SVGID_166_);stroke:#231F20;stroke-width:2;stroke-miterlimit:10;}
	.st156{fill:url(#SVGID_167_);stroke:#231F20;stroke-width:2;stroke-miterlimit:10;}
	.st157{fill:url(#SVGID_168_);stroke:#231F20;stroke-width:2;stroke-miterlimit:10;}
	.st158{fill:url(#SVGID_169_);stroke:#231F20;stroke-width:2;stroke-miterlimit:10;}
	.st159{fill:url(#SVGID_170_);stroke:#231F20;stroke-width:2;stroke-miterlimit:10;}
	.st160{fill:url(#SVGID_171_);stroke:#231F20;stroke-width:2;stroke-miterlimit:10;}
	.st161{fill:url(#SVGID_172_);stroke:#231F20;stroke-width:2;stroke-miterlimit:10;}
	.st162{fill:url(#SVGID_173_);stroke:#231F20;stroke-width:2;stroke-miterlimit:10;}
	.st163{fill:url(#SVGID_174_);stroke:#231F20;stroke-width:2;stroke-miterlimit:10;}
	.st164{fill:url(#SVGID_175_);stroke:#231F20;stroke-width:2;stroke-miterlimit:10;}
	.st165{fill:url(#SVGID_176_);stroke:#231F20;stroke-width:2;stroke-miterlimit:10;}
	.st166{fill:url(#SVGID_177_);stroke:#231F20;stroke-width:2;stroke-miterlimit:10;}
	.st167{fill:url(#SVGID_178_);stroke:#231F20;stroke-width:2;stroke-miterlimit:10;}
	.st168{clip-path:url(#SVGID_180_);}
	.st169{fill:url(#SVGID_181_);stroke:#231F20;stroke-width:2;stroke-miterlimit:10;}
	.st170{fill:url(#SVGID_182_);stroke:#231F20;stroke-width:2;stroke-miterlimit:10;}
	.st171{fill:url(#SVGID_183_);stroke:#231F20;stroke-width:2;stroke-miterlimit:10;}
	.st172{fill:url(#SVGID_184_);stroke:#231F20;stroke-width:2;stroke-miterlimit:10;}
	.st173{fill:url(#SVGID_185_);stroke:#231F20;stroke-width:2;stroke-miterlimit:10;}
	.st174{fill:url(#SVGID_186_);stroke:#231F20;stroke-width:2;stroke-miterlimit:10;}
	.st175{fill:url(#SVGID_187_);stroke:#231F20;stroke-width:2;stroke-miterlimit:10;}
	.st176{fill:url(#SVGID_188_);stroke:#231F20;stroke-width:2;stroke-miterlimit:10;}
	.st177{fill:url(#SVGID_189_);stroke:#231F20;stroke-width:2;stroke-miterlimit:10;}
	.st178{fill:url(#SVGID_190_);stroke:#231F20;stroke-width:2;stroke-miterlimit:10;}
	.st179{fill:url(#SVGID_191_);stroke:#231F20;stroke-width:2;stroke-miterlimit:10;}
	.st180{fill:url(#SVGID_192_);stroke:#231F20;stroke-width:2;stroke-miterlimit:10;}
	.st181{fill:url(#SVGID_193_);stroke:#231F20;stroke-width:2;stroke-miterlimit:10;}
	.st182{fill:url(#SVGID_194_);stroke:#231F20;stroke-width:2;stroke-miterlimit:10;}
	.st183{clip-path:url(#SVGID_196_);}
	.st184{fill:url(#SVGID_197_);stroke:#231F20;stroke-width:2;stroke-miterlimit:10;}
	.st185{fill:url(#SVGID_198_);stroke:#231F20;stroke-width:2;stroke-miterlimit:10;}
	.st186{fill:url(#SVGID_199_);stroke:#231F20;stroke-width:2;stroke-miterlimit:10;}
	.st187{fill:url(#SVGID_200_);stroke:#231F20;stroke-width:2;stroke-miterlimit:10;}
	.st188{fill:url(#SVGID_201_);stroke:#231F20;stroke-width:2;stroke-miterlimit:10;}
	.st189{fill:url(#SVGID_202_);stroke:#231F20;stroke-width:2;stroke-miterlimit:10;}
	.st190{fill:url(#SVGID_203_);stroke:#231F20;stroke-width:2;stroke-miterlimit:10;}
	.st191{fill:url(#SVGID_204_);stroke:#231F20;stroke-width:2;stroke-miterlimit:10;}
	.st192{fill:url(#SVGID_205_);stroke:#231F20;stroke-width:2;stroke-miterlimit:10;}
	.st193{fill:url(#SVGID_206_);stroke:#231F20;stroke-width:2;stroke-miterlimit:10;}
	.st194{fill:url(#SVGID_207_);stroke:#231F20;stroke-width:2;stroke-miterlimit:10;}
	.st195{fill:url(#SVGID_208_);stroke:#231F20;stroke-width:2;stroke-miterlimit:10;}
	.st196{fill:url(#SVGID_209_);stroke:#231F20;stroke-width:2;stroke-miterlimit:10;}
	.st197{fill:url(#SVGID_210_);stroke:#231F20;stroke-width:2;stroke-miterlimit:10;}
	.st198{clip-path:url(#SVGID_213_);}
	.st199{fill:url(#SVGID_214_);}
	.st200{fill:url(#SVGID_215_);}
	.st201{fill:url(#SVGID_216_);}
	.st202{fill:url(#SVGID_217_);}
	.st203{fill:url(#SVGID_218_);}
	.st204{fill:url(#SVGID_219_);}
	.st205{fill:url(#SVGID_220_);}
	.st206{fill:url(#SVGID_221_);}
	.st207{fill:url(#SVGID_222_);}
	.st208{fill:url(#SVGID_223_);}
	.st209{fill:url(#SVGID_224_);}
	.st210{fill:url(#SVGID_225_);}
	.st211{fill:url(#SVGID_226_);}
	.st212{fill:url(#SVGID_227_);}
	.st213{clip-path:url(#SVGID_229_);}
	.st214{font-family:'TektonPro-Regular';}
	.st215{font-size:12px;}
	.st216{fill:#231F20;}
	.st217{font-size:9px;}
	.st218{fill:none;stroke:#231F20;stroke-miterlimit:10;}
	.st219{fill:#231F20;stroke:#231F20;stroke-miterlimit:10;}
</style>
<g id="Text">
</g>
<g>
	<g>
		<g>
			<g>
				<g>
					<linearGradient id="SVGID_1_" gradientUnits="userSpaceOnUse" x1="68.0134" y1="49.5815" x2="185.4398" y2="49.5815">
						<stop  offset="0" style="stop-color:#FEFEFE"/>
						<stop  offset="1" style="stop-color:#231F20"/>
					</linearGradient>
					<ellipse style="fill:url(#SVGID_1_);" cx="126.73" cy="49.58" rx="58.71" ry="20.74"/>
					<linearGradient id="SVGID_2_" gradientUnits="userSpaceOnUse" x1="66.3599" y1="27.5541" x2="82.8523" y2="27.5541">
						<stop  offset="0" style="stop-color:#45C8FF"/>
						<stop  offset="1" style="stop-color:#0000CC"/>
					</linearGradient>
					<path style="fill:url(#SVGID_2_);" d="M81.73,23.89c1.17,2.42,1.42,4.68,0.75,6.78c-0.67,2.1-2.08,3.68-4.22,4.72
						c-2.1,1.02-4.15,1.14-6.17,0.36c-2.01-0.78-3.57-2.29-4.66-4.54c-1.14-2.35-1.38-4.6-0.72-6.74c0.66-2.14,2.05-3.72,4.17-4.75
						c2.12-1.03,4.18-1.15,6.19-0.37C79.09,20.13,80.64,21.65,81.73,23.89z M69.58,30.09c0.82,1.69,1.98,2.9,3.47,3.61
						c1.49,0.71,2.97,0.71,4.44-0.01c1.52-0.74,2.47-1.91,2.83-3.51c0.37-1.6,0.11-3.31-0.77-5.12c-0.82-1.69-1.97-2.89-3.45-3.62
						c-1.48-0.73-2.98-0.72-4.5,0.01c-1.54,0.75-2.48,1.92-2.82,3.53C68.45,26.59,68.71,28.3,69.58,30.09z"/>
					<linearGradient id="SVGID_3_" gradientUnits="userSpaceOnUse" x1="85.4688" y1="22.0257" x2="97.1502" y2="22.0257">
						<stop  offset="0" style="stop-color:#45C8FF"/>
						<stop  offset="1" style="stop-color:#0000CC"/>
					</linearGradient>
					<path style="fill:url(#SVGID_3_);" d="M89.21,30.92l-3.74-16.15c1.19-0.51,2.6-0.96,4.21-1.33c2.06-0.48,3.71-0.39,4.94,0.25
						c1.24,0.65,2.02,1.69,2.36,3.14c0.39,1.71,0.1,3.15-0.87,4.35c-0.98,1.19-2.42,2.01-4.35,2.46c-0.82,0.19-1.42,0.27-1.81,0.24
						l1.51,6.52L89.21,30.92z M88.09,15.85l1.44,6.21c0.45,0.03,1.07-0.04,1.86-0.23c1.31-0.3,2.26-0.84,2.85-1.61
						c0.59-0.77,0.76-1.69,0.51-2.77c-0.23-1.01-0.76-1.71-1.56-2.1c-0.81-0.39-1.83-0.44-3.07-0.15
						C89.33,15.38,88.66,15.6,88.09,15.85z"/>
					<linearGradient id="SVGID_4_" gradientUnits="userSpaceOnUse" x1="99.8131" y1="18.763" x2="112.8897" y2="18.763">
						<stop  offset="0" style="stop-color:#45C8FF"/>
						<stop  offset="1" style="stop-color:#0000CC"/>
					</linearGradient>
					<path style="fill:url(#SVGID_4_);" d="M107,27.53l-1.7-14.73l-5.26,0.61l-0.22-1.93l12.85-1.49l0.22,1.93l-5.29,0.61l1.7,14.73
						L107,27.53z"/>
					<linearGradient id="SVGID_5_" gradientUnits="userSpaceOnUse" x1="116.8184" y1="18.1674" x2="119.9199" y2="18.1674">
						<stop  offset="0" style="stop-color:#45C8FF"/>
						<stop  offset="1" style="stop-color:#0000CC"/>
					</linearGradient>
					<path style="fill:url(#SVGID_5_);" d="M116.82,9.85l2.31-0.11l0.79,16.75l-2.31,0.11L116.82,9.85z"/>
					<linearGradient id="SVGID_6_" gradientUnits="userSpaceOnUse" x1="124.4249" y1="18.1262" x2="142.1287" y2="18.1262">
						<stop  offset="0" style="stop-color:#45C8FF"/>
						<stop  offset="1" style="stop-color:#0000CC"/>
					</linearGradient>
					<path style="fill:url(#SVGID_6_);" d="M139.87,26.74l-0.13-9.13c-0.03-2.63-0.05-4.46-0.05-5.49
						c-0.64,1.85-1.37,3.75-2.17,5.71l-3.55,8.57l-1.77-0.07c-1.84-6.04-2.92-9.63-3.24-10.76c-0.32-1.14-0.64-2.43-0.98-3.89
						c-0.24,3.12-0.45,5.64-0.64,7.55l-0.72,7.02l-2.19-0.08l1.81-16.71l3.01,0.12c1.87,5.86,2.93,9.27,3.2,10.23
						c0.27,0.97,0.58,2.16,0.92,3.6c0.59-1.92,1.23-3.71,1.94-5.37l3.44-8.1l2.98,0.12l0.4,16.8L139.87,26.74z"/>
					<linearGradient id="SVGID_7_" gradientUnits="userSpaceOnUse" x1="147.5249" y1="19.8614" x2="162.0745" y2="19.8614">
						<stop  offset="0" style="stop-color:#45C8FF"/>
						<stop  offset="1" style="stop-color:#0000CC"/>
					</linearGradient>
					<path style="fill:url(#SVGID_7_);" d="M149.37,10.86l2.28,0.39l-1.66,9.64c-0.3,1.72-0.17,3.1,0.37,4.13
						c0.54,1.03,1.45,1.66,2.71,1.88c1.33,0.23,2.43-0.05,3.31-0.83c0.87-0.78,1.46-2.04,1.76-3.78l1.66-9.64l2.28,0.39l-1.64,9.49
						c-0.41,2.37-1.29,4.08-2.64,5.14c-1.35,1.05-3.07,1.4-5.14,1.05c-1.99-0.34-3.42-1.22-4.27-2.63c-0.85-1.41-1.07-3.3-0.66-5.67
						L149.37,10.86z"/>
					<linearGradient id="SVGID_8_" gradientUnits="userSpaceOnUse" x1="163.552" y1="26.026" x2="185.2729" y2="26.026">
						<stop  offset="0" style="stop-color:#45C8FF"/>
						<stop  offset="1" style="stop-color:#0000CC"/>
					</linearGradient>
					<path style="fill:url(#SVGID_8_);" d="M177.89,36.05l2.95-8.64c0.86-2.49,1.46-4.22,1.8-5.19c-1.23,1.53-2.55,3.07-3.97,4.64
						l-6.23,6.87l-1.64-0.66c0.3-6.31,0.49-10.05,0.57-11.23c0.08-1.18,0.21-2.51,0.39-3.99c-1.27,2.86-2.32,5.15-3.14,6.89
						l-3.04,6.37l-2.03-0.82l7.34-15.13l2.79,1.12c-0.22,6.14-0.36,9.72-0.43,10.71c-0.07,1-0.19,2.23-0.34,3.7
						c1.2-1.61,2.41-3.08,3.63-4.4l5.96-6.47l2.77,1.11l-5.28,15.95L177.89,36.05z"/>
				</g>
			</g>
			<g>
				<linearGradient id="SVGID_9_" gradientUnits="userSpaceOnUse" x1="77.2805" y1="74.9742" x2="94.0106" y2="74.9742">
					<stop  offset="0" style="stop-color:#45C8FF"/>
					<stop  offset="1" style="stop-color:#0000CC"/>
				</linearGradient>
				<path style="fill:url(#SVGID_9_);" d="M77.28,81.85l4.67-15.82c1.57,0.2,3.16,0.54,4.78,1.02c3.14,0.93,5.25,2.32,6.31,4.18
					c1.06,1.86,1.25,3.96,0.56,6.31c-0.78,2.63-2.21,4.48-4.3,5.55c-2.09,1.07-4.78,1.11-8.07,0.14
					C79.73,82.78,78.41,82.32,77.28,81.85z M83.7,68.28l-3.7,12.55c0.31,0.16,1.03,0.41,2.17,0.74c2.28,0.67,4.2,0.6,5.77-0.2
					c1.57-0.81,2.67-2.29,3.31-4.43c0.58-1.97,0.45-3.66-0.39-5.06c-0.84-1.4-2.35-2.42-4.53-3.06
					C85.3,68.52,84.43,68.34,83.7,68.28z"/>
				<linearGradient id="SVGID_10_" gradientUnits="userSpaceOnUse" x1="99.8074" y1="79.7386" x2="111.3254" y2="79.7386">
					<stop  offset="0" style="stop-color:#45C8FF"/>
					<stop  offset="1" style="stop-color:#0000CC"/>
				</linearGradient>
				<path style="fill:url(#SVGID_10_);" d="M110.03,78.96l-0.24,1.9L103.1,80l-0.75,5.82l7.48,0.96l-0.24,1.9l-9.77-1.26l2.14-16.63
					l9.38,1.21l-0.24,1.9L104,72.99l-0.66,5.11L110.03,78.96z"/>
				<linearGradient id="SVGID_11_" gradientUnits="userSpaceOnUse" x1="115.6992" y1="80.9226" x2="126.3632" y2="80.9226">
					<stop  offset="0" style="stop-color:#45C8FF"/>
					<stop  offset="1" style="stop-color:#0000CC"/>
				</linearGradient>
				<path style="fill:url(#SVGID_11_);" d="M115.7,88.3l0.66-1.9c1.23,0.78,2.57,1.2,4.02,1.24c1.09,0.03,1.97-0.19,2.62-0.68
					c0.65-0.49,0.99-1.15,1.02-2c0.02-0.78-0.21-1.42-0.7-1.93c-0.49-0.51-1.31-0.98-2.46-1.4c-1.57-0.6-2.72-1.29-3.43-2.08
					c-0.71-0.79-1.05-1.74-1.02-2.83c0.04-1.33,0.6-2.42,1.67-3.25c1.07-0.83,2.44-1.23,4.09-1.17c1.59,0.05,2.88,0.37,3.85,0.97
					l-0.68,1.85c-0.95-0.58-2.05-0.88-3.31-0.92c-1.01-0.03-1.81,0.18-2.38,0.64c-0.58,0.46-0.88,1.03-0.9,1.72
					c-0.02,0.7,0.2,1.28,0.67,1.75c0.47,0.47,1.36,0.97,2.67,1.49c1.57,0.63,2.69,1.34,3.34,2.14c0.66,0.8,0.97,1.78,0.93,2.95
					c-0.04,1.43-0.61,2.59-1.71,3.46c-1.1,0.87-2.6,1.28-4.51,1.22c-0.8-0.02-1.61-0.15-2.44-0.39
					C116.87,88.93,116.2,88.64,115.7,88.3z"/>
				<linearGradient id="SVGID_12_" gradientUnits="userSpaceOnUse" x1="131.8903" y1="80.8858" x2="134.8281" y2="80.8858">
					<stop  offset="0" style="stop-color:#45C8FF"/>
					<stop  offset="1" style="stop-color:#0000CC"/>
				</linearGradient>
				<path style="fill:url(#SVGID_12_);" d="M131.89,72.55l2.31-0.09l0.63,16.76l-2.31,0.09L131.89,72.55z"/>
				<linearGradient id="SVGID_13_" gradientUnits="userSpaceOnUse" x1="140.4145" y1="79.4922" x2="155.7047" y2="79.4922">
					<stop  offset="0" style="stop-color:#45C8FF"/>
					<stop  offset="1" style="stop-color:#0000CC"/>
				</linearGradient>
				<path style="fill:url(#SVGID_13_);" d="M154.69,78.38l1.01,8c-1.7,0.87-3.45,1.41-5.26,1.64c-2.86,0.36-5.15-0.14-6.88-1.52
					c-1.73-1.37-2.75-3.28-3.06-5.73c-0.32-2.53,0.27-4.7,1.78-6.53c1.5-1.82,3.67-2.92,6.49-3.27c1.72-0.22,3.22-0.14,4.49,0.23
					l-0.33,1.92c-1.15-0.36-2.48-0.44-3.99-0.25c-2.09,0.26-3.68,1.07-4.77,2.42c-1.09,1.35-1.51,3.03-1.26,5.04
					c0.26,2.02,1.06,3.55,2.41,4.59c1.35,1.05,3.03,1.44,5.05,1.19c1.37-0.17,2.35-0.46,2.93-0.85l-0.61-4.79l-3.46,0.44l-0.23-1.83
					L154.69,78.38z"/>
				<linearGradient id="SVGID_14_" gradientUnits="userSpaceOnUse" x1="160.5732" y1="75.1382" x2="178.198" y2="75.1382">
					<stop  offset="0" style="stop-color:#45C8FF"/>
					<stop  offset="1" style="stop-color:#0000CC"/>
				</linearGradient>
				<path style="fill:url(#SVGID_14_);" d="M167.75,84.47l-2.06,0.66l-5.11-15.97l2.46-0.79l7.79,6.31
					c1.77,1.43,3.32,2.83,4.64,4.21c-0.62-1.4-1.39-3.54-2.31-6.42l-2.13-6.66l2.06-0.66l5.11,15.97l-2.25,0.72l-7.75-6.35
					c-1.95-1.61-3.57-3.05-4.87-4.35c0.59,1.51,1.33,3.67,2.23,6.47L167.75,84.47z"/>
			</g>
		</g>
		<g class="st14">
			<defs>
				<ellipse id="SVGID_228_" class="st14" cx="126.73" cy="49.58" rx="58.91" ry="20.95"/>
			</defs>
			<use xlink:href="#SVGID_228_"  style="overflow:visible;fill:#45C8FF;"/>
			<clipPath id="SVGID_16_">
				<use xlink:href="#SVGID_228_"  style="overflow:visible;"/>
			</clipPath>
			<g class="st15">
				<polygon class="st16" points="125.75,36.44 119.52,37.97 114.72,42.22 112.45,48.22 113.22,54.58 116.86,59.86 122.54,62.84 
					128.95,62.84 134.63,59.86 138.27,54.58 139.04,48.22 136.77,42.22 131.97,37.97 				"/>
				<line class="st16" x1="119.52" y1="37.97" x2="100.45" y2="-2.26"/>
				<line class="st16" x1="114.72" y1="42.22" x2="77.28" y2="10.17"/>
				<line class="st16" x1="125.75" y1="36.44" x2="125.75" y2="-7.03"/>
				<line class="st16" x1="131.97" y1="37.97" x2="155.42" y2="1.33"/>
				<line class="st16" x1="112.45" y1="48.22" x2="58.86" y2="36.55"/>
				<line class="st16" x1="113.6" y1="54.44" x2="66.12" y2="71.73"/>
				<line class="st16" x1="116.89" y1="60.01" x2="85.81" y2="95.03"/>
				<line class="st16" x1="122.54" y1="62.84" x2="114.06" y2="104.33"/>
				<line class="st16" x1="128.95" y1="62.84" x2="140.19" y2="103.99"/>
				<line class="st16" x1="134.63" y1="59.86" x2="164.41" y2="98.58"/>
				<line class="st16" x1="138.27" y1="54.58" x2="185.25" y2="75.6"/>
				<line class="st16" x1="139.04" y1="48.22" x2="186.13" y2="43.7"/>
				<line class="st16" x1="136.77" y1="42.22" x2="180.57" y2="20.91"/>
				<path class="st16" d="M102.29,31.58c2.33-0.29,3.2-0.84,5.21-2.05c0.73-0.44,1.44-0.94,2.04-1.55c1.25-1.27,2.37-2.95,3.08-4.58
					"/>
				<path class="st16" d="M112.77,23.72c2.33,0.73,4.29,0.66,6.67,0.09c2.38-0.57,4.59-1.79,6.33-3.5"/>
				<path class="st16" d="M125.77,20.3c-0.17,0.05,3.89,2.62,6.07,3.26c2.72,0.79,6.07,1.04,8.88,0.74"/>
				<path class="st16" d="M140.72,24.3c0.24,1.06-0.06,1.45,0.35,2.46c0.41,1,1,1.96,1.83,2.64c0.77,0.63,1.71,1.02,2.63,1.39
					c2.11,0.85,7.26,3.7,7.18,3.67"/>
				<path class="st16" d="M151.39,35.11c-0.81,2.23-0.14,3.2,0.73,5.41c0.87,2.2,2.29,4.15,3.78,5.99"/>
				<path class="st16" d="M155.59,46.5c-1.48,0.83-2.59,2.54-3.16,4.15c-0.57,1.61-0.63,3.37-0.42,5.07
					c0.22,1.7,0.76,3.92,1.24,5.56"/>
				<path class="st16" d="M153.07,61.2c-1.94,1.15-3.83,2.19-4.91,4.17c-1.33,2.46-2.96,8.31-2.94,8.25"/>
				<path class="st16" d="M144.86,73.16c-4.82-0.14-8.86,1.98-11.44,6.05"/>
				<path class="st16" d="M133.42,79.22c-0.97-1.31-3.23-1.88-4.85-2c-1.62-0.12-3.24,0.24-4.81,0.66c-1.77,0.47-2.87,0.79-4.59,1.4
					"/>
				<path class="st16" d="M119.18,79.34c-0.25-0.84-1.14-1.53-1.74-2.16c-0.83-0.88-1.92-1.46-2.99-2.02
					c-1.3-0.68-2.6-1.37-4.01-1.78c-1.54-0.44-3.16-0.54-4.77-0.63"/>
				<path class="st16" d="M105.25,73.02c-0.14-1.48-0.59-2.93-1.29-4.24c-0.45-0.83-1.01-1.6-1.56-2.37c-0.72-1-1.45-2.01-2.17-3.01
					c-0.79-1.1-1.95-2.41-3.2-2.93"/>
				<path class="st16" d="M97.6,60.27c0.21-2.52,0.39-4.77,0.25-7.3s-0.06-5.94-1.2-8.19"/>
				<path class="st16" d="M96.71,44.79c1.78-1.75,2.13-3.06,2.89-5.44s2.35-5.41,2.54-7.9"/>
				<path class="st16" d="M137.08,17.48c-0.01,0-0.03,0-0.04,0"/>
				<path class="st16" d="M125.72,12.02c0.48,0.97,1.53,1.5,2.51,1.97c0.91,0.43,1.82,0.86,2.73,1.29c1.06,0.5,2.12,1,3.22,1.41
					c3.2,1.18,6.92,2.3,10.28,1.76"/>
				<path class="st16" d="M144.27,18.75c1.97,4,4.89,6.74,8.82,8.85c2.04,1.1,3.76,3.17,6,3.76"/>
				<path class="st16" d="M158.88,31.47c-0.37,2.13,0.22,3.45,0.5,5.59c0.33,2.46,0.72,5.05,2.28,6.98
					c0.59,0.72,1.33,1.32,2.16,1.75"/>
				<path class="st16" d="M164.12,45.82c-1.82,2.48-3.7,5.1-4.15,8.14c-0.26,1.74-0.03,3.51,0.2,5.25c0.23,1.74,0.66,5.51,0.66,5.46
					"/>
				<path class="st16" d="M160.17,64.36c-1.61,1.69-3.04,3.17-4.65,4.86c-1.11,1.16-2.23,2.33-2.95,3.76
					c-0.62,1.21-0.92,2.55-1.22,3.87c-0.22,0.97-0.85,2.37-1.07,3.35"/>
				<path class="st16" d="M149.38,79.03c-2.41,0.25-4.27,0.93-6.59,1.66c-1.16,0.37-2.36,0.75-3.32,1.51
					c-0.72,0.56-1.27,1.31-1.81,2.04c-0.74,1-1.36,1.84-2.09,2.84"/>
				<path class="st16" d="M135.21,85.77c-3.59-1.29-7.6-2.27-11.35-1.55c-2.26,0.43-4.1,1.3-6.17,2.32"/>
				<path class="st16" d="M117.51,87.44c0.13,0.16-6.13-7.54-10.62-8.52c-2.1-0.46-4.28-0.36-6.44-0.29"/>
				<path class="st16" d="M100.45,78.63c-0.31-2.38-1.34-4.93-2.64-6.94c-1.3-2.01-2.9-3.81-4.55-5.55
					c-0.97-1.03-1.96-2.29-3.05-3.18"/>
				<path class="st16" d="M90.21,62.96c0.93,1.26,1.11-5.49,1.25-8.59c0.15-3.42-0.44-7.77-1.46-11.04"/>
				<path class="st16" d="M90.44,43.43c3.86-4.67,6.48-10.12,6.81-16.17"/>
				<path class="st16" d="M97.47,27.46c2.1-0.08,2.96-0.36,4.96-1c1.38-0.44,2.76-1.03,3.77-2.08c0.69-0.72,1.17-1.61,1.64-2.49
					c0.65-1.22,1.52-2.78,2.17-3.99"/>
				<path class="st16" d="M110.14,18.19c2.76,0.08,5.03-0.45,7.58-1.52c0.59-0.25,1.16-0.52,1.73-0.8c2.11-1.02,4.22-2.04,6.2-3.29"
					/>
				<path class="st16" d="M125.73,8.33c1.01,0.46,2.02,0.91,3.04,1.34c5.68,2.38,12.06,4.3,18.19,4.88"/>
				<path class="st16" d="M146.96,14.55c0.84,2.4,2.45,3.74,4.38,5.4c3.87,3.34,11.51,7.28,14.11,8.31"/>
				<path class="st16" d="M164.96,28.5c-0.78,1.93-0.7,3.33-0.33,5.38c0.37,2.05,1.11,4.02,1.86,5.96c0.73,1.93,1.48,3.88,2.72,5.53
					"/>
				<path class="st16" d="M170.09,45.21c-3.2,6.97-2.47,22.57-2.47,22.5"/>
				<path class="st16" d="M167.25,67.48c-1.48,0.92-2.82,1.75-4.29,2.66c-1.36,0.84-2.74,1.71-3.76,2.94
					c-1.21,1.48-1.8,3.36-2.35,5.19c-0.73,2.4-1.58,5.08-2.3,7.47"/>
				<path class="st16" d="M153.94,84.96c-3.2,0.51-6.14,0.98-9.18,2.08s-5.79,2.64-7.78,5.19"/>
				<path class="st16" d="M136.91,92c-1.07-0.79-2.78-0.87-4.05-0.91c-2.36-0.08-4.72-0.16-7.08-0.24
					c-3.25-0.11-6.44-0.33-9.24,1.33"/>
				<path class="st16" d="M116.39,92.9c-2.92-4-7.38-7.24-12.13-8.66c-2.5-0.75-5.1-1.06-7.68-1.38"/>
				<path class="st16" d="M95.97,83.55c-1.11-3.59-2.48-7.14-4.54-10.29s-5.18-6.05-8.6-7.62"/>
				<path class="st16" d="M83.26,65.49c1.24-4.06,2.06-8.07,2.42-12.3c0.31-3.56-0.17-8.29-2.14-11.27"/>
				<path class="st16" d="M83.76,41.97c1.51-1.31,2.33-2.31,3.51-3.92c1.68-2.29,2.99-4.87,3.63-7.64c0.52-2.25,1.3-5.1,1.36-7.41"
					/>
				<path class="st16" d="M92.22,22.96c3.8-0.64,7.23-1.22,10.18-3.69c2.07-1.73,3.61-4.67,4.92-7.04"/>
				<path class="st16" d="M107.53,12.68c2.97,0.51,5.8,0.23,8.64-0.81c1.02-0.37,1.99-0.84,2.97-1.31c2.2-1.05,4.4-2.11,6.6-3.16"/>
				<path class="st16" d="M125.75,0.15c0.84,1.54,2.47,2.5,4.1,3.16c6.72,2.73,14.17,4.27,21.42,4.52"/>
				<path class="st16" d="M151.26,7.83c2.17,3.86,4.22,7.89,7.83,10.45c1.86,1.32,3.98,2.19,6.09,3.05
					c2.45,1.01,8.01,3.24,7.93,3.21"/>
				<path class="st16" d="M172.31,24.93c-0.48,3.58-0.67,6.78,0.2,10.29c0.81,3.28,3.39,6.37,5.12,9.27"/>
				<path class="st16" d="M177.58,44.46c-2.49,3.57-3.49,7.99-3.8,12.33c-0.34,4.71,1.08,14.03,1.06,13.94"/>
				<path class="st16" d="M159.07,91.51c-4,0.04-7.99,0.67-11.8,1.86c-3.33,1.04-6.65,2.56-8.47,5.54"/>
				<path class="st16" d="M138.44,97.58c-3.83-0.42-7.92-0.74-11.77-0.94c-3.91-0.2-8.06-0.23-11.46,1.74"/>
				<path class="st16" d="M115.27,98.37c-4.17-3.49-9.07-6.45-14.13-8.44c-2.85-1.12-5.98-1.99-9.05-1.99"/>
				<path class="st16" d="M91.54,88.58c-0.67-3.97-2.36-8.05-4.87-11.2c-1.47-1.85-3.21-3.47-4.95-5.09
					c-1.54-1.44-3.29-3.04-4.84-4.48"/>
				<path class="st16" d="M76.83,67.83c-0.47-3.37,0.77-6.42,1.48-9.75c0.83-3.93,0.96-8,0.39-11.97c-0.25-1.76-0.01-4.02-1.06-5.47
					"/>
				<path class="st16" d="M77.64,40.64c3.57-4.21,5.93-8.64,7.69-13.87c0.85-2.54,1.94-5.69,1.6-8.34"/>
				<path class="st16" d="M86.87,18.38c3.76-0.31,6.86-1.56,9.97-3.7c3.11-2.14,5.81-5.44,7.44-8.85"/>
				<path class="st16" d="M104.4,6.07c3.75,0.29,7.29-0.45,10.85-1.65s7.14-3.11,10.51-4.77"/>
				<path class="st16" d="M158.56,90.98c1.24-3.07,2.59-5.9,4.17-8.81c1.35-2.48,2.83-4.92,4.75-6.98s4.32-3.76,7.05-4.49"/>
				<path class="st16" d="M125.65-5.36c8.83,4.92,18.76,7.67,28.86,8"/>
				<path class="st16" d="M154.18,3.15c2.14,3.7,4.72,7.02,7.98,9.77c4.8,4.05,11.23,6.82,17.29,8.48"/>
				<path class="st16" d="M179.25,21.59c-1.24,3.7-1.25,7.75-0.45,11.57c0.8,3.82,2.39,7.44,4.29,10.86"/>
				<path class="st16" d="M182.92,43.98c-3.3,9.37-4.13,19.6-2.4,29.39"/>
				<path class="st16" d="M180.99,73.62c-3.36,2.69-6.87,5.86-9.33,9.39c-0.76,1.1-1.48,2.23-2.19,3.36
					c-1.03,1.63-2.06,3.27-3.09,4.9c-1.14,1.82-2.29,3.63-3.43,5.45"/>
				<path class="st16" d="M162.95,96.73c-2.14-0.74-4.62-0.39-6.86,0.01c-1.42,0.26-2.83,0.52-4.25,0.77
					c-2.16,0.39-4.34,0.79-6.4,1.56c-2.11,0.78-4.07,1.95-5.76,3.43"/>
				<path class="st16" d="M139.8,102.56c-7.94-3.28-17.09-3.64-25.21-0.84"/>
				<path class="st16" d="M114.46,102.33c0.04,0.02-6.11-4.16-9.4-5.6c-2.11-0.92-4.3-1.66-6.48-2.4c-1.66-0.57-3.33-1.13-4.99-1.7
					c-1.5-0.51-2.99-1.02-4.49-1.52"/>
				<path class="st16" d="M88.94,91.49c-1.96-4.26-4.8-8.06-7.99-11.49s-6.73-6.52-10.26-9.6"/>
				<path class="st16" d="M69.98,70.53c1.19-10.4,2.38-21.01,0.18-31.24"/>
				<path class="st16" d="M69.59,39.23c4.4-8.2,9.1-16.7,11.67-25.64"/>
				<path class="st16" d="M81.26,13.58c3.52-1.44,6.72-3.04,9.76-5.32c1.41-1.06,2.72-2.23,4.04-3.41c2.02-1.8,4.04-3.61,6.05-5.41"
					/>
				<path class="st16" d="M101.25-0.23c6.24-1.32,12.49-2.63,18.73-3.95c1.96-0.41,4.19-1.22,5.79-2.43"/>
				<path class="st16" d="M115.14,28.67c0.8,0.61,1.83,0.87,2.84,0.87s2-0.23,2.97-0.53c1.66-0.51,3.25-1.22,4.75-2.09"/>
				<path class="st16" d="M117.6,33.98c0.93,0.31,1.93,0.35,2.91,0.26c1.85-0.15,3.67-0.72,5.28-1.64"/>
				<path class="st16" d="M125.75,32.69c2.19,1.92,5.28,2.76,8.14,2.23"/>
				<path class="st16" d="M125.73,26.77c1.15,1.29,2.65,2.28,4.3,2.82c0.85,0.28,1.74,0.44,2.62,0.6c1.41,0.26,2.91,0.51,4.26,0"/>
				<path class="st16" d="M137.47,29.38c-0.28,0.31-0.3,0.44-0.27,0.86c0.03,0.44,0.24,0.84,0.46,1.22
					c1.81,3.06,5.02,5.28,8.46,6.22"/>
				<path class="st16" d="M133.9,34.87c1.52,2.57,4.05,4.52,6.92,5.34"/>
				<path class="st16" d="M146.12,37.67c-0.44,1.33-0.5,3.03-0.03,4.34c0.74,2.07,2.66,3.69,4.34,5.11"/>
				<path class="st16" d="M141.06,40.13c-0.33,0.77-0.39,1.8-0.27,2.63c0.14,1,0.62,1.93,1.22,2.74c0.6,0.81,1.33,1.52,2.06,2.22"/>
				<path class="st16" d="M144.06,47.74c-1.95,2.39-2.57,5.97-1.43,8.83"/>
				<path class="st16" d="M149.6,47.2c-0.71,0.29-1.12,1.15-1.45,1.84c-0.67,1.42-1.23,2.91-1.46,4.46
					c-0.23,1.58-0.12,3.18-0.01,4.77"/>
				<path class="st16" d="M142.63,56.57c-2.56,1.27-4.7,3.72-5.73,6.38"/>
				<path class="st16" d="M147.2,58.63c-2.16,1.3-4.01,3.12-5.35,5.26c-0.72,1.15-1.31,2.47-1.23,3.83"/>
				<path class="st16" d="M131.62,72.53c0.4-0.95,0.15-0.35,0.33-0.72c0.2-0.43,0.54-0.78,0.86-1.14c0.99-1.14,2.02-2.31,3.34-3.05
					c0.43-0.24,0.89-0.43,1.37-0.48c0.38-0.04,0.77,0.02,1.14,0.08c0.6,0.09,1.2,0.18,1.8,0.27"/>
				<path class="st16" d="M129.89,66.37c0.41-0.89,0.97-1.7,1.66-2.38c0.45-0.44,0.95-0.84,1.54-1.06c0.63-0.24,1.33-0.27,2-0.19
					s1.44,0.23,2.09,0.43"/>
				<path class="st16" d="M121.67,67.04c0.47-1.03,1.58-1.74,2.71-1.73c0.57,0.01,1.13,0.18,1.67,0.36
					c1.38,0.45,2.75,0.96,4.09,1.52"/>
				<path class="st16" d="M120.41,73.22c1.3-1.03,2.99-1.57,4.65-1.48c0.72,0.04,1.44,0.19,2.14,0.37c1.57,0.39,3.12,0.89,4.63,1.5"
					/>
				<path class="st16" d="M113.6,63.63c0.73-0.27,1.54,0.06,2.23,0.42c2.11,1.07,1.68,0.12,5.62,4.08"/>
				<path class="st16" d="M110.08,67.68c0.87-0.1,1.69,0.18,2.51,0.47c0.62,0.22,1.26,0.38,1.88,0.62c1.38,0.54,2.58,1.46,3.75,2.37
					c0.78,0.61,1.58,1.23,2.15,2.04"/>
				<path class="st16" d="M107.9,56.47c0.36,0.15,0.7,0.35,1.03,0.57c0.98,0.65,1.86,1.45,2.59,2.38c0.3,0.38,0.58,0.79,0.82,1.21
					c0.58,1.02,0.96,2.16,1.1,3.32"/>
				<path class="st16" d="M103.01,58.37c1.96,0.69,3.7,1.97,4.95,3.64c1.25,1.66,1.98,3.7,2.1,5.77"/>
				<path class="st16" d="M106.23,46.86c0.47,0.4,0.91,1.09,1.11,1.68c0.2,0.59,0.29,1.2,0.38,1.81c0.31,2.09,0.61,4.24,0.09,6.28"
					/>
				<path class="st16" d="M101.57,45.81c1.13,3.12,1.75,6.43,1.84,9.74c0.03,0.94,0,1.91-0.39,2.76"/>
				<path class="st16" d="M106.97,47.02c0.89-0.01,1.93-0.53,2.48-1.23c0.55-0.7,0.86-1.56,1.08-2.42c0.36-1.41,0.52-2.87,0.47-4.33
					"/>
				<path class="st16" d="M101.57,45.81c0.66-0.23,1.71-0.46,2.32-0.81s1.17-0.82,1.52-1.42c0.24-0.41,0.37-0.88,0.49-1.34
					c0.57-2.15,0.98-4.34,1.21-6.56"/>
				<path class="st16" d="M110.97,38.96c1.38-0.38,2.75-0.88,3.94-1.69s2.18-1.95,2.61-3.32"/>
				<path class="st16" d="M106.8,35.43c1.58-0.45,3.16-0.91,4.74-1.36c0.44-0.13,0.9-0.26,1.25-0.56c0.29-0.24,0.48-0.58,0.65-0.91
					c0.69-1.31,1.21-2.71,1.54-4.16"/>
			</g>
		</g>
	</g>
	<g>
		<path class="st33" d="M91.11,62.75h-3.57l-6.31-24.59h3.57c2.84,11.93,4.41,18.87,4.72,20.83h0.07c0.34-1.9,1.01-4.73,2.02-8.5
			l3.28-12.33h3.57l2.96,12.44c0.87,3.7,1.44,6.47,1.73,8.32h0.07c0.41-2.29,1.06-5.1,1.95-8.43l3.28-12.33h3.42l-7.1,24.59h-3.53
			l-3.06-12.77c-0.89-3.72-1.43-6.38-1.62-7.99h-0.07c-0.28,1.76-0.9,4.43-1.87,7.99L91.11,62.75z"/>
		<path class="st33" d="M136.07,47.28v3.34H123.1v10.23h14.5v3.34h-18.95V34.97h18.19v3.34H123.1v8.98H136.07z"/>
		<path class="st33" d="M143.81,61.71V37.45c2.5-0.37,5.5-0.55,9-0.55c4.63,0,8.03,0.57,10.18,1.71c2.15,1.14,3.23,2.63,3.23,4.47
			c0,1.18-0.54,2.26-1.63,3.24c-1.09,0.98-2.61,1.73-4.57,2.25c2.3,0.39,4.14,1.13,5.52,2.22c1.38,1.09,2.07,2.41,2.07,3.96
			c0,2.09-1.24,3.82-3.73,5.19C161.4,61.32,157.24,62,151.4,62C149.27,62,146.73,61.91,143.81,61.71z M148.82,39.72v7.8h4.42
			c2.44,0,4.37-0.38,5.79-1.13c1.42-0.75,2.13-1.73,2.13-2.94c0-2.64-2.66-3.95-7.97-3.95C151.28,39.5,149.82,39.57,148.82,39.72z
			 M148.82,50.04v9.19c0.84,0.1,2.21,0.15,4.09,0.15c2.96,0,5.27-0.4,6.94-1.2c1.66-0.8,2.49-1.96,2.49-3.49
			c0-1.49-0.85-2.63-2.55-3.44c-1.7-0.8-4.01-1.21-6.94-1.21H148.82z"/>
	</g>
</g>
<text transform="matrix(1 0 0 1 144.0801 118.8)"><tspan x="0" y="0" class="st214 st215">info@optweb.com</tspan><tspan x="0" y="14.4" class="st214 st215">(727) 512-9914</tspan></text>
<text transform="matrix(1 0 0 1 18.08 118.8002)"><tspan x="0" y="0" class="st216 st214 st215">Kimberly Allen</tspan><tspan x="0" y="14.4" class="st216 st214 st215">President</tspan></text>
<text transform="matrix(1 0 0 1 42.5601 100.4396)" class="st214 st217">Web Design, Graphics, Photography, Videography</text>
</svg>
