<?xml version="1.0" encoding="utf-8"?>
<!-- Generator: Adobe Illustrator 24.0.2, SVG Export Plug-In . SVG Version: 6.00 Build 0)  -->
<svg version="1.1" id="Web" xmlns="http://www.w3.org/2000/svg" xmlns:xlink="http://www.w3.org/1999/xlink" x="0px" y="0px"
	 viewBox="0 0 396 288" style="enable-background:new 0 0 396 288;" xml:space="preserve">
<style type="text/css">
	.st0{fill:#231F20;stroke:#231F20;stroke-width:2;stroke-miterlimit:10;}
	.st1{fill:url(#SVGID_2_);stroke:#231F20;stroke-width:2;stroke-miterlimit:10;}
	.st2{fill:url(#SVGID_3_);stroke:#231F20;stroke-width:2;stroke-miterlimit:10;}
	.st3{fill:url(#SVGID_4_);stroke:#231F20;stroke-width:2;stroke-miterlimit:10;}
	.st4{fill:url(#SVGID_5_);stroke:#231F20;stroke-width:2;stroke-miterlimit:10;}
	.st5{fill:url(#SVGID_6_);stroke:#231F20;stroke-width:2;stroke-miterlimit:10;}
	.st6{fill:url(#SVGID_7_);stroke:#231F20;stroke-width:2;stroke-miterlimit:10;}
	.st7{fill:url(#SVGID_8_);stroke:#231F20;stroke-width:2;stroke-miterlimit:10;}
	.st8{fill:url(#SVGID_9_);stroke:#231F20;stroke-width:2;stroke-miterlimit:10;}
	.st9{fill:url(#SVGID_10_);stroke:#231F20;stroke-width:2;stroke-miterlimit:10;}
	.st10{fill:url(#SVGID_11_);stroke:#231F20;stroke-width:2;stroke-miterlimit:10;}
	.st11{fill:url(#SVGID_12_);stroke:#231F20;stroke-width:2;stroke-miterlimit:10;}
	.st12{fill:url(#SVGID_13_);stroke:#231F20;stroke-width:2;stroke-miterlimit:10;}
	.st13{fill:url(#SVGID_14_);stroke:#231F20;stroke-width:2;stroke-miterlimit:10;}
	.st14{fill:url(#SVGID_16_);stroke:#231F20;stroke-width:2;stroke-miterlimit:10;}
	.st15{opacity:0.4;}
	.st16{clip-path:url(#SVGID_19_);}
	.st17{fill:none;stroke:#231F20;stroke-width:2;stroke-miterlimit:10;}
	.st18{opacity:0.4;fill:none;stroke:#231F20;stroke-miterlimit:10;enable-background:new    ;}
	.st19{fill:#231F20;stroke:#E4EBEA;stroke-width:2;stroke-miterlimit:10;}
	.st20{clip-path:url(#SVGID_21_);}
	.st21{fill:url(#SVGID_22_);stroke:#231F20;stroke-width:2;stroke-miterlimit:10;}
	.st22{fill:url(#SVGID_23_);stroke:#231F20;stroke-width:2;stroke-miterlimit:10;}
	.st23{fill:url(#SVGID_24_);stroke:#231F20;stroke-width:2;stroke-miterlimit:10;}
	.st24{fill:url(#SVGID_25_);stroke:#231F20;stroke-width:2;stroke-miterlimit:10;}
	.st25{fill:url(#SVGID_26_);stroke:#231F20;stroke-width:2;stroke-miterlimit:10;}
	.st26{fill:url(#SVGID_27_);stroke:#231F20;stroke-width:2;stroke-miterlimit:10;}
	.st27{fill:url(#SVGID_28_);stroke:#231F20;stroke-width:2;stroke-miterlimit:10;}
	.st28{fill:url(#SVGID_29_);stroke:#231F20;stroke-width:2;stroke-miterlimit:10;}
	.st29{fill:url(#SVGID_30_);stroke:#231F20;stroke-width:2;stroke-miterlimit:10;}
	.st30{fill:url(#SVGID_31_);stroke:#231F20;stroke-width:2;stroke-miterlimit:10;}
	.st31{fill:url(#SVGID_32_);stroke:#231F20;stroke-width:2;stroke-miterlimit:10;}
	.st32{fill:url(#SVGID_34_);stroke:#231F20;stroke-width:2;stroke-miterlimit:10;}
	.st33{fill:url(#SVGID_35_);stroke:#231F20;stroke-width:2;stroke-miterlimit:10;}
	.st34{fill:url(#SVGID_36_);stroke:#231F20;stroke-width:2;stroke-miterlimit:10;}
	.st35{opacity:0.4;fill:url(#SVGID_37_);enable-background:new    ;}
	.st36{clip-path:url(#SVGID_39_);}
	.st37{fill:#231F20;stroke:#1C161B;stroke-width:2;stroke-miterlimit:10;}
</style>
<g>
	<path class="st0" d="M-823.1,161.6h-8.6l-15.2-59.3h8.6c6.8,28.8,10.6,45.5,11.4,50.2h0.2c0.8-4.6,2.4-11.4,4.9-20.5l7.9-29.7h8.6
		l7.1,30c2.1,8.9,3.5,15.6,4.2,20.1h0.2c1-5.5,2.5-12.3,4.7-20.3l7.9-29.7h8.3l-17.1,59.3h-8.5l-7.4-30.8c-2.1-9-3.5-15.4-3.9-19.3
		h-0.2c-0.7,4.3-2.2,10.7-4.5,19.3L-823.1,161.6z"/>
	<path class="st0" d="M-714.7,124.3v8.1H-746v24.7h35v8.1h-45.7V94.6h43.8v8.1H-746v21.7L-714.7,124.3L-714.7,124.3z"/>
	<path class="st0" d="M-696,159.1v-58.5c6-0.9,13.3-1.3,21.7-1.3c11.2,0,19.4,1.4,24.5,4.1c5.2,2.8,7.8,6.3,7.8,10.8
		c0,2.8-1.3,5.5-3.9,7.8s-6.3,4.2-11,5.4c5.5,0.9,10,2.7,13.3,5.4s5,5.8,5,9.6c0,5-3,9.2-9,12.5s-16,5-30.1,5
		C-682.9,159.8-689,159.6-696,159.1z M-684,106.1v18.8h10.7c5.9,0,10.5-0.9,14-2.7c3.4-1.8,5.1-4.2,5.1-7.1c0-6.3-6.4-9.5-19.2-9.5
		C-678,105.6-681.5,105.7-684,106.1z M-684,131v22.1c2,0.2,5.3,0.4,9.9,0.4c7.1,0,12.7-1,16.7-2.9s6-4.7,6-8.4c0-3.6-2-6.4-6.1-8.3
		c-4.1-1.9-9.7-2.9-16.7-2.9L-684,131L-684,131z"/>
</g>
<g id="Text">
</g>
<g>
	<g>
		<g>
			<g>
				<g>
					
						<linearGradient id="SVGID_2_" gradientUnits="userSpaceOnUse" x1="-1858.4" y1="868.2" x2="-1575.2001" y2="868.2" gradientTransform="matrix(1 0 0 1 0 -734)">
						<stop  offset="0" style="stop-color:#231F20"/>
						<stop  offset="1" style="stop-color:#706A58"/>
					</linearGradient>
					<ellipse class="st1" cx="-1716.8" cy="134.2" rx="141.6" ry="50"/>
					
						<linearGradient id="SVGID_3_" gradientUnits="userSpaceOnUse" x1="-1862.3464" y1="815.1132" x2="-1822.5452" y2="815.1132" gradientTransform="matrix(1 0 0 1 0 -734)">
						<stop  offset="0" style="stop-color:#231F20"/>
						<stop  offset="1" style="stop-color:#706A58"/>
					</linearGradient>
					<path class="st2" d="M-1825.3,72.2c2.8,5.8,3.4,11.3,1.8,16.4s-5,8.9-10.2,11.4c-5.1,2.4-10,2.7-14.9,0.9s-8.6-5.5-11.2-10.9
						c-2.8-5.7-3.3-11.1-1.8-16.2c1.6-5.2,4.9-9,10-11.5s10.1-2.8,14.9-0.9C-1831.7,63.2-1827.9,66.8-1825.3,72.2z M-1854.6,87.2
						c2,4.1,4.8,7,8.4,8.7s7.2,1.7,10.7,0c3.7-1.8,5.9-4.6,6.8-8.5s0.3-8-1.9-12.3c-2-4.1-4.8-7-8.3-8.7c-3.6-1.8-7.2-1.8-10.8,0
						c-3.7,1.8-6,4.6-6.8,8.5C-1857.3,78.7-1856.7,82.8-1854.6,87.2z"/>
					
						<linearGradient id="SVGID_4_" gradientUnits="userSpaceOnUse" x1="-1816.27" y1="801.7643" x2="-1788.0729" y2="801.7643" gradientTransform="matrix(1 0 0 1 0 -734)">
						<stop  offset="0" style="stop-color:#231F20"/>
						<stop  offset="1" style="stop-color:#706A58"/>
					</linearGradient>
					<path class="st3" d="M-1807.3,89.2l-9-38.9c2.9-1.2,6.3-2.3,10.2-3.2c5-1.2,8.9-1,11.9,0.6s4.9,4.1,5.7,7.6
						c0.9,4.1,0.3,7.6-2.1,10.5c-2.3,2.9-5.8,4.8-10.5,5.9c-2,0.5-3.4,0.7-4.4,0.6l3.6,15.7L-1807.3,89.2z M-1809.9,52.8l3.5,15
						c1.1,0.1,2.6-0.1,4.5-0.6c3.2-0.7,5.4-2,6.9-3.9c1.4-1.9,1.8-4.1,1.2-6.7c-0.6-2.4-1.8-4.1-3.8-5c-1.9-0.9-4.4-1.1-7.4-0.4
						C-1807,51.7-1808.6,52.2-1809.9,52.8z"/>
					
						<linearGradient id="SVGID_5_" gradientUnits="userSpaceOnUse" x1="-1781.6899" y1="793.85" x2="-1750.1899" y2="793.85" gradientTransform="matrix(1 0 0 1 0 -734)">
						<stop  offset="0" style="stop-color:#231F20"/>
						<stop  offset="1" style="stop-color:#706A58"/>
					</linearGradient>
					<path class="st4" d="M-1764.3,81l-4.1-35.5l-12.7,1.5l-0.5-4.7l31-3.6l0.5,4.7l-12.8,1.5l4.1,35.5L-1764.3,81z"/>
					
						<linearGradient id="SVGID_6_" gradientUnits="userSpaceOnUse" x1="-1740.6801" y1="792.35" x2="-1733.2015" y2="792.35" gradientTransform="matrix(1 0 0 1 0 -734)">
						<stop  offset="0" style="stop-color:#231F20"/>
						<stop  offset="1" style="stop-color:#706A58"/>
					</linearGradient>
					<path class="st5" d="M-1740.7,38.3l5.6-0.3l1.9,40.4l-5.6,0.3L-1740.7,38.3z"/>
					
						<linearGradient id="SVGID_7_" gradientUnits="userSpaceOnUse" x1="-1722.3" y1="792.45" x2="-1679.6001" y2="792.45" gradientTransform="matrix(1 0 0 1 0 -734)">
						<stop  offset="0" style="stop-color:#231F20"/>
						<stop  offset="1" style="stop-color:#706A58"/>
					</linearGradient>
					<path class="st6" d="M-1685.1,79.1l-0.3-22c-0.1-6.3-0.1-10.8-0.1-13.2c-1.6,4.5-3.3,9-5.2,13.8l-8.6,20.7l-4.3-0.2
						c-4.4-14.6-7.1-23.2-7.8-26c-0.8-2.7-1.6-5.9-2.4-9.4c-0.6,7.5-1.1,13.6-1.5,18.2l-1.7,16.9l-5.3-0.2l4.4-40.3l7.3,0.3
						c4.5,14.1,7.1,22.4,7.7,24.7c0.7,2.3,1.4,5.2,2.2,8.7c1.4-4.6,3-8.9,4.7-12.9l8.3-19.5l7.2,0.3l1,40.5L-1685.1,79.1z"/>
					
						<linearGradient id="SVGID_8_" gradientUnits="userSpaceOnUse" x1="-1666.6511" y1="796.5704" x2="-1631.5547" y2="796.5704" gradientTransform="matrix(1 0 0 1 0 -734)">
						<stop  offset="0" style="stop-color:#231F20"/>
						<stop  offset="1" style="stop-color:#706A58"/>
					</linearGradient>
					<path class="st7" d="M-1662.2,40.8l5.5,1l-4,23.2c-0.7,4.2-0.4,7.5,0.9,10s3.5,4,6.5,4.5c3.2,0.6,5.9-0.1,8-2s3.5-4.9,4.2-9.1
						l4-23.2l5.5,1l-3.9,22.9c-1,5.7-3.1,9.8-6.4,12.4c-3.3,2.5-7.4,3.4-12.4,2.5c-4.8-0.8-8.2-2.9-10.3-6.3s-2.6-8-1.6-13.7
						L-1662.2,40.8z"/>
					
						<linearGradient id="SVGID_9_" gradientUnits="userSpaceOnUse" x1="-1628" y1="811.3" x2="-1575.61" y2="811.3" gradientTransform="matrix(1 0 0 1 0 -734)">
						<stop  offset="0" style="stop-color:#231F20"/>
						<stop  offset="1" style="stop-color:#706A58"/>
					</linearGradient>
					<path class="st8" d="M-1593.4,101.5l7.1-20.8c2.1-6,3.5-10.2,4.3-12.5c-3,3.7-6.2,7.4-9.6,11.2l-15,16.6l-3.9-1.6
						c0.7-15.2,1.2-24.2,1.4-27.1s0.5-6,0.9-9.6c-3.1,6.9-5.6,12.4-7.6,16.6l-7.3,15.3l-4.9-2l17.7-36.5l6.7,2.7
						c-0.5,14.8-0.9,23.4-1,25.8s-0.4,5.4-0.8,8.9c2.9-3.9,5.8-7.4,8.8-10.6l14.4-15.6l6.7,2.7l-12.7,38.5L-1593.4,101.5z"/>
				</g>
			</g>
			<g>
				
					<linearGradient id="SVGID_10_" gradientUnits="userSpaceOnUse" x1="-1836" y1="929.414" x2="-1795.6533" y2="929.414" gradientTransform="matrix(1 0 0 1 0 -734)">
					<stop  offset="0" style="stop-color:#231F20"/>
					<stop  offset="1" style="stop-color:#706A58"/>
				</linearGradient>
				<path class="st9" d="M-1836,212l11.3-38.2c3.8,0.5,7.6,1.3,11.5,2.5c7.6,2.2,12.7,5.6,15.2,10.1s3,9.6,1.3,15.2
					c-1.9,6.4-5.3,10.8-10.4,13.4s-11.5,2.7-19.5,0.3C-1830.1,214.2-1833.3,213.1-1836,212z M-1820.5,179.3l-8.9,30.3
					c0.7,0.4,2.5,1,5.2,1.8c5.5,1.6,10.1,1.4,13.9-0.5s6.4-5.5,8-10.7c1.4-4.8,1.1-8.8-0.9-12.2s-5.7-5.8-10.9-7.4
					C-1816.7,179.8-1818.8,179.4-1820.5,179.3z"/>
				
					<linearGradient id="SVGID_11_" gradientUnits="userSpaceOnUse" x1="-1781.71" y1="940.85" x2="-1753.9399" y2="940.85" gradientTransform="matrix(1 0 0 1 0 -734)">
					<stop  offset="0" style="stop-color:#231F20"/>
					<stop  offset="1" style="stop-color:#706A58"/>
				</linearGradient>
				<path class="st10" d="M-1757.1,205l-0.6,4.6l-16.1-2.1l-1.8,14l18,2.3l-0.6,4.6l-23.6-3l5.2-40.1l22.6,2.9l-0.6,4.6l-17.1-2.2
					l-1.6,12.3L-1757.1,205z"/>
				
					<linearGradient id="SVGID_12_" gradientUnits="userSpaceOnUse" x1="-1743.4" y1="943.801" x2="-1717.6863" y2="943.801" gradientTransform="matrix(1 0 0 1 0 -734)">
					<stop  offset="0" style="stop-color:#231F20"/>
					<stop  offset="1" style="stop-color:#706A58"/>
				</linearGradient>
				<path class="st11" d="M-1743.4,227.5l1.6-4.6c3,1.9,6.2,2.9,9.7,3c2.6,0.1,4.8-0.5,6.3-1.6c1.6-1.2,2.4-2.8,2.5-4.8
					c0.1-1.9-0.5-3.4-1.7-4.7c-1.2-1.2-3.2-2.4-5.9-3.4c-3.8-1.4-6.6-3.1-8.3-5c-1.7-1.9-2.5-4.2-2.5-6.8c0.1-3.2,1.4-5.8,4-7.8
					s5.9-3,9.9-2.8c3.8,0.1,6.9,0.9,9.3,2.3l-1.6,4.4c-2.3-1.4-4.9-2.1-8-2.2c-2.4-0.1-4.4,0.4-5.8,1.6c-1.4,1.1-2.1,2.5-2.2,4.1
					c-0.1,1.7,0.5,3.1,1.6,4.2c1.1,1.1,3.3,2.3,6.4,3.6c3.8,1.5,6.5,3.2,8.1,5.2c1.6,1.9,2.3,4.3,2.2,7.1c-0.1,3.5-1.5,6.2-4.1,8.4
					s-6.3,3.1-10.9,2.9c-1.9-0.1-3.9-0.4-5.9-0.9C-1740.6,229.1-1742.2,228.4-1743.4,227.5z"/>
				
					<linearGradient id="SVGID_13_" gradientUnits="userSpaceOnUse" x1="-1704.34" y1="943.7" x2="-1697.25" y2="943.7" gradientTransform="matrix(1 0 0 1 0 -734)">
					<stop  offset="0" style="stop-color:#231F20"/>
					<stop  offset="1" style="stop-color:#706A58"/>
				</linearGradient>
				<path class="st12" d="M-1704.3,189.6l5.6-0.2l1.5,40.4l-5.6,0.2L-1704.3,189.6z"/>
				
					<linearGradient id="SVGID_14_" gradientUnits="userSpaceOnUse" x1="-1683.7922" y1="940.355" x2="-1646.92" y2="940.355" gradientTransform="matrix(1 0 0 1 0 -734)">
					<stop  offset="0" style="stop-color:#231F20"/>
					<stop  offset="1" style="stop-color:#706A58"/>
				</linearGradient>
				<path class="st13" d="M-1649.4,203.6l2.4,19.3c-4.1,2.1-8.3,3.4-12.7,4c-6.9,0.9-12.4-0.4-16.6-3.7s-6.6-7.9-7.4-13.8
					c-0.8-6.1,0.7-11.3,4.3-15.7c3.6-4.4,8.8-7,15.7-7.9c4.2-0.5,7.8-0.3,10.8,0.6l-0.8,4.6c-2.8-0.9-6-1.1-9.6-0.6
					c-5,0.6-8.9,2.6-11.5,5.8s-3.6,7.3-3,12.1c0.6,4.9,2.6,8.6,5.8,11.1s7.3,3.5,12.2,2.9c3.3-0.4,5.7-1.1,7.1-2l-1.5-11.6l-8.3,1.1
					l-0.6-4.4L-1649.4,203.6z"/>
				
					<linearGradient id="SVGID_16_" gradientUnits="userSpaceOnUse" x1="-1635.2001" y1="929.75" x2="-1592.7" y2="929.75" gradientTransform="matrix(1 0 0 1 0 -734)">
					<stop  offset="0" style="stop-color:#231F20"/>
					<stop  offset="1" style="stop-color:#706A58"/>
				</linearGradient>
				<path class="st14" d="M-1617.9,218.3l-5,1.6l-12.3-38.5l5.9-1.9l18.8,15.2c4.3,3.4,8,6.8,11.2,10.1c-1.5-3.4-3.4-8.5-5.6-15.5
					l-5.1-16.1l5-1.6l12.3,38.5l-5.4,1.7l-18.7-15.3c-4.7-3.9-8.6-7.4-11.7-10.5c1.4,3.6,3.2,8.8,5.4,15.6L-1617.9,218.3z"/>
			</g>
		</g>
		<g class="st15">
			<g>
				<g>
					<defs>
						<ellipse id="SVGID_18_" cx="-1716.8" cy="134.2" rx="142.1" ry="50.5"/>
					</defs>
					<clipPath id="SVGID_19_">
						<use xlink:href="#SVGID_18_"  style="overflow:visible;"/>
					</clipPath>
					<g class="st16">
						<polygon class="st17" points="-1719.2,102.5 -1734.2,106.2 -1745.7,116.4 -1751.2,130.9 -1749.3,146.2 -1740.6,158.9 
							-1726.9,166.1 -1711.4,166.1 -1697.7,158.9 -1688.9,146.2 -1687.1,130.9 -1692.6,116.4 -1704.1,106.2 						"/>
						<line class="st17" x1="-1734.2" y1="106.2" x2="-1780.1" y2="9.2"/>
						<line class="st17" x1="-1745.7" y1="116.4" x2="-1836" y2="39.1"/>
						<line class="st17" x1="-1719.2" y1="102.5" x2="-1719.2" y2="-2.3"/>
						<line class="st17" x1="-1704.1" y1="106.2" x2="-1647.6" y2="17.8"/>
						<line class="st17" x1="-1751.2" y1="130.9" x2="-1880.4" y2="102.8"/>
						<line class="st17" x1="-1748.4" y1="145.9" x2="-1862.9" y2="187.6"/>
						<line class="st17" x1="-1740.5" y1="159.3" x2="-1815.4" y2="243.8"/>
						<line class="st17" x1="-1726.9" y1="166.1" x2="-1747.3" y2="266.2"/>
						<line class="st17" x1="-1711.4" y1="166.1" x2="-1684.3" y2="265.4"/>
						<line class="st17" x1="-1697.7" y1="158.9" x2="-1625.9" y2="252.3"/>
						<line class="st17" x1="-1688.9" y1="146.2" x2="-1575.7" y2="196.9"/>
						<line class="st17" x1="-1687.1" y1="130.9" x2="-1573.6" y2="120"/>
						<line class="st17" x1="-1692.6" y1="116.4" x2="-1587" y2="65"/>
						<path class="st17" d="M-1775.7,90.8c5.6-0.7,7.7-2,12.6-4.9c1.8-1.1,3.5-2.3,4.9-3.7c3-3.1,5.7-7.1,7.4-11"/>
						<path class="st17" d="M-1750.4,71.8c5.6,1.8,10.3,1.6,16.1,0.2c5.7-1.4,11.1-4.3,15.3-8.5"/>
						<path class="st17" d="M-1719.1,63.6c-0.4,0.1,9.4,6.3,14.6,7.8c6.6,1.9,14.6,2.5,21.4,1.8"/>
						<path class="st17" d="M-1683.1,73.2c0.6,2.6-0.1,3.5,0.8,5.9s2.4,4.7,4.4,6.4c1.9,1.5,4.1,2.4,6.3,3.3
							c5.1,2.1,17.5,8.9,17.3,8.8"/>
						<path class="st17" d="M-1657.3,99.3c-1.9,5.4-0.3,7.7,1.8,13s5.5,10,9.1,14.4"/>
						<path class="st17" d="M-1647.2,126.8c-3.6,2-6.2,6.1-7.6,10s-1.5,8.1-1,12.2c0.5,4.1,1.8,9.4,3,13.4"/>
						<path class="st17" d="M-1653.3,162.2c-4.7,2.8-9.2,5.3-11.8,10.1c-3.2,5.9-7.1,20-7.1,19.9"/>
						<path class="st17" d="M-1673.1,191c-11.6-0.3-21.4,4.8-27.6,14.6"/>
						<path class="st17" d="M-1700.6,205.6c-2.3-3.1-7.8-4.5-11.7-4.8s-7.8,0.6-11.6,1.6c-4.3,1.1-6.9,1.9-11.1,3.4"/>
						<path class="st17" d="M-1735,205.9c-0.6-2-2.8-3.7-4.2-5.2c-2-2.1-4.6-3.5-7.2-4.9c-3.1-1.6-6.3-3.3-9.7-4.3
							c-3.7-1.1-7.6-1.3-11.5-1.5"/>
						<path class="st17" d="M-1768.6,190.7c-0.3-3.6-1.4-7.1-3.1-10.2c-1.1-2-2.4-3.9-3.8-5.7c-1.7-2.4-3.5-4.9-5.2-7.3
							c-1.9-2.6-4.7-5.8-7.7-7.1"/>
						<path class="st17" d="M-1787,159.9c0.5-6.1,0.9-11.5,0.6-17.6s-0.1-14.3-2.9-19.8"/>
						<path class="st17" d="M-1789.2,122.6c4.3-4.2,5.1-7.4,7-13.1s5.7-13.1,6.1-19.1"/>
						<path class="st17" d="M-1691.8,56.8C-1691.9,56.8-1691.9,56.8-1691.8,56.8"/>
						<path class="st17" d="M-1719.2,43.6c1.2,2.3,3.7,3.6,6.1,4.8c2.2,1,4.4,2.1,6.6,3.1c2.6,1.2,5.1,2.4,7.8,3.4
							c7.7,2.8,16.7,5.5,24.8,4.2"/>
						<path class="st17" d="M-1674.5,59.8c4.7,9.6,11.8,16.3,21.3,21.3c4.9,2.7,9.1,7.7,14.5,9.1"/>
						<path class="st17" d="M-1639.3,90.5c-0.9,5.2,0.5,8.3,1.2,13.5c0.8,5.9,1.7,12.2,5.5,16.8c1.4,1.7,3.2,3.2,5.2,4.2"/>
						<path class="st17" d="M-1626.6,125.1c-4.4,6-8.9,12.3-10,19.6c-0.6,4.2-0.1,8.4,0.5,12.6c0.6,4.2,1.6,13.3,1.6,13.2"/>
						<path class="st17" d="M-1636.2,169.8c-3.9,4.1-7.3,7.6-11.2,11.7c-2.7,2.8-5.4,5.6-7.1,9.1c-1.5,2.9-2.2,6.1-2.9,9.3
							c-0.5,2.4-2.1,5.7-2.6,8.1"/>
						<path class="st17" d="M-1662.2,205.2c-5.8,0.6-10.3,2.2-15.9,4c-2.8,0.9-5.7,1.8-8,3.6c-1.7,1.4-3.1,3.2-4.4,4.9
							c-1.8,2.4-3.3,4.4-5.1,6.9"/>
						<path class="st17" d="M-1696.3,221.4c-8.7-3.1-18.3-5.5-27.4-3.8c-5.5,1.1-9.9,3.1-14.9,5.6"/>
						<path class="st17" d="M-1739,225.4c0.3,0.4-14.8-18.2-25.6-20.5c-5.1-1.1-10.3-0.9-15.5-0.7"/>
						<path class="st17" d="M-1780.1,204.2c-0.8-5.7-3.2-11.9-6.4-16.7s-7-9.2-11-13.4c-2.3-2.5-4.7-5.5-7.4-7.7"/>
						<path class="st17" d="M-1804.8,166.4c2.3,3,2.7-13.2,3-20.7c0.4-8.3-1.1-18.7-3.5-26.6"/>
						<path class="st17" d="M-1804.3,119.3c9.3-11.3,15.6-24.4,16.4-39"/>
						<path class="st17" d="M-1787.3,80.8c5.1-0.2,7.1-0.9,12-2.4c3.3-1.1,6.7-2.5,9.1-5c1.7-1.7,2.8-3.9,3.9-6
							c1.6-2.9,3.7-6.7,5.2-9.6"/>
						<path class="st17" d="M-1756.8,58.5c6.7,0.2,12.1-1.1,18.3-3.7c1.4-0.6,2.8-1.3,4.2-1.9c5.1-2.5,10.2-4.9,14.9-7.9"/>
						<path class="st17" d="M-1719.2,34.7c2.4,1.1,4.9,2.2,7.3,3.2c13.7,5.7,29.1,10.4,43.9,11.8"/>
						<path class="st17" d="M-1668,49.7c2,5.8,5.9,9,10.6,13c9.3,8.1,27.8,17.5,34,20"/>
						<path class="st17" d="M-1624.6,83.3c-1.9,4.7-1.7,8-0.8,13s2.7,9.7,4.5,14.4c1.8,4.6,3.6,9.4,6.6,13.3"/>
						<path class="st17" d="M-1612.2,123.6c-7.7,16.8-6,54.4-6,54.2"/>
						<path class="st17" d="M-1619.1,177.3c-3.6,2.2-6.8,4.2-10.3,6.4c-3.3,2-6.6,4.1-9.1,7.1c-2.9,3.6-4.3,8.1-5.7,12.5
							c-1.8,5.8-3.8,12.2-5.6,18"/>
						<path class="st17" d="M-1651.2,219.5c-7.7,1.2-14.8,2.4-22.1,5c-7.3,2.6-14,6.4-18.8,12.5"/>
						<path class="st17" d="M-1692.2,236.4c-2.6-1.9-6.7-2.1-9.8-2.2c-5.7-0.2-11.4-0.4-17.1-0.6c-7.8-0.3-15.5-0.8-22.3,3.2"/>
						<path class="st17" d="M-1741.7,238.6c-7.1-9.6-17.8-17.4-29.2-20.9c-6-1.8-12.3-2.6-18.5-3.3"/>
						<path class="st17" d="M-1791,216.1c-2.7-8.7-6-17.2-11-24.8s-12.5-14.6-20.7-18.4"/>
						<path class="st17" d="M-1821.6,172.5c3-9.8,5-19.5,5.8-29.7c0.7-8.6-0.4-20-5.2-27.2"/>
						<path class="st17" d="M-1820.4,115.8c3.6-3.2,5.6-5.6,8.5-9.5c4-5.5,7.2-11.8,8.8-18.4c1.3-5.4,3.1-12.3,3.3-17.9"/>
						<path class="st17" d="M-1800,70c9.2-1.5,17.4-2.9,24.6-8.9c5-4.2,8.7-11.3,11.9-17"/>
						<path class="st17" d="M-1763.1,45.2c7.2,1.2,14,0.6,20.8-2c2.4-0.9,4.8-2,7.2-3.2c5.3-2.5,10.6-5.1,15.9-7.6"/>
						<path class="st17" d="M-1719.2,15c2,3.7,6,6,9.9,7.6c16.2,6.6,34.2,10.3,51.7,10.9"/>
						<path class="st17" d="M-1657.6,33.5c5.2,9.3,10.2,19,18.9,25.2c4.5,3.2,9.6,5.3,14.7,7.4c5.9,2.4,19.3,7.8,19.1,7.7"/>
						<path class="st17" d="M-1606.9,74.7c-1.2,8.6-1.6,16.3,0.5,24.8c2,7.9,8.2,15.3,12.3,22.3"/>
						<path class="st17" d="M-1594.2,121.8c-6,8.6-8.4,19.3-9.2,29.7c-0.8,11.4,2.6,33.8,2.6,33.6"/>
						<path class="st17" d="M-1637.3,237"/>
						<path class="st17" d="M-1623.2,214.2"/>
						<path class="st17" d="M-1607.9,193.2"/>
						<path class="st17" d="M-1602.7,185.6"/>
						<path class="st17" d="M-1638.8,235.3c-9.6,0.1-19.3,1.6-28.4,4.5c-8,2.5-16.1,6.2-20.4,13.4"/>
						<path class="st17" d="M-1688.6,249.9c-9.2-1-19.1-1.8-28.4-2.3c-9.4-0.5-19.4-0.6-27.6,4.2"/>
						<path class="st17" d="M-1744.4,251.8c-10.1-8.4-21.9-15.6-34.1-20.3c-6.9-2.7-14.4-4.8-21.8-4.8"/>
						<path class="st17" d="M-1801.6,228.2c-1.6-9.6-5.7-19.4-11.7-27c-3.6-4.5-7.8-8.4-11.9-12.3c-3.7-3.5-7.9-7.3-11.7-10.8"/>
						<path class="st17" d="M-1837.1,178.2c-1.1-8.1,1.9-15.5,3.6-23.5c2-9.5,2.3-19.3,0.9-28.9c-0.6-4.3,0-9.7-2.5-13.2"/>
						<path class="st17" d="M-1835.2,112.6c8.6-10.2,14.3-20.8,18.5-33.4c2.1-6.1,4.7-13.7,3.8-20.1"/>
						<path class="st17" d="M-1812.9,58.9c9.1-0.8,16.5-3.8,24.1-8.9c7.5-5.2,14-13.1,17.9-21.3"/>
						<path class="st17" d="M-1770.6,29.3c9,0.7,17.6-1.1,26.2-4s17.2-7.5,25.3-11.5"/>
						<path class="st17" d="M-1640,234c3-7.4,6.2-14.2,10.1-21.3c3.2-6,6.8-11.9,11.4-16.8c4.6-5,10.4-9.1,17-10.8"/>
						<path class="st17" d="M-1719.4,1.7c21.3,11.9,45.2,18.5,69.6,19.3"/>
						<path class="st17" d="M-1650.6,22.2c5.2,8.9,11.4,16.9,19.3,23.5c11.6,9.8,27.1,16.4,41.7,20.4"/>
						<path class="st17" d="M-1590.1,66.7c-3,8.9-3,18.7-1.1,27.9s5.8,17.9,10.3,26.2"/>
						<path class="st17" d="M-1581.3,120.7c-7.9,22.6-10,47.3-5.8,70.9"/>
						<path class="st17" d="M-1585.9,192.1c-8.1,6.5-16.6,14.1-22.5,22.6c-1.8,2.6-3.6,5.4-5.3,8.1c-2.5,3.9-5,7.9-7.4,11.8
							c-2.8,4.4-5.5,8.8-8.3,13.1"/>
						<path class="st17" d="M-1629.4,247.9c-5.2-1.8-11.2-0.9-16.5,0c-3.4,0.6-6.8,1.2-10.3,1.9c-5.2,0.9-10.5,1.9-15.4,3.8
							c-5.1,1.9-9.8,4.7-13.9,8.3"/>
						<path class="st17" d="M-1685.3,261.9c-19.2-7.9-41.2-8.8-60.8-2"/>
						<path class="st17" d="M-1746.3,261.4c0.1,0.1-14.7-10-22.7-13.5c-5.1-2.2-10.4-4-15.6-5.8c-4-1.4-8-2.7-12-4.1
							c-3.6-1.2-7.2-2.4-10.8-3.7"/>
						<path class="st17" d="M-1807.9,235.2c-4.7-10.3-11.6-19.4-19.3-27.7c-7.7-8.3-16.2-15.7-24.7-23.2"/>
						<path class="st17" d="M-1853.6,184.7c2.9-25.1,5.7-50.7,0.4-75.3"/>
						<path class="st17" d="M-1854.6,109.2c10.6-19.8,21.9-40.3,28.1-61.8"/>
						<path class="st17" d="M-1826.4,47.4c8.5-3.5,16.2-7.3,23.5-12.8c3.4-2.5,6.6-5.4,9.7-8.2c4.9-4.4,9.7-8.7,14.6-13.1"/>
						<path class="st17" d="M-1778.2,14.1c15.1-3.2,30.1-6.3,45.2-9.5c4.7-1,10.1-2.9,14-5.9"/>
						<path class="st17" d="M-1744.7,83.7c1.9,1.5,4.4,2.1,6.9,2.1c2.4,0,4.8-0.6,7.2-1.3c4-1.2,7.8-2.9,11.4-5"/>
						<path class="st17" d="M-1738.8,96.6c2.2,0.8,4.7,0.8,7,0.6c4.5-0.4,8.8-1.7,12.7-3.9"/>
						<path class="st17" d="M-1719.2,93.4c5.3,4.6,12.7,6.7,19.6,5.4"/>
						<path class="st17" d="M-1719.2,79.2c2.8,3.1,6.4,5.5,10.4,6.8c2.1,0.7,4.2,1.1,6.3,1.4c3.4,0.6,7,1.2,10.3,0"/>
						<path class="st17" d="M-1690.9,85.4c-0.7,0.8-0.7,1.1-0.7,2.1c0.1,1.1,0.6,2,1.1,2.9c4.4,7.4,12.1,12.7,20.4,15"/>
						<path class="st17" d="M-1699.5,98.7c3.7,6.2,9.8,10.9,16.7,12.9"/>
						<path class="st17" d="M-1670,105.4c-1.1,3.2-1.2,7.3-0.1,10.5c1.8,5,6.4,8.9,10.5,12.3"/>
						<path class="st17" d="M-1682.2,111.4c-0.8,1.9-0.9,4.3-0.7,6.3c0.3,2.4,1.5,4.7,2.9,6.6c1.4,2,3.2,3.7,5,5.4"/>
						<path class="st17" d="M-1675,129.7c-4.7,5.8-6.2,14.4-3.4,21.3"/>
						<path class="st17" d="M-1661.6,128.4c-1.7,0.7-2.7,2.8-3.5,4.4c-1.6,3.4-2.9,7-3.5,10.8s-0.3,7.7,0,11.5"/>
						<path class="st17" d="M-1678.4,151c-6.2,3.1-11.3,9-13.8,15.4"/>
						<path class="st17" d="M-1667.4,156c-5.2,3.1-9.7,7.5-12.9,12.7c-1.7,2.8-3.2,5.9-3,9.2"/>
						<path class="st17" d="M-1705,189.5c1-2.3,0.4-0.8,0.8-1.7c0.5-1,1.3-1.9,2.1-2.7c2.4-2.8,4.9-5.6,8.1-7.4c1-0.6,2.1-1,3.3-1.1
							c0.9-0.1,1.8,0.1,2.8,0.2c1.4,0.2,2.9,0.4,4.3,0.6"/>
						<path class="st17" d="M-1709.2,174.6c1-2.1,2.3-4.1,4-5.7c1.1-1.1,2.3-2,3.7-2.6c1.5-0.6,3.2-0.6,4.8-0.4s3.5,0.6,5,1"/>
						<path class="st17" d="M-1729,176.3c1.1-2.5,3.8-4.2,6.6-4.2c1.4,0,2.7,0.4,4,0.9c3.3,1.1,6.6,2.3,9.9,3.7"/>
						<path class="st17" d="M-1732,191.2c3.1-2.5,7.2-3.8,11.2-3.6c1.8,0.1,3.5,0.5,5.2,0.9c3.8,0.9,7.5,2.1,11.2,3.6"/>
						<path class="st17" d="M-1748.4,168.1c1.8-0.6,3.7,0.2,5.4,1c5.1,2.6,4.1,0.3,13.6,9.8"/>
						<path class="st17" d="M-1756.9,177.8c2.1-0.2,4.1,0.4,6.1,1.1c1.5,0.5,3.1,0.9,4.5,1.5c3.3,1.3,6.2,3.5,9,5.7
							c1.9,1.5,3.8,3,5.2,4.9"/>
						<path class="st17" d="M-1762.2,150.8c0.9,0.4,1.7,0.9,2.5,1.4c2.4,1.6,4.5,3.5,6.2,5.7c0.7,0.9,1.4,1.9,2,2.9
							c1.4,2.5,2.3,5.2,2.7,8"/>
						<path class="st17" d="M-1774,155.4c4.7,1.7,8.9,4.8,11.9,8.8s4.8,8.9,5.1,13.9"/>
						<path class="st17" d="M-1766.2,127.6c1.1,1,2.2,2.6,2.7,4.1c0.5,1.4,0.7,2.9,0.9,4.4c0.7,5,1.5,10.2,0.2,15.1"/>
						<path class="st17" d="M-1777.4,125.1c2.7,7.5,4.2,15.5,4.4,23.5c0.1,2.3,0,4.6-0.9,6.7"/>
						<path class="st17" d="M-1764.4,128c2.2,0,4.7-1.3,6-3s2.1-3.8,2.6-5.8c0.9-3.4,1.3-6.9,1.1-10.4"/>
						<path class="st17" d="M-1777.4,125.1c1.6-0.6,4.1-1.1,5.6-1.9s2.8-2,3.7-3.4c0.6-1,0.9-2.1,1.2-3.2c1.4-5.2,2.4-10.5,2.9-15.8
							"/>
						<path class="st17" d="M-1754.8,108.6c3.3-0.9,6.6-2.1,9.5-4.1c2.9-1.9,5.3-4.7,6.3-8"/>
						<path class="st17" d="M-1764.8,100c3.8-1.1,7.6-2.2,11.4-3.3c1.1-0.3,2.2-0.6,3-1.3c0.7-0.6,1.2-1.4,1.6-2.2
							c1.7-3.2,2.9-6.6,3.7-10"/>
					</g>
				</g>
			</g>
			<g>
				<ellipse id="SVGID_15_" class="st18" cx="-1716.8" cy="134.2" rx="142.1" ry="50.5"/>
			</g>
		</g>
	</g>
	<g>
		<path class="st0" d="M-1802.7,165.9h-8.6l-15.2-59.3h8.6c6.8,28.8,10.6,45.5,11.4,50.2h0.2c0.8-4.6,2.4-11.4,4.9-20.5l7.9-29.7
			h8.6l7.1,30c2.1,8.9,3.5,15.6,4.2,20.1h0.2c1-5.5,2.6-12.3,4.7-20.3l7.9-29.7h8.3l-17.1,59.3h-8.5l-7.4-30.8
			c-2.1-9-3.4-15.4-3.9-19.3h-0.2c-0.7,4.3-2.2,10.7-4.5,19.3L-1802.7,165.9z"/>
		<path class="st0" d="M-1694.3,128.6v8.1h-31.3v24.7h35v8.1h-45.7V98.9h43.8v8.1h-33.1v21.6H-1694.3z"/>
		<path class="st0" d="M-1675.6,163.4v-58.5c6-0.9,13.3-1.3,21.7-1.3c11.2,0,19.4,1.4,24.6,4.1c5.2,2.8,7.8,6.3,7.8,10.8
			c0,2.8-1.3,5.5-3.9,7.8c-2.6,2.4-6.3,4.2-11,5.4c5.5,0.9,10,2.7,13.3,5.4c3.3,2.6,5,5.8,5,9.6c0,5-3,9.2-9,12.5s-16,5-30.1,5
			C-1662.4,164.1-1668.5,163.9-1675.6,163.4z M-1663.5,110.4v18.8h10.7c5.9,0,10.5-0.9,14-2.7c3.4-1.8,5.1-4.2,5.1-7.1
			c0-6.3-6.4-9.5-19.2-9.5C-1657.6,109.8-1661.1,110-1663.5,110.4z M-1663.5,135.3v22.1c2,0.2,5.3,0.4,9.9,0.4
			c7.1,0,12.7-1,16.7-2.9s6-4.7,6-8.4c0-3.6-2.1-6.4-6.1-8.3c-4.1-1.9-9.7-2.9-16.7-2.9L-1663.5,135.3L-1663.5,135.3z"/>
	</g>
</g>
<g>
	<g>
		<g>
			<ellipse class="st17" cx="-737.2" cy="129.9" rx="141.6" ry="50"/>
			<path class="st19" d="M-845.7,67.9c2.8,5.8,3.4,11.3,1.8,16.4s-5,8.9-10.2,11.4c-5.1,2.4-10,2.7-14.9,0.9s-8.6-5.5-11.2-10.9
				c-2.8-5.7-3.3-11.1-1.8-16.2c1.6-5.2,4.9-9,10-11.5s10.1-2.8,14.9-0.9C-852.1,58.9-848.3,62.5-845.7,67.9z M-875,82.9
				c2,4.1,4.8,7,8.4,8.7s7.2,1.7,10.7,0c3.7-1.8,6-4.6,6.8-8.5c0.9-3.9,0.3-8-1.9-12.3c-2-4.1-4.8-7-8.3-8.7
				c-3.6-1.8-7.2-1.8-10.8,0c-3.7,1.8-6,4.6-6.8,8.5C-877.8,74.4-877.1,78.6-875,82.9z"/>
			<path class="st19" d="M-827.7,84.9l-9-38.9c2.9-1.2,6.3-2.3,10.2-3.2c5-1.2,8.9-1,11.9,0.6s4.9,4.1,5.7,7.6
				c1,4.1,0.3,7.6-2.1,10.5c-2.3,2.9-5.8,4.9-10.5,5.9c-2,0.5-3.4,0.7-4.4,0.6l3.6,15.7L-827.7,84.9z M-830.4,48.5l3.5,15
				c1.1,0.1,2.6-0.1,4.5-0.5c3.2-0.7,5.4-2,6.9-3.9s1.8-4.1,1.2-6.7c-0.6-2.4-1.8-4.1-3.8-5s-4.4-1.1-7.4-0.4
				C-827.4,47.4-829,47.9-830.4,48.5z"/>
			<path class="st19" d="M-784.8,76.7l-4.1-35.5l-12.7,1.5l-0.5-4.7l31-3.6l0.5,4.7l-12.8,1.5l4.1,35.5L-784.8,76.7z"/>
			<path class="st19" d="M-761.1,34.1l5.6-0.3l1.9,40.4l-5.6,0.3L-761.1,34.1z"/>
			<path class="st19" d="M-705.5,74.8l-0.3-22C-706,46.4-706,42-706,39.5c-1.5,4.5-3.3,9-5.2,13.8l-8.6,20.7l-4.3-0.2
				c-4.4-14.6-7-23.2-7.8-26c-0.8-2.7-1.5-5.9-2.4-9.4c-0.6,7.5-1.1,13.6-1.5,18.2l-1.7,16.9l-5.3-0.2l4.4-40.3l7.3,0.3
				c4.5,14.1,7.1,22.4,7.7,24.7c0.7,2.3,1.4,5.2,2.2,8.7c1.4-4.6,3-8.9,4.7-12.9l8.3-19.5l7.2,0.3l1,40.5L-705.5,74.8z"/>
			<path class="st19" d="M-682.6,36.5l5.5,1l-4,23.2c-0.7,4.2-0.4,7.5,0.9,10c1.3,2.5,3.5,4,6.5,4.5c3.2,0.6,5.9-0.1,8-2
				s3.5-4.9,4.2-9.1l4-23.2l5.5,1l-4,22.9c-1,5.7-3.1,9.8-6.4,12.4c-3.3,2.5-7.4,3.4-12.4,2.5c-4.8-0.8-8.2-2.9-10.3-6.3
				c-2-3.4-2.6-8-1.6-13.7L-682.6,36.5z"/>
			<path class="st19" d="M-613.9,97.2l7.1-20.8c2.1-6,3.5-10.2,4.3-12.5c-3,3.7-6.2,7.4-9.6,11.2l-15,16.6l-4-1.6
				c0.7-15.2,1.2-24.2,1.4-27.1c0.2-2.8,0.5-6,0.9-9.6c-3.1,6.9-5.6,12.4-7.6,16.6l-7.3,15.3l-4.9-2l17.7-36.5l6.7,2.7
				c-0.5,14.8-0.9,23.4-1,25.8c-0.2,2.4-0.5,5.4-0.8,8.9c2.9-3.9,5.8-7.4,8.8-10.6l14.4-15.6l6.7,2.7l-12.7,38.5L-613.9,97.2z"/>
		</g>
	</g>
	<g>
		<path class="st19" d="M-856.5,207.7l11.3-38.1c3.8,0.5,7.6,1.3,11.5,2.5c7.6,2.2,12.7,5.6,15.2,10.1c2.6,4.5,3,9.6,1.3,15.2
			c-1.9,6.4-5.3,10.8-10.4,13.4c-5,2.6-11.5,2.7-19.5,0.3C-850.5,209.9-853.7,208.8-856.5,207.7z M-841,175l-8.9,30.3
			c0.7,0.4,2.5,1,5.2,1.8c5.5,1.6,10.1,1.4,13.9-0.5c3.8-1.9,6.4-5.5,8-10.7c1.4-4.8,1.1-8.8-0.9-12.2s-5.7-5.8-10.9-7.4
			C-837.1,175.6-839.2,175.1-841,175z"/>
		<path class="st19" d="M-777.5,200.7l-0.6,4.6l-16.1-2.1l-1.8,14l18,2.3l-0.6,4.6l-23.6-3l5.2-40.1l22.6,2.9l-0.6,4.6l-17.1-2.2
			l-1.6,12.3L-777.5,200.7z"/>
		<path class="st19" d="M-763.8,223.2l1.6-4.6c3,1.9,6.2,2.9,9.7,3c2.6,0.1,4.8-0.5,6.3-1.6c1.6-1.2,2.4-2.8,2.5-4.8
			c0.1-1.9-0.5-3.4-1.7-4.7c-1.2-1.2-3.2-2.4-5.9-3.4c-3.8-1.4-6.6-3.1-8.3-5s-2.5-4.2-2.5-6.8c0.1-3.2,1.4-5.8,4-7.8s5.9-3,9.9-2.8
			c3.8,0.1,6.9,0.9,9.3,2.3l-1.6,4.4c-2.3-1.4-4.9-2.1-8-2.2c-2.4-0.1-4.4,0.4-5.8,1.6c-1.4,1.1-2.1,2.5-2.2,4.1
			c0,1.7,0.5,3.1,1.6,4.2c1.1,1.1,3.3,2.3,6.4,3.6c3.8,1.5,6.5,3.2,8.1,5.2c1.6,1.9,2.3,4.3,2.2,7.1c-0.1,3.5-1.5,6.2-4.1,8.4
			s-6.3,3.1-10.9,2.9c-1.9-0.1-3.9-0.4-5.9-0.9C-761,224.8-762.6,224.1-763.8,223.2z"/>
		<path class="st19" d="M-724.8,185.3l5.6-0.2l1.5,40.4l-5.6,0.2L-724.8,185.3z"/>
		<path class="st19" d="M-669.8,199.3l2.4,19.3c-4.1,2.1-8.3,3.4-12.7,4c-6.9,0.9-12.4-0.4-16.6-3.7s-6.6-7.9-7.4-13.8
			c-0.8-6.1,0.7-11.3,4.3-15.7s8.8-7,15.7-7.9c4.2-0.5,7.8-0.3,10.8,0.6l-0.8,4.6c-2.8-0.9-6-1.1-9.6-0.6c-5,0.6-8.9,2.6-11.5,5.8
			s-3.6,7.3-3,12.1c0.6,4.9,2.5,8.6,5.8,11.1s7.3,3.5,12.2,2.9c3.3-0.4,5.7-1.1,7.1-2l-1.5-11.6l-8.3,1.1l-0.6-4.4L-669.8,199.3z"/>
		<path class="st19" d="M-638.3,214l-5,1.6l-12.3-38.5l5.9-1.9l18.8,15.2c4.3,3.4,8,6.8,11.2,10.1c-1.5-3.4-3.4-8.5-5.6-15.5
			l-5.1-16.1l5-1.6l12.3,38.5l-5.4,1.7l-18.7-15.3c-4.7-3.9-8.6-7.4-11.7-10.5c1.4,3.6,3.2,8.8,5.4,15.6L-638.3,214z"/>
	</g>
</g>
<g class="st15">
	<g>
		<g>
			<defs>
				<ellipse id="SVGID_20_" cx="-737.2" cy="129.9" rx="142.1" ry="50.5"/>
			</defs>
			<clipPath id="SVGID_21_">
				<use xlink:href="#SVGID_20_"  style="overflow:visible;"/>
			</clipPath>
			<g class="st20">
				<polygon class="st17" points="-739.6,98.2 -754.6,101.9 -766.2,112.1 -771.7,126.6 -769.8,141.9 -761,154.6 -747.3,161.8 
					-731.9,161.8 -718.2,154.6 -709.4,141.9 -707.5,126.6 -713,112.1 -724.6,101.9 				"/>
				<line class="st17" x1="-754.6" y1="101.9" x2="-800.6" y2="4.9"/>
				<line class="st17" x1="-766.2" y1="112.1" x2="-856.5" y2="34.8"/>
				<line class="st17" x1="-739.6" y1="98.2" x2="-739.6" y2="-6.6"/>
				<line class="st17" x1="-724.6" y1="101.9" x2="-668" y2="13.5"/>
				<line class="st17" x1="-771.7" y1="126.6" x2="-900.9" y2="98.5"/>
				<line class="st17" x1="-768.9" y1="141.6" x2="-883.4" y2="183.3"/>
				<line class="st17" x1="-761" y1="155" x2="-835.9" y2="239.5"/>
				<line class="st17" x1="-747.3" y1="161.8" x2="-767.8" y2="261.9"/>
				<line class="st17" x1="-731.9" y1="161.8" x2="-704.8" y2="261.1"/>
				<line class="st17" x1="-718.2" y1="154.6" x2="-646.4" y2="248"/>
				<line class="st17" x1="-709.4" y1="141.9" x2="-596.1" y2="192.6"/>
				<line class="st17" x1="-707.5" y1="126.6" x2="-594" y2="115.7"/>
				<line class="st17" x1="-713" y1="112.1" x2="-607.4" y2="60.8"/>
				<path class="st17" d="M-796.2,86.5c5.6-0.7,7.7-2,12.6-4.9c1.8-1.1,3.5-2.3,4.9-3.7c3-3.1,5.7-7.1,7.4-11"/>
				<path class="st17" d="M-770.9,67.5c5.6,1.8,10.3,1.6,16.1,0.2c5.7-1.4,11.1-4.3,15.3-8.5"/>
				<path class="st17" d="M-739.5,59.3c-0.4,0.1,9.4,6.3,14.6,7.8c6.5,1.9,14.6,2.5,21.4,1.8"/>
				<path class="st17" d="M-703.5,68.9c0.6,2.6-0.1,3.5,0.8,5.9s2.4,4.7,4.4,6.4c1.9,1.5,4.1,2.4,6.3,3.3c5.1,2.1,17.5,8.9,17.3,8.8
					"/>
				<path class="st17" d="M-677.8,95c-1.9,5.4-0.3,7.7,1.8,13s5.5,10,9.1,14.4"/>
				<path class="st17" d="M-667.6,122.5c-3.6,2-6.2,6.1-7.6,10c-1.4,3.9-1.5,8.1-1,12.2c0.5,4.1,1.8,9.4,3,13.4"/>
				<path class="st17" d="M-673.7,157.9c-4.7,2.8-9.2,5.3-11.8,10.1c-3.2,5.9-7.1,20-7.1,19.9"/>
				<path class="st17" d="M-693.5,186.7c-11.6-0.3-21.4,4.8-27.6,14.6"/>
				<path class="st17" d="M-721.1,201.3c-2.3-3.1-7.8-4.5-11.7-4.8s-7.8,0.6-11.6,1.6c-4.3,1.1-6.9,1.9-11.1,3.4"/>
				<path class="st17" d="M-755.4,201.6c-0.6-2-2.8-3.7-4.2-5.2c-2-2.1-4.6-3.5-7.2-4.9c-3.1-1.6-6.3-3.3-9.7-4.3
					c-3.7-1.1-7.6-1.3-11.5-1.5"/>
				<path class="st17" d="M-789,186.4c-0.3-3.6-1.4-7.1-3.1-10.2c-1.1-2-2.4-3.9-3.8-5.7c-1.7-2.4-3.5-4.9-5.2-7.3
					c-1.9-2.6-4.7-5.8-7.7-7.1"/>
				<path class="st17" d="M-807.5,155.6c0.5-6.1,1-11.5,0.6-17.6c-0.3-6.1-0.1-14.3-2.9-19.8"/>
				<path class="st17" d="M-809.6,118.3c4.3-4.2,5.1-7.4,7-13.1c1.8-5.7,5.7-13.1,6.1-19.1"/>
				<path class="st17" d="M-712.3,52.5C-712.3,52.5-712.4,52.5-712.3,52.5"/>
				<path class="st17" d="M-739.7,39.3c1.2,2.3,3.7,3.6,6,4.8c2.2,1,4.4,2.1,6.6,3.1c2.6,1.2,5.1,2.4,7.8,3.4
					c7.7,2.8,16.7,5.5,24.8,4.2"/>
				<path class="st17" d="M-694.9,55.5c4.7,9.6,11.8,16.3,21.3,21.3c4.9,2.7,9.1,7.7,14.5,9.1"/>
				<path class="st17" d="M-659.7,86.2c-0.9,5.2,0.5,8.3,1.2,13.5c0.8,5.9,1.7,12.2,5.5,16.8c1.4,1.7,3.2,3.2,5.2,4.2"/>
				<path class="st17" d="M-647.1,120.8c-4.4,6-8.9,12.3-10,19.6c-0.6,4.2-0.1,8.4,0.5,12.6s1.6,13.3,1.6,13.2"/>
				<path class="st17" d="M-656.6,165.5c-3.9,4.1-7.3,7.6-11.2,11.7c-2.7,2.8-5.4,5.6-7.1,9.1c-1.5,2.9-2.2,6.1-2.9,9.3
					c-0.5,2.4-2.1,5.7-2.6,8.1"/>
				<path class="st17" d="M-682.6,200.9c-5.8,0.6-10.3,2.2-15.9,4c-2.8,0.9-5.7,1.8-8,3.6c-1.7,1.4-3.1,3.2-4.4,4.9
					c-1.8,2.4-3.3,4.4-5,6.9"/>
				<path class="st17" d="M-716.8,217.1c-8.7-3.1-18.3-5.5-27.4-3.8c-5.5,1.1-9.9,3.1-14.9,5.6"/>
				<path class="st17" d="M-759.5,221.2c0.3,0.4-14.8-18.2-25.6-20.5c-5.1-1.1-10.3-0.9-15.5-0.7"/>
				<path class="st17" d="M-800.6,199.9c-0.8-5.7-3.2-11.9-6.4-16.7s-7-9.2-11-13.4c-2.3-2.5-4.7-5.5-7.4-7.7"/>
				<path class="st17" d="M-825.3,162.1c2.3,3,2.7-13.2,3-20.7c0.4-8.3-1.1-18.7-3.5-26.6"/>
				<path class="st17" d="M-824.7,115c9.3-11.3,15.6-24.4,16.4-39"/>
				<path class="st17" d="M-807.8,76.5c5.1-0.2,7.1-0.9,12-2.4c3.3-1.1,6.7-2.5,9.1-5c1.7-1.7,2.8-3.9,4-6c1.6-2.9,3.7-6.7,5.2-9.6"
					/>
				<path class="st17" d="M-777.2,54.2c6.7,0.2,12.1-1.1,18.3-3.7c1.4-0.6,2.8-1.3,4.2-1.9c5.1-2.5,10.2-4.9,15-7.9"/>
				<path class="st17" d="M-739.6,30.4c2.4,1.1,4.9,2.2,7.3,3.2c13.7,5.7,29.1,10.4,43.9,11.8"/>
				<path class="st17" d="M-688.5,45.4c2,5.8,5.9,9,10.5,13c9.3,8.1,27.8,17.6,34,20"/>
				<path class="st17" d="M-645,79.1c-1.9,4.7-1.7,8-0.8,13c0.9,4.9,2.7,9.7,4.5,14.4c1.8,4.6,3.6,9.4,6.6,13.3"/>
				<path class="st17" d="M-632.7,119.3c-7.7,16.8-6,54.4-6,54.2"/>
				<path class="st17" d="M-639.5,173c-3.6,2.2-6.8,4.2-10.3,6.4c-3.3,2-6.6,4.1-9.1,7.1c-2.9,3.6-4.3,8.1-5.7,12.5
					c-1.8,5.8-3.8,12.2-5.6,18"/>
				<path class="st17" d="M-671.6,215.2c-7.7,1.2-14.8,2.4-22.1,5s-14,6.4-18.8,12.5"/>
				<path class="st17" d="M-712.7,232.1c-2.6-1.9-6.7-2.1-9.8-2.2c-5.7-0.2-11.4-0.4-17.1-0.6c-7.8-0.3-15.5-0.8-22.3,3.2"/>
				<path class="st17" d="M-762.2,234.3c-7-9.6-17.8-17.4-29.2-20.9c-6-1.8-12.3-2.6-18.5-3.3"/>
				<path class="st17" d="M-811.4,211.8c-2.7-8.7-6-17.2-11-24.8s-12.5-14.6-20.7-18.4"/>
				<path class="st17" d="M-842,168.2c3-9.8,5-19.5,5.8-29.7c0.7-8.6-0.4-20-5.2-27.2"/>
				<path class="st17" d="M-840.8,111.5c3.6-3.2,5.6-5.6,8.5-9.5c4-5.5,7.2-11.8,8.8-18.4c1.3-5.4,3.1-12.3,3.3-17.9"/>
				<path class="st17" d="M-820.5,65.7c9.2-1.5,17.4-2.9,24.6-8.9c5-4.2,8.7-11.3,11.9-17"/>
				<path class="st17" d="M-783.5,40.9c7.2,1.2,14,0.6,20.8-2c2.5-0.9,4.8-2,7.2-3.2c5.3-2.5,10.6-5.1,15.9-7.6"/>
				<path class="st17" d="M-739.6,10.7c2,3.7,6,6,9.9,7.6c16.2,6.6,34.2,10.3,51.7,10.9"/>
				<path class="st17" d="M-678.1,29.2c5.2,9.3,10.2,19,18.9,25.2c4.5,3.2,9.6,5.3,14.7,7.4c5.9,2.4,19.3,7.8,19.1,7.7"/>
				<path class="st17" d="M-627.3,70.4c-1.2,8.6-1.6,16.3,0.5,24.8c2,7.9,8.2,15.3,12.3,22.3"/>
				<path class="st17" d="M-614.6,117.5c-6,8.6-8.4,19.3-9.2,29.7c-0.8,11.4,2.6,33.8,2.6,33.6"/>
				<path class="st17" d="M-657.7,232.7"/>
				<path class="st17" d="M-643.6,209.9"/>
				<path class="st17" d="M-628.3,188.9"/>
				<path class="st17" d="M-623.1,181.3"/>
				<path class="st17" d="M-659.2,231c-9.6,0.1-19.3,1.6-28.5,4.5c-8,2.5-16,6.2-20.4,13.4"/>
				<path class="st17" d="M-709,245.6c-9.2-1-19.1-1.8-28.4-2.3c-9.4-0.5-19.5-0.6-27.6,4.2"/>
				<path class="st17" d="M-764.8,247.5c-10-8.4-21.9-15.6-34.1-20.3c-6.9-2.7-14.4-4.8-21.8-4.8"/>
				<path class="st17" d="M-822.1,223.9c-1.6-9.6-5.7-19.4-11.7-27c-3.6-4.5-7.8-8.4-11.9-12.3c-3.7-3.5-7.9-7.3-11.7-10.8"/>
				<path class="st17" d="M-857.5,173.9c-1.1-8.1,1.9-15.5,3.6-23.5c2-9.5,2.3-19.3,0.9-28.9c-0.6-4.3,0-9.7-2.5-13.2"/>
				<path class="st17" d="M-855.6,108.3c8.6-10.2,14.3-20.8,18.5-33.5c2-6.1,4.7-13.7,3.8-20.1"/>
				<path class="st17" d="M-833.3,54.6c9.1-0.8,16.5-3.8,24-8.9s14-13.1,18-21.3"/>
				<path class="st17" d="M-791.1,25c9,0.7,17.6-1.1,26.2-4s17.2-7.5,25.3-11.5"/>
				<path class="st17" d="M-660.5,229.7c3-7.4,6.2-14.2,10-21.3c3.2-6,6.8-11.9,11.5-16.8c4.6-5,10.4-9.1,17-10.8"/>
				<path class="st17" d="M-739.8-2.6c21.3,11.9,45.2,18.5,69.6,19.3"/>
				<path class="st17" d="M-671,17.9c5.2,8.9,11.4,16.9,19.3,23.6c11.6,9.8,27.1,16.4,41.7,20.4"/>
				<path class="st17" d="M-610.6,62.4c-3,8.9-3,18.7-1.1,27.9s5.8,17.9,10.3,26.2"/>
				<path class="st17" d="M-601.7,116.4c-8,22.6-10,47.3-5.8,70.9"/>
				<path class="st17" d="M-606.4,187.9c-8.1,6.5-16.6,14.1-22.5,22.6c-1.8,2.6-3.6,5.4-5.3,8.1c-2.5,3.9-5,7.9-7.5,11.8
					c-2.8,4.4-5.5,8.8-8.3,13.1"/>
				<path class="st17" d="M-649.9,243.6c-5.2-1.8-11.2-0.9-16.5,0c-3.4,0.6-6.8,1.2-10.3,1.9c-5.2,0.9-10.5,1.9-15.4,3.8
					c-5.1,1.9-9.8,4.7-13.9,8.3"/>
				<path class="st17" d="M-705.7,257.6c-19.2-7.9-41.2-8.8-60.8-2"/>
				<path class="st17" d="M-766.8,257.1c0.1,0.1-14.7-10-22.7-13.5c-5.1-2.2-10.4-4-15.6-5.8c-4-1.4-8-2.7-12-4.1
					c-3.6-1.2-7.2-2.4-10.8-3.7"/>
				<path class="st17" d="M-828.3,230.9c-4.7-10.3-11.6-19.4-19.3-27.7s-16.2-15.7-24.7-23.2"/>
				<path class="st17" d="M-874.1,180.4c2.9-25.1,5.7-50.7,0.4-75.3"/>
				<path class="st17" d="M-875,104.9c10.6-19.8,21.9-40.3,28.1-61.8"/>
				<path class="st17" d="M-846.8,43.1c8.5-3.5,16.2-7.3,23.5-12.8c3.4-2.5,6.6-5.4,9.7-8.2c4.9-4.4,9.7-8.7,14.6-13.1"/>
				<path class="st17" d="M-798.7,9.8c15-3.2,30.1-6.3,45.2-9.5c4.7-1,10.1-2.9,14-5.9"/>
				<path class="st17" d="M-765.2,79.4c1.9,1.5,4.4,2.1,6.9,2.1s4.8-0.6,7.2-1.3c4-1.2,7.8-2.9,11.5-5"/>
				<path class="st17" d="M-759.2,92.3c2.2,0.8,4.7,0.8,7,0.6c4.5-0.4,8.8-1.7,12.7-3.9"/>
				<path class="st17" d="M-739.6,89.2c5.3,4.6,12.7,6.7,19.6,5.4"/>
				<path class="st17" d="M-739.6,74.9c2.8,3.1,6.4,5.5,10.4,6.8c2.1,0.7,4.2,1.1,6.3,1.4c3.4,0.6,7,1.2,10.3,0"/>
				<path class="st17" d="M-711.3,81.2c-0.7,0.8-0.7,1.1-0.7,2.1c0.1,1.1,0.6,2,1.1,2.9c4.4,7.4,12.1,12.7,20.4,15"/>
				<path class="st17" d="M-719.9,94.4c3.7,6.2,9.8,10.9,16.7,12.9"/>
				<path class="st17" d="M-690.5,101.2c-1.1,3.2-1.2,7.3-0.1,10.5c1.8,5,6.4,8.9,10.5,12.3"/>
				<path class="st17" d="M-702.7,107.1c-0.8,1.9-1,4.3-0.7,6.3c0.3,2.4,1.5,4.7,2.9,6.6c1.5,2,3.2,3.7,5,5.4"/>
				<path class="st17" d="M-695.4,125.4c-4.7,5.8-6.2,14.4-3.5,21.3"/>
				<path class="st17" d="M-682.1,124.1c-1.7,0.7-2.7,2.8-3.5,4.4c-1.6,3.4-3,7-3.5,10.8c-0.6,3.8-0.3,7.7,0,11.5"/>
				<path class="st17" d="M-698.9,146.7c-6.2,3.1-11.3,9-13.8,15.4"/>
				<path class="st17" d="M-687.9,151.7c-5.2,3.1-9.7,7.5-12.9,12.7c-1.7,2.8-3.2,5.9-3,9.2"/>
				<path class="st17" d="M-725.4,185.2c1-2.3,0.4-0.8,0.8-1.7c0.5-1,1.3-1.9,2.1-2.7c2.4-2.8,4.9-5.6,8-7.4c1-0.6,2.1-1,3.3-1.1
					c0.9-0.1,1.8,0.1,2.8,0.2c1.5,0.2,2.9,0.4,4.3,0.6"/>
				<path class="st17" d="M-729.6,170.4c1-2.1,2.3-4.1,4-5.7c1.1-1.1,2.3-2,3.7-2.6c1.5-0.6,3.2-0.6,4.8-0.4s3.5,0.6,5,1"/>
				<path class="st17" d="M-749.4,172c1.1-2.5,3.8-4.2,6.5-4.2c1.4,0,2.7,0.4,4,0.9c3.3,1.1,6.6,2.3,9.9,3.7"/>
				<path class="st17" d="M-752.5,186.9c3.1-2.5,7.2-3.8,11.2-3.6c1.8,0.1,3.5,0.5,5.2,0.9c3.8,0.9,7.5,2.1,11.2,3.6"/>
				<path class="st17" d="M-768.9,163.8c1.8-0.6,3.7,0.2,5.4,1c5.1,2.6,4.1,0.3,13.6,9.8"/>
				<path class="st17" d="M-777.4,173.5c2.1-0.2,4.1,0.4,6,1.1c1.5,0.5,3,0.9,4.5,1.5c3.3,1.3,6.2,3.5,9,5.7c1.9,1.5,3.8,3,5.2,4.9"
					/>
				<path class="st17" d="M-782.6,146.5c0.9,0.4,1.7,0.9,2.5,1.4c2.4,1.6,4.5,3.5,6.2,5.7c0.7,0.9,1.4,1.9,2,2.9
					c1.4,2.5,2.3,5.2,2.7,8"/>
				<path class="st17" d="M-794.4,151.1c4.7,1.7,8.9,4.8,11.9,8.8s4.8,8.9,5.1,13.9"/>
				<path class="st17" d="M-786.7,123.3c1.1,1,2.2,2.6,2.7,4.1c0.5,1.4,0.7,2.9,0.9,4.4c0.7,5,1.5,10.2,0.2,15.1"/>
				<path class="st17" d="M-797.9,120.8c2.7,7.5,4.2,15.5,4.4,23.5c0.1,2.3,0,4.6-1,6.7"/>
				<path class="st17" d="M-784.9,123.7c2.2,0,4.7-1.3,6-3s2.1-3.8,2.6-5.8c0.9-3.4,1.3-6.9,1.1-10.4"/>
				<path class="st17" d="M-797.9,120.8c1.6-0.6,4.1-1.1,5.6-1.9s2.8-2,3.7-3.4c0.6-1,0.9-2.1,1.2-3.2c1.4-5.2,2.4-10.5,2.9-15.8"/>
				<path class="st17" d="M-775.2,104.3c3.3-0.9,6.6-2.1,9.5-4.1c2.9-1.9,5.3-4.7,6.3-8"/>
				<path class="st17" d="M-785.3,95.8c3.8-1.1,7.6-2.2,11.4-3.3c1.1-0.3,2.2-0.6,3-1.3c0.7-0.6,1.2-1.4,1.6-2.2
					c1.7-3.2,2.9-6.6,3.7-10"/>
			</g>
		</g>
	</g>
	<g>
		<ellipse id="SVGID_17_" class="st18" cx="-737.2" cy="129.9" rx="142.1" ry="50.5"/>
	</g>
</g>
<g>
	<g>
		<g>
			<g>
				<g>
					
						<linearGradient id="SVGID_22_" gradientUnits="userSpaceOnUse" x1="19.1835" y1="872.0953" x2="363.7471" y2="872.0953" gradientTransform="matrix(1 0 0 1 0 -734)">
						<stop  offset="0" style="stop-color:#FEFEFE"/>
						<stop  offset="1" style="stop-color:#231F20"/>
					</linearGradient>
					<ellipse class="st21" cx="191.5" cy="138.1" rx="172.3" ry="64.7"/>
					
						<linearGradient id="SVGID_23_" gradientUnits="userSpaceOnUse" x1="14.267" y1="803.3912" x2="62.6854" y2="803.3912" gradientTransform="matrix(1 0 0 1 0 -734)">
						<stop  offset="0" style="stop-color:#45C8FF"/>
						<stop  offset="1" style="stop-color:#0000CC"/>
					</linearGradient>
					<path class="st22" d="M59.5,57.8c3.5,7.6,4.2,14.6,2.3,21.2c-1.9,6.6-6.1,11.4-12.4,14.8C43.2,97,37,97.4,31.3,95
						c-6-2.4-10.5-7.2-13.7-14.2c-3.3-7.4-4-14.4-2.1-21c1.9-6.6,6-11.6,12.3-14.8S40,41.3,46,43.8C51.6,46,56.1,50.8,59.5,57.8z
						 M23.7,77.2c2.5,5.2,5.8,9,10.2,11.2c4.4,2.2,8.8,2.2,13,0c4.6-2.4,7.2-6,8.2-11c1.1-5,0.4-10.4-2.3-16
						c-2.5-5.2-5.8-9-10.2-11.2s-8.8-2.2-13.1,0c-4.6,2.4-7.4,6-8.2,11S21.1,71.4,23.7,77.2z"/>
					
						<linearGradient id="SVGID_24_" gradientUnits="userSpaceOnUse" x1="70.3638" y1="785.8132" x2="104.6911" y2="785.8132" gradientTransform="matrix(1 0 0 1 0 -734)">
						<stop  offset="0" style="stop-color:#45C8FF"/>
						<stop  offset="1" style="stop-color:#0000CC"/>
					</linearGradient>
					<path class="st23" d="M81.3,79.6l-11-50.5c3.5-1.6,7.7-3,12.4-4.2c6.1-1.4,10.9-1.2,14.5,0.8c3.7,2,6,5.2,6.8,9.8
						c1.2,5.4,0.4,9.8-2.6,13.6c-2.8,3.8-7.2,6.2-12.8,7.6c-2.5,0.6-4.2,0.8-5.3,0.8L87.8,78L81.3,79.6z M78,32.5L82.2,52
						c1.4,0.2,3.2-0.2,5.4-0.8c3.9-1,6.7-2.6,8.4-5c1.8-2.4,2.3-5.2,1.6-8.6c-0.7-3.2-2.3-5.4-4.6-6.6c-2.5-1.2-5.4-1.4-8.9-0.4
						C81.7,31.1,79.8,31.7,78,32.5z"/>
					
						<linearGradient id="SVGID_25_" gradientUnits="userSpaceOnUse" x1="112.4641" y1="775.8495" x2="150.8511" y2="775.8495" gradientTransform="matrix(1 0 0 1 0 -734)">
						<stop  offset="0" style="stop-color:#45C8FF"/>
						<stop  offset="1" style="stop-color:#0000CC"/>
					</linearGradient>
					<path class="st24" d="M133.5,69.2l-5.1-46.1l-15.4,2l-0.7-6l37.6-4.6l0.7,6l-15.6,2l5.1,46.1L133.5,69.2z"/>
					
						<linearGradient id="SVGID_26_" gradientUnits="userSpaceOnUse" x1="162.4015" y1="773.8464" x2="171.5058" y2="773.8464" gradientTransform="matrix(1 0 0 1 0 -734)">
						<stop  offset="0" style="stop-color:#45C8FF"/>
						<stop  offset="1" style="stop-color:#0000CC"/>
					</linearGradient>
					<path class="st25" d="M162.4,13.9l6.8-0.4l2.3,52.3l-6.8,0.4L162.4,13.9z"/>
					
						<linearGradient id="SVGID_27_" gradientUnits="userSpaceOnUse" x1="184.7215" y1="773.9466" x2="236.7077" y2="773.9466" gradientTransform="matrix(1 0 0 1 0 -734)">
						<stop  offset="0" style="stop-color:#45C8FF"/>
						<stop  offset="1" style="stop-color:#0000CC"/>
					</linearGradient>
					<path class="st26" d="M230,66.6l-0.4-28.4c-0.2-8.2-0.2-14-0.2-17.2c-1.9,5.8-4,11.8-6.3,17.8l-10.5,26.8l-5.3-0.2
						c-5.4-18.8-8.6-30-9.5-33.7c-0.9-3.6-1.9-7.6-2.8-12.2c-0.7,9.8-1.4,17.6-1.9,23.6l-2.1,22l-6.5-0.2l5.3-52.3l8.8,0.4
						c5.4,18.2,8.6,29,9.5,32c0.9,3,1.8,6.8,2.6,11.2c1.8-6,3.7-11.6,5.6-16.8l10.2-25.2l8.8,0.4l1.2,52.5L230,66.6z"/>
					
						<linearGradient id="SVGID_28_" gradientUnits="userSpaceOnUse" x1="252.5214" y1="778.9824" x2="295.2439" y2="778.9824" gradientTransform="matrix(1 0 0 1 0 -734)">
						<stop  offset="0" style="stop-color:#45C8FF"/>
						<stop  offset="1" style="stop-color:#0000CC"/>
					</linearGradient>
					<path class="st27" d="M258,16.9l6.7,1.2l-4.9,30c-0.9,5.4-0.5,9.6,1.1,13c1.6,3.2,4.2,5.2,7.9,5.8c3.9,0.8,7.2-0.2,9.6-2.6
						c2.6-2.4,4.2-6.4,5.1-11.8l4.9-30l6.7,1.2l-4.7,29.6c-1.2,7.4-3.9,12.8-7.7,16c-4,3.2-8.9,4.4-15.1,3.2c-5.8-1-10-3.8-12.6-8.2
						c-2.5-4.4-3.2-10.4-1.9-17.6L258,16.9z"/>
					
						<linearGradient id="SVGID_29_" gradientUnits="userSpaceOnUse" x1="299.5783" y1="798.0831" x2="363.3085" y2="798.0831" gradientTransform="matrix(1 0 0 1 0 -734)">
						<stop  offset="0" style="stop-color:#45C8FF"/>
						<stop  offset="1" style="stop-color:#0000CC"/>
					</linearGradient>
					<path class="st28" d="M341.7,95.6l8.6-27c2.5-7.8,4.2-13.2,5.3-16.2c-3.7,4.8-7.5,9.6-11.7,14.4l-18.4,21.4l-4.7-2
						c0.9-19.6,1.4-31.4,1.8-35.1c0.2-3.6,0.7-7.8,1.2-12.4c-3.7,9-6.8,16-9.3,21.4L305.4,80l-6-2.6L321,30.1l8.2,3.6
						c-0.7,19.2-1.1,30.4-1.2,33.5c-0.2,3-0.5,7-1.1,11.6c3.5-5,7-9.6,10.7-13.8l17.5-20.2l8.1,3.4L347.6,98L341.7,95.6z"/>
				</g>
			</g>
			<g>
				
					<linearGradient id="SVGID_30_" gradientUnits="userSpaceOnUse" x1="46.3214" y1="951.3165" x2="95.4426" y2="951.3165" gradientTransform="matrix(1 0 0 1 0 -734)">
					<stop  offset="0" style="stop-color:#45C8FF"/>
					<stop  offset="1" style="stop-color:#0000CC"/>
				</linearGradient>
				<path class="st29" d="M46.3,238.8L60,189.4c4.6,0.6,9.3,1.6,14,3.2c9.3,2.8,15.4,7.2,18.6,13c3.2,5.8,3.7,12.4,1.6,19.6
					c-2.3,8.2-6.5,14-12.6,17.4c-6.1,3.4-14,3.4-23.6,0.4C53.5,241.7,49.6,240.3,46.3,238.8z M65.2,196.4l-10.9,39.3
					c0.9,0.6,3,1.2,6.3,2.4c6.7,2,12.3,1.8,17-0.6c4.6-2.6,7.9-7.2,9.6-13.8c1.8-6.2,1.4-11.4-1.2-15.8c-2.5-4.4-6.8-7.6-13.3-9.6
					C70,197.2,67.3,196.6,65.2,196.4z"/>
				
					<linearGradient id="SVGID_31_" gradientUnits="userSpaceOnUse" x1="112.4398" y1="966.4382" x2="146.2309" y2="966.4382" gradientTransform="matrix(1 0 0 1 0 -734)">
					<stop  offset="0" style="stop-color:#45C8FF"/>
					<stop  offset="1" style="stop-color:#0000CC"/>
				</linearGradient>
				<path class="st30" d="M142.4,229.8l-0.7,6l-19.6-2.6l-2.3,18.2l21.9,3l-0.7,6l-28.7-4l6.3-52.1l27.5,3.8l-0.7,6l-20.8-2.8
					l-1.9,16L142.4,229.8z"/>
				
					<linearGradient id="SVGID_32_" gradientUnits="userSpaceOnUse" x1="159.075" y1="969.7431" x2="190.3809" y2="969.7431" gradientTransform="matrix(1 0 0 1 0 -734)">
					<stop  offset="0" style="stop-color:#45C8FF"/>
					<stop  offset="1" style="stop-color:#0000CC"/>
				</linearGradient>
				<path class="st31" d="M159.1,259.1l1.9-6c3.7,2.4,7.5,3.8,11.7,3.8c3.2,0.2,5.8-0.6,7.7-2.2c1.9-1.6,3-3.6,3-6.2
					c0-2.4-0.5-4.4-2.1-6c-1.4-1.6-3.9-3-7.2-4.4c-4.6-1.8-8.1-4-10.2-6.6c-2.1-2.4-3.2-5.4-3-8.8c0.2-4.2,1.8-7.6,4.9-10.2
					c3.2-2.6,7.2-3.8,12.1-3.6c4.7,0.2,8.4,1.2,11.4,3l-1.9,5.8c-2.8-1.8-6-2.8-9.6-2.8c-3-0.2-5.3,0.6-7,2
					c-1.8,1.4-2.6,3.2-2.6,5.4c0,2.2,0.5,4,1.9,5.4c1.4,1.4,4,3,7.9,4.6c4.6,2,7.9,4.2,9.8,6.6c1.9,2.4,2.8,5.6,2.8,9.2
					c-0.2,4.4-1.8,8-5.1,10.8c-3.2,2.8-7.7,4-13.3,3.8c-2.3,0-4.7-0.4-7.2-1.2C162.6,260.9,160.7,260.1,159.1,259.1z"/>
				
					<linearGradient id="SVGID_34_" gradientUnits="userSpaceOnUse" x1="206.6359" y1="969.8433" x2="215.2679" y2="969.8433" gradientTransform="matrix(1 0 0 1 0 -734)">
					<stop  offset="0" style="stop-color:#45C8FF"/>
					<stop  offset="1" style="stop-color:#0000CC"/>
				</linearGradient>
				<path class="st32" d="M206.7,209.8l6.8-0.2l1.9,52.3l-6.8,0.2L206.7,209.8z"/>
				
					<linearGradient id="SVGID_35_" gradientUnits="userSpaceOnUse" x1="231.6525" y1="965.6661" x2="276.5435" y2="965.6661" gradientTransform="matrix(1 0 0 1 0 -734)">
					<stop  offset="0" style="stop-color:#45C8FF"/>
					<stop  offset="1" style="stop-color:#0000CC"/>
				</linearGradient>
				<path class="st33" d="M273.6,228l3,25c-4.9,2.8-10.2,4.4-15.4,5.2c-8.4,1.2-15.1-0.4-20.1-4.8c-5.1-4.2-8.1-10.2-8.9-17.8
					c-0.9-7.8,0.9-14.6,5.3-20.4c4.4-5.6,10.7-9,19.1-10.2c5.1-0.6,9.5-0.4,13.1,0.8l-1.1,6c-3.3-1.2-7.4-1.4-11.7-0.8
					c-6.1,0.8-10.9,3.4-14,7.6s-4.4,9.4-3.7,15.8c0.7,6.2,3.2,11,7,14.4c4,3.2,8.9,4.4,14.9,3.8c4-0.6,6.8-1.4,8.6-2.6l-1.8-15
					l-10.2,1.4l-0.7-5.8L273.6,228z"/>
				
					<linearGradient id="SVGID_36_" gradientUnits="userSpaceOnUse" x1="290.8367" y1="951.9162" x2="342.5794" y2="951.9162" gradientTransform="matrix(1 0 0 1 0 -734)">
					<stop  offset="0" style="stop-color:#45C8FF"/>
					<stop  offset="1" style="stop-color:#0000CC"/>
				</linearGradient>
				<path class="st34" d="M311.9,247.1l-6.1,2l-15.1-49.9l7.2-2.4l22.9,19.6c5.3,4.4,9.8,8.8,13.7,13.2c-1.8-4.4-4-11-6.8-20
					l-6.3-20.8l6.1-2l15.1,49.9l-6.7,2.2L313.1,219c-5.8-5-10.5-9.6-14.4-13.6c1.8,4.8,3.9,11.4,6.5,20.2L311.9,247.1z"/>
			</g>
		</g>
		<g class="st15">
			<g>
				
					<linearGradient id="SVGID_37_" gradientUnits="userSpaceOnUse" x1="18.4832" y1="872.0953" x2="364.4475" y2="872.0953" gradientTransform="matrix(1 0 0 1 0 -734)">
					<stop  offset="0" style="stop-color:#45C8FF"/>
					<stop  offset="1" style="stop-color:#0000CC"/>
				</linearGradient>
				<ellipse id="SVGID_33_" class="st35" cx="191.5" cy="138.1" rx="173" ry="65.5"/>
			</g>
			<g>
				<g>
					<defs>
						<ellipse id="SVGID_38_" cx="191.5" cy="138.1" rx="173" ry="65.5"/>
					</defs>
					<clipPath id="SVGID_39_">
						<use xlink:href="#SVGID_38_"  style="overflow:visible;"/>
					</clipPath>
					<g class="st36">
						<polygon class="st17" points="188.7,96.8 170.3,101.6 156.3,115.1 149.6,133.7 151.9,153.7 162.6,170.1 179.2,179.4 
							197.9,179.4 214.8,170.1 225.4,153.7 227.7,133.7 220.9,115.1 206.9,101.6 						"/>
						<line class="st17" x1="170.3" y1="101.6" x2="114.4" y2="-24"/>
						<line class="st17" x1="156.3" y1="115.1" x2="46.3" y2="14.9"/>
						<line class="st17" x1="188.7" y1="96.8" x2="188.7" y2="-39"/>
						<line class="st17" x1="206.9" y1="101.6" x2="275.7" y2="-12.7"/>
						<line class="st17" x1="149.6" y1="133.7" x2="-7.8" y2="97.2"/>
						<line class="st17" x1="152.9" y1="153.1" x2="13.6" y2="207.2"/>
						<line class="st17" x1="162.6" y1="170.5" x2="71.4" y2="280.1"/>
						<line class="st17" x1="179.2" y1="179.4" x2="154.3" y2="309.2"/>
						<line class="st17" x1="197.9" y1="179.4" x2="231" y2="308"/>
						<line class="st17" x1="214.8" y1="170.1" x2="302.1" y2="291.1"/>
						<line class="st17" x1="225.4" y1="153.7" x2="363.2" y2="219.2"/>
						<line class="st17" x1="227.7" y1="133.7" x2="365.8" y2="119.7"/>
						<line class="st17" x1="220.9" y1="115.1" x2="349.6" y2="48.4"/>
						<path class="st17" d="M119.7,81.8c6.8-1,9.5-2.6,15.2-6.4c2.1-1.4,4.2-3,6-4.8c3.7-4,7-9.2,9.1-14.2"/>
						<path class="st17" d="M150.5,57.2c6.8,2.2,12.6,2,19.6,0.2s13.5-5.6,18.6-11"/>
						<path class="st17" d="M188.7,46.6c-0.5,0.2,11.4,8.2,17.9,10.2c8.1,2.4,17.9,3.2,26.1,2.4"/>
						<path class="st17" d="M232.6,59c0.7,3.2-0.2,4.6,1.1,7.6c1.2,3.2,3,6.2,5.4,8.2c2.3,2,5.1,3.2,7.7,4.4
							c6.1,2.6,21.4,11.6,21,11.4"/>
						<path class="st17" d="M263.9,92.8c-2.3,7-0.4,10,2.1,16.8c2.6,6.8,6.7,13,11,18.6"/>
						<path class="st17" d="M276.2,128.5c-4.4,2.6-7.5,8-9.3,13s-1.9,10.6-1.2,15.8c0.7,5.2,2.3,12.2,3.7,17.4"/>
						<path class="st17" d="M268.9,174.4c-5.8,3.6-11.2,6.8-14.4,13c-3.9,7.6-8.8,26-8.6,25.8"/>
						<path class="st17" d="M244.7,211.6c-14.2-0.4-26.1,6.2-33.6,18.8"/>
						<path class="st17" d="M211.1,230.6c-2.8-4-9.5-5.8-14.2-6.2c-4.7-0.4-9.5,0.8-14.2,2c-5.3,1.4-8.4,2.4-13.5,4.4"/>
						<path class="st17" d="M169.2,231c-0.7-2.6-3.3-4.8-5.1-6.8c-2.5-2.8-5.6-4.6-8.8-6.4c-3.9-2.2-7.7-4.2-11.7-5.6
							c-4.6-1.4-9.3-1.6-14-2"/>
						<path class="st17" d="M128.4,211.2c-0.4-4.6-1.8-9.2-3.9-13.2c-1.4-2.6-3-5-4.6-7.4c-2.1-3.2-4.2-6.2-6.3-9.4
							c-2.3-3.4-5.8-7.6-9.5-9.2"/>
						<path class="st17" d="M106,171.3c0.5-7.8,1.2-14.8,0.7-22.8s-0.2-18.6-3.5-25.6"/>
						<path class="st17" d="M103.4,123.1c5.3-5.4,6.3-9.6,8.4-17c2.3-7.4,6.8-16.8,7.5-24.6"/>
						<path class="st17" d="M221.9,37.7C221.8,37.7,221.8,37.7,221.9,37.7"/>
						<path class="st17" d="M188.5,20.7c1.4,3,4.6,4.6,7.4,6.2c2.6,1.4,5.4,2.6,8.1,4c3.2,1.6,6.3,3.2,9.5,4.4
							c9.5,3.6,20.3,7.2,30.1,5.4"/>
						<path class="st17" d="M242.9,41.7c5.8,12.4,14.4,21,25.9,27.6c6,3.4,11,9.8,17.7,11.8"/>
						<path class="st17" d="M285.8,81.4c-1.1,6.6,0.7,10.8,1.4,17.4c0.9,7.6,2.1,15.8,6.7,21.8c1.8,2.2,3.9,4.2,6.3,5.4"/>
						<path class="st17" d="M301.2,126.3c-5.4,7.8-10.9,16-12.3,25.4c-0.7,5.4,0,11,0.5,16.4c0.7,5.4,1.9,17.2,1.9,17"/>
						<path class="st17" d="M289.7,184.2c-4.7,5.2-8.9,9.8-13.7,15.2c-3.3,3.6-6.5,7.2-8.8,11.8c-1.8,3.8-2.6,8-3.5,12
							c-0.7,3-2.5,7.4-3.2,10.4"/>
						<path class="st17" d="M258,230c-7,0.8-12.6,2.8-19.3,5.2c-3.5,1.2-7,2.4-9.8,4.6c-2.1,1.8-3.7,4-5.3,6.4
							c-2.1,3.2-4,5.8-6.1,8.8"/>
						<path class="st17" d="M216.3,251.1c-10.5-4-22.2-7-33.3-4.8c-6.7,1.4-12.1,4-18,7.2"/>
						<path class="st17" d="M164.3,256.3c0.4,0.6-18-23.6-31.2-26.6c-6.1-1.4-12.6-1.2-18.9-1"/>
						<path class="st17" d="M114.4,228.8c-0.9-7.4-4-15.4-7.7-21.6c-3.7-6.2-8.6-11.8-13.3-17.4c-2.8-3.2-5.8-7.2-8.9-10"/>
						<path class="st17" d="M84.3,179.8c2.8,4,3.3-17.2,3.7-26.8c0.5-10.6-1.2-24.2-4.4-34.5"/>
						<path class="st17" d="M85,118.7C96.4,104,104.1,87,105,68.2"/>
						<path class="st17" d="M105.7,68.8c6.1-0.2,8.8-1.2,14.5-3.2c4-1.4,8.1-3.2,11-6.4c2.1-2.2,3.5-5,4.7-7.8
							c1.9-3.8,4.4-8.6,6.3-12.4"/>
						<path class="st17" d="M142.8,39.9c8.1,0.2,14.7-1.4,22.2-4.8c1.8-0.8,3.3-1.6,5.1-2.4c6.1-3.2,12.4-6.4,18.2-10.2"/>
						<path class="st17" d="M188.5,9.1c3,1.4,6,2.8,8.9,4.2c16.6,7.4,35.4,13.4,53.4,15.2"/>
						<path class="st17" d="M250.8,28.5c2.5,7.6,7.2,11.6,12.8,16.8c11.4,10.4,33.8,22.8,41.5,26"/>
						<path class="st17" d="M303.7,72.2c-2.3,6-2.1,10.4-0.9,16.8c1.1,6.4,3.3,12.6,5.4,18.6c2.1,6,4.4,12.2,8.1,17.2"/>
						<path class="st17" d="M318.8,124.3c-9.5,21.8-7.2,70.5-7.2,70.3"/>
						<path class="st17" d="M310.5,194c-4.4,2.8-8.2,5.4-12.6,8.4c-4,2.6-8.1,5.4-11,9.2c-3.5,4.6-5.3,10.4-6.8,16.2
							c-2.1,7.4-4.6,15.8-6.8,23.4"/>
						<path class="st17" d="M271.3,248.7c-9.5,1.6-18,3-27,6.4c-8.9,3.4-17,8.2-22.8,16.2"/>
						<path class="st17" d="M221.4,270.5c-3.2-2.4-8.2-2.8-11.9-2.8c-7-0.2-13.8-0.6-20.8-0.8c-9.6-0.4-18.9-1-27.1,4.2"/>
						<path class="st17" d="M161.2,273.3c-8.6-12.4-21.7-22.6-35.5-27c-7.4-2.4-14.9-3.4-22.6-4.2"/>
						<path class="st17" d="M101.1,244.3C97.8,233,93.8,222,87.8,212c-6.1-9.8-15.2-18.8-25.2-23.8"/>
						<path class="st17" d="M63.8,187.8c3.7-12.6,6-25.2,7.2-38.5c0.9-11.2-0.5-25.8-6.3-35.3"/>
						<path class="st17" d="M65.4,114.3c4.4-4,6.8-7.2,10.3-12.2c4.9-7.2,8.8-15.2,10.7-23.8c1.6-7,3.9-16,4-23.2"/>
						<path class="st17" d="M90.1,54.8c11.2-2,21.2-3.8,29.9-11.6c6.1-5.4,10.7-14.6,14.4-22"/>
						<path class="st17" d="M135.1,22.7c8.8,1.6,17,0.8,25.4-2.6c3-1.2,5.8-2.6,8.8-4c6.5-3.2,13-6.6,19.4-9.8"/>
						<path class="st17" d="M188.7-16.5c2.5,4.8,7.2,7.8,12.1,9.8c19.8,8.6,41.7,13.4,62.9,14.2"/>
						<path class="st17" d="M263.4,7.5c6.3,12,12.4,24.6,22.9,32.6c5.4,4.2,11.7,6.8,17.9,9.6c7.2,3.2,23.5,10.2,23.3,10"/>
						<path class="st17" d="M325.2,61c-1.4,11.2-1.9,21.2,0.5,32c2.5,10.2,10,19.8,15.1,29"/>
						<path class="st17" d="M340.8,122.1c-7.4,11.2-10.3,25-11.2,38.5c-1.1,14.6,3.2,43.9,3.2,43.7"/>
						<path class="st17" d="M288.3,271.3"/>
						<path class="st17" d="M305.4,241.9"/>
						<path class="st17" d="M324,214.4"/>
						<path class="st17" d="M330.5,204.6"/>
						<path class="st17" d="M286.4,269.1c-11.7,0.2-23.5,2-34.7,5.8c-9.8,3.2-19.6,8-24.9,17.2"/>
						<path class="st17" d="M225.8,287.9c-11.2-1.4-23.3-2.4-34.5-3c-11.6-0.6-23.6-0.8-33.6,5.4"/>
						<path class="st17" d="M157.8,290.5c-12.3-10.8-26.6-20.2-41.5-26.4c-8.4-3.4-17.5-6.2-26.6-6.2"/>
						<path class="st17" d="M88.2,259.9c-1.9-12.4-6.8-25.2-14.4-35.1C69.4,219,64.4,214,59.3,209c-4.6-4.4-9.6-9.4-14.2-14"/>
						<path class="st17" d="M44.9,195c-1.4-10.6,2.3-20,4.4-30.4c2.5-12.2,2.8-25,1.2-37.5c-0.7-5.4,0-12.6-3.2-17"/>
						<path class="st17" d="M47.4,110.1C57.9,96.8,64.9,83,70,66.8c2.5-8,5.8-17.8,4.7-26"/>
						<path class="st17" d="M74.5,40.5c11-1,20.1-4.8,29.2-11.6c9.1-6.6,17-17,21.9-27.6"/>
						<path class="st17" d="M126,2.1c11,1,21.4-1.4,31.9-5.2s21-9.6,30.8-14.8"/>
						<path class="st17" d="M285,267.3c3.7-9.6,7.5-18.4,12.3-27.4c4-7.8,8.2-15.4,14-21.8c5.6-6.4,12.6-11.8,20.7-14"/>
						<path class="st17" d="M188.3-33.8c25.9,15.4,55.2,24,84.7,25"/>
						<path class="st17" d="M272-7.1c6.3,11.6,13.8,21.8,23.5,30.4c14.2,12.6,32.9,21.2,50.8,26.4"/>
						<path class="st17" d="M345.7,50.6c-3.7,11.6-3.7,24.2-1.4,36.3c2.3,12,7,23.2,12.6,33.9"/>
						<path class="st17" d="M356.4,120.5c-9.6,29.2-12.1,61.3-7,91.7"/>
						<path class="st17" d="M350.8,213.2c-9.8,8.4-20.1,18.2-27.3,29.4c-2.3,3.4-4.4,7-6.5,10.4c-3,5-6.1,10.2-9.1,15.2
							c-3.3,5.6-6.7,11.4-10.2,17"/>
						<path class="st17" d="M297.7,285.3c-6.3-2.4-13.7-1.2-20.1,0c-4.2,0.8-8.2,1.6-12.4,2.4c-6.3,1.2-12.8,2.4-18.7,4.8
							c-6.1,2.4-11.9,6-17,10.8"/>
						<path class="st17" d="M229.8,303.5c-23.3-10.2-50.2-11.4-74.1-2.6"/>
						<path class="st17" d="M155.4,302.7c0.2,0-17.9-13-27.7-17.4c-6.1-2.8-12.6-5.2-19.1-7.4c-4.9-1.8-9.8-3.6-14.7-5.2
							c-4.4-1.6-8.8-3.2-13.1-4.8"/>
						<path class="st17" d="M80.6,268.9c-5.8-13.2-14.2-25.2-23.5-35.9c-9.3-10.8-19.8-20.4-30.1-30"/>
						<path class="st17" d="M25,203.4c3.5-32.4,7-65.7,0.5-97.5"/>
						<path class="st17" d="M23.7,105.6c13-25.6,26.8-52.1,34.3-80.1"/>
						<path class="st17" d="M58.1,25.5c10.3-4.4,19.8-9.4,28.7-16.6c4.2-3.2,8.1-7,11.9-10.6c6-5.6,11.9-11.2,17.9-16.8"/>
						<path class="st17" d="M116.7-17.7c18.4-4.2,36.6-8.2,55-12.4c5.8-1.2,12.3-3.8,17-7.6"/>
						<path class="st17" d="M157.5,72.6c2.3,2,5.4,2.8,8.4,2.8s6-0.8,8.8-1.6c4.9-1.6,9.6-3.8,14-6.6"/>
						<path class="st17" d="M164.7,89.2c2.8,1,5.6,1,8.6,0.8c5.4-0.4,10.9-2.2,15.6-5.2"/>
						<path class="st17" d="M188.7,85.2c6.5,6,15.6,8.6,24,7"/>
						<path class="st17" d="M188.5,66.8c3.3,4,7.9,7.2,12.6,8.8c2.5,0.8,5.1,1.4,7.7,1.8c4.2,0.8,8.6,1.6,12.4,0"/>
						<path class="st17" d="M223,74.8c-0.9,1-0.9,1.4-0.9,2.6c0,1.4,0.7,2.6,1.4,3.8c5.3,9.6,14.7,16.4,24.9,19.4"/>
						<path class="st17" d="M212.5,92c4.6,8,11.9,14.2,20.3,16.6"/>
						<path class="st17" d="M248.4,100.8c-1.2,4.2-1.4,9.4,0,13.6c2.1,6.4,7.9,11.6,12.8,16"/>
						<path class="st17" d="M233.5,108.5c-0.9,2.4-1.2,5.6-0.9,8.2c0.4,3.2,1.8,6,3.5,8.6c1.8,2.6,3.9,4.8,6,7"/>
						<path class="st17" d="M242.4,132.3c-5.8,7.4-7.5,18.6-4.2,27.6"/>
						<path class="st17" d="M258.7,130.5c-2.1,0.8-3.3,3.6-4.2,5.8c-1.9,4.4-3.7,9-4.2,14c-0.7,5-0.4,10,0,14.8"/>
						<path class="st17" d="M238.2,159.9c-7.5,4-13.8,11.6-16.8,20"/>
						<path class="st17" d="M251.5,166.3c-6.3,4-11.7,9.8-15.8,16.4c-2.1,3.6-3.9,7.6-3.7,12"/>
						<path class="st17" d="M205.8,209.8c1.2-3,0.5-1,0.9-2.2c0.5-1.4,1.6-2.4,2.5-3.6c3-3.6,6-7.2,9.8-9.6c1.2-0.8,2.6-1.4,4-1.4
							c1.1-0.2,2.3,0,3.3,0.2c1.8,0.2,3.5,0.6,5.3,0.8"/>
						<path class="st17" d="M200.7,190.6c1.2-2.8,2.8-5.2,4.9-7.4c1.4-1.4,2.8-2.6,4.6-3.4c1.9-0.8,3.9-0.8,6-0.6
							c2.1,0.2,4.2,0.8,6.1,1.4"/>
						<path class="st17" d="M176.6,192.6c1.4-3.2,4.6-5.4,8.1-5.4c1.8,0,3.3,0.6,4.9,1.2c4,1.4,8.1,3,12.1,4.8"/>
						<path class="st17" d="M172.9,211.8c3.9-3.2,8.8-5,13.7-4.6c2.1,0.2,4.2,0.6,6.3,1.2c4.6,1.2,9.1,2.8,13.7,4.6"/>
						<path class="st17" d="M152.9,182c2.1-0.8,4.6,0.2,6.5,1.2c6.1,3.4,4.9,0.4,16.5,12.8"/>
						<path class="st17" d="M142.6,194.6c2.6-0.4,4.9,0.6,7.4,1.4c1.8,0.6,3.7,1.2,5.6,2c4,1.6,7.5,4.6,11,7.4
							c2.3,1.8,4.6,3.8,6.3,6.4"/>
						<path class="st17" d="M136.1,159.5c1.1,0.4,2.1,1,3,1.8c2.8,2,5.4,4.6,7.5,7.4c0.9,1.2,1.8,2.4,2.5,3.8
							c1.8,3.2,2.8,6.8,3.2,10.4"/>
						<path class="st17" d="M121.8,165.5c5.8,2.2,10.9,6.2,14.5,11.4c3.7,5.2,5.8,11.6,6.1,18"/>
						<path class="st17" d="M131.2,129.5c1.4,1.2,2.6,3.4,3.3,5.2c0.5,1.8,0.9,3.8,1.1,5.6c0.9,6.6,1.8,13.2,0.4,19.6"/>
						<path class="st17" d="M117.6,126.3c3.3,9.8,5.1,20,5.4,30.4c0,3,0,6-1.2,8.6"/>
						<path class="st17" d="M133.5,130.1c2.6,0,5.6-1.6,7.4-3.8c1.6-2.2,2.5-4.8,3.2-7.6c1.1-4.4,1.6-9,1.4-13.6"/>
						<path class="st17" d="M117.6,126.3c1.9-0.8,5.1-1.4,6.8-2.6c1.8-1,3.5-2.6,4.4-4.4c0.7-1.2,1.1-2.8,1.4-4.2
							c1.8-6.8,2.8-13.6,3.5-20.4"/>
						<path class="st17" d="M145.2,104.8c4-1.2,8.1-2.8,11.6-5.2c3.5-2.6,6.5-6,7.7-10.4"/>
						<path class="st17" d="M133,93.8c4.6-1.4,9.3-2.8,13.8-4.2c1.2-0.4,2.6-0.8,3.7-1.8c0.9-0.8,1.4-1.8,1.9-2.8
							c2.1-4,3.5-8.4,4.6-13"/>
					</g>
				</g>
			</g>
			<g>
				<ellipse id="SVGID_1_" class="st18" cx="191.5" cy="138.1" rx="173" ry="65.5"/>
			</g>
		</g>
	</g>
	<g>
		<path class="st37" d="M86.9,179.2H76.4l-18.6-76.9h10.5c8.4,37.3,13,58.9,13.8,65.1h0.2c1.1-6,3-14.8,6-26.6l9.6-38.5h10.5
			l8.8,38.9c2.6,11.6,4.2,20.2,5.1,26h0.2c1.2-7.2,3.2-16,5.8-26.2l9.6-38.5h10L127,179.4h-10.3l-8.9-39.9c-2.6-11.6-4.2-20-4.7-25
			h-0.2c-0.9,5.4-2.6,13.8-5.4,25L86.9,179.2z"/>
		<path class="st37" d="M219,130.9v10.4h-38v32h42.5v10.4h-55.7V92.4h53.4v10.4H181v28L219,130.9L219,130.9z"/>
		<path class="st37" d="M241.5,176V100c7.4-1.2,16.1-1.8,26.4-1.8c13.7,0,23.6,1.8,29.9,5.4c6.3,3.6,9.5,8.2,9.5,14
			c0,3.6-1.6,7-4.7,10.2c-3.2,3-7.7,5.4-13.5,7c6.8,1.2,12.1,3.6,16.3,7c4,3.4,6.1,7.6,6.1,12.4c0,6.6-3.7,12-11,16.2
			c-7.4,4.2-19.4,6.4-36.6,6.4C257.6,176.8,250.3,176.6,241.5,176z M256.2,107.2v24.4h13c7.2,0,12.8-1.2,17-3.6
			c4.2-2.4,6.3-5.4,6.3-9.2c0-8.2-7.9-12.4-23.5-12.4C263.6,106.4,259.2,106.6,256.2,107.2z M256.2,139.5v28.6
			c2.5,0.4,6.5,0.4,12.1,0.4c8.8,0,15.4-1.2,20.3-3.8c4.9-2.4,7.4-6.2,7.4-10.8c0-4.6-2.5-8.2-7.5-10.8c-4.9-2.6-11.7-3.8-20.3-3.8
			L256.2,139.5L256.2,139.5z"/>
	</g>
</g>
</svg>
