<?xml version="1.0" encoding="utf-8"?>
<!-- Generator: Adobe Illustrator 24.0.2, SVG Export Plug-In . SVG Version: 6.00 Build 0)  -->
<svg version="1.1" id="Layer_1" xmlns="http://www.w3.org/2000/svg" xmlns:xlink="http://www.w3.org/1999/xlink" x="0px" y="0px"
	 viewBox="0 0 929 572" style="enable-background:new 0 0 929 572;" xml:space="preserve">
<style type="text/css">
	.st0{fill:#9999CC;}
	.st1{fill:#CC0033;}
	.st2{fill:#CC0033;stroke:#000000;stroke-miterlimit:10;}
</style>
<g>
	<rect x="4" y="4" class="st0" width="921" height="564"/>
	<path d="M921,8v556H8V8H921 M929,0H0v572h929V0L929,0z"/>
</g>
<g>
	<path class="st1" d="M106.78,54.88l4.98,15.7c-2.71-2.34-5.15-4.14-7.31-5.38c-2.16-1.24-3.93-1.86-5.32-1.86
		c-1.04,0-1.84,0.28-2.42,0.83c-0.58,0.56-0.86,1.33-0.86,2.33c0,1.25,0.62,2.36,1.86,3.34c1.24,0.98,3.18,1.87,5.82,2.67
		c5.84,1.78,9.79,3.51,11.85,5.2c2.06,1.69,3.09,3.85,3.09,6.49c0,4.26-2.09,7.76-6.28,10.52s-9.58,4.13-16.16,4.13
		c-3.34,0-6.68-0.61-10-1.83c-3.33-1.22-6.39-2.95-9.18-5.2v7.03l-5.24-15.67c2.42,1.97,4.81,3.49,7.16,4.54
		c2.35,1.05,4.49,1.58,6.4,1.58c2.07,0,3.68-0.44,4.83-1.32c1.15-0.88,1.73-2.1,1.73-3.66c0-1.46-0.46-2.63-1.39-3.5
		c-0.93-0.87-2.99-1.8-6.2-2.8c-4.67-1.48-8.14-3.25-10.43-5.29c-2.29-2.04-3.43-4.44-3.43-7.19c0-3.46,1.52-6.29,4.57-8.5
		c3.05-2.21,7.01-3.31,11.89-3.31c3.22,0,6.37,0.58,9.43,1.73c3.07,1.15,6.22,2.94,9.46,5.36L106.78,54.88z"/>
	<path class="st1" d="M118.65,57.81l22.5-2.58c2.11-0.23,3.66-0.39,4.66-0.47c1-0.08,1.79-0.12,2.37-0.12
		c5.96,0,10.58,1.49,13.86,4.48s4.92,7.19,4.92,12.6c0,4.86-1.49,8.81-4.48,11.84c-2.99,3.03-6.88,4.54-11.66,4.54
		c-2.71,0-5.21-0.41-7.47-1.22c-2.27-0.81-4.19-2-5.77-3.56l1.85,10.43l9.61,5.83l-29.53-2.78l4.13-2.93l4.28-32.05L118.65,57.81z
		 M136.25,74.13c2.64-1.11,4.78-2.64,6.42-4.58c1.64-1.94,2.46-3.85,2.46-5.73c0-1.09-0.21-1.9-0.62-2.42
		c-0.41-0.52-1.04-0.78-1.9-0.78c-0.59,0-1.16,0.09-1.73,0.26c-0.57,0.18-1.21,0.47-1.93,0.88L136.25,74.13z"/>
	<path class="st1" d="M215.62,79.55l-2.64,19.37l-48.25-2.11l12.69-4.42l-4.51-32.17l-8.17-3.16l45.91-3.13l2.87,13.45l-4.78-4.92
		l-14.12,0.06l-2.14,8.94l10.08-2.34l2.99-4.6l1.14,20.27l-3.19-5.04l-8.94-1.2l-3.54,9.52l16.82,2.11L215.62,79.55z"/>
	<path class="st1" d="M262.61,76.3l-3.13,20.33l-1.2-8.32c-2.83,3.36-5.95,5.92-9.36,7.68c-3.41,1.76-6.97,2.64-10.68,2.64
		c-2.44,0-4.81-0.5-7.12-1.51c-2.3-1.01-4.38-2.47-6.24-4.38c-2.21-2.23-3.9-4.72-5.08-7.49c-1.18-2.76-1.77-5.59-1.77-8.48
		c0-4,0.85-7.66,2.55-10.97s4.11-6.01,7.24-8.1c2.09-1.39,4.34-2.42,6.75-3.11c2.41-0.68,5.02-1.03,7.84-1.03
		c2.56,0,4.94,0.4,7.15,1.2c2.21,0.8,4.28,2.02,6.21,3.66l1.7-4.86l2.99,16.03c-1.29-1.88-2.81-3.3-4.57-4.26s-3.65-1.45-5.68-1.45
		c-2.34,0-4.23,0.69-5.65,2.07c-1.43,1.38-2.14,3.19-2.14,5.43c0,2.38,0.89,4.38,2.67,5.99c1.78,1.61,4,2.42,6.68,2.42
		c1.64,0,3.35-0.29,5.13-0.86C258.64,78.34,260.56,77.47,262.61,76.3z"/>
	<path class="st1" d="M300.4,96.1l-35.92,3.49l6.04-4.51l2.9-32.75l-10.28-7.88l35.36,2.96l-13.15,3.78l5.95,29.15L300.4,96.1z"/>
	<path class="st1" d="M350.32,91.24l-25.55,7.91l6.53-8.76l-1.85-6.47l-9.49,0.73l-2.75,7.56l4.13,3.22l-27.77,1.99l6.77-5.04
		l8.99-34.98l-5.1-3.31l34.45,1.14l-8.03,2.87l14.09,31.46L350.32,91.24z M326.68,74.42l-4.07-11.69l-3.96,14.41L326.68,74.42z"/>
	<path class="st1" d="M390.23,100.17l-3.84-4.51l-39.58,2.17l5.39-3.78l1.44-33.37l-7.97-2.37l28.62-3.13l-7.5,5.45l4.98,26.95
		l10.49-5.33l3.37-7.73L390.23,100.17z"/>
	<path class="st1" d="M465.37,76.88c0,2.11-0.26,4.08-0.79,5.9c-0.53,1.83-1.33,3.52-2.4,5.08c-2.27,3.32-5.38,5.96-9.35,7.92
		s-8.16,2.94-12.6,2.94c-2.36,0-4.58-0.3-6.67-0.91s-4-1.5-5.76-2.7c-3.13-2.11-5.55-4.74-7.27-7.9c-1.72-3.15-2.58-6.56-2.58-10.21
		c0-2.79,0.54-5.45,1.61-7.97c1.07-2.52,2.64-4.79,4.69-6.8c2.52-2.5,5.45-4.43,8.8-5.79c3.35-1.36,6.86-2.04,10.53-2.04
		c2.3,0,4.46,0.29,6.46,0.86c2,0.58,3.84,1.43,5.52,2.56c3.01,2.03,5.39,4.76,7.15,8.19S465.37,73.09,465.37,76.88z M443.11,61.59
		c-0.57,0.84-1,1.73-1.29,2.67s-0.44,1.89-0.44,2.87c0,1.76,0.67,3.28,2.01,4.56c1.34,1.28,2.92,1.92,4.76,1.92
		c1.45,0,2.82-0.39,4.12-1.17c1.3-0.78,2.23-1.78,2.8-2.99c-1.41-2.42-3.13-4.31-5.17-5.65C447.85,62.44,445.59,61.71,443.11,61.59z
		"/>
	<path class="st1" d="M512.95,75.16l-6.71-11.46l-17.4,1.2l2.08,9.61l7.44-3.19l3.13-4.39l5.57,24.55l-6.24-8.64l-10.49-0.59
		l3.31,12.95l5.92,3.9l-34.86-2.46l6.62-4.37l3.6-29.36l-10.22-4.86l44.53-4.19L512.95,75.16z"/>
	<path class="st1" d="M558.24,75.16l-6.71-11.46l-17.4,1.2l2.08,9.61l7.44-3.19l3.13-4.39l5.57,24.55l-6.24-8.64l-10.49-0.59
		l3.31,12.95l5.92,3.9l-34.86-2.46l6.62-4.37l3.6-29.36l-10.22-4.86l44.53-4.19L558.24,75.16z"/>
	<path class="st1" d="M604.97,79.55l-2.64,19.37l-48.25-2.11l12.69-4.42l-4.51-32.17l-8.17-3.16l45.91-3.13l2.87,13.45l-4.78-4.92
		l-14.12,0.06l-2.14,8.94l10.08-2.34l2.99-4.6l1.14,20.27l-3.19-5.04l-8.94-1.2l-3.54,9.52l16.82,2.11L604.97,79.55z"/>
	<path class="st1" d="M654.78,95.14l-19.63,6.59l2.34-4.42l-11.1-13.51c-0.45-0.04-0.91-0.1-1.39-0.19s-0.97-0.18-1.48-0.28
		l0.85,10.43l6.59,5.83l-24.79-2.78l4.13-2.93l4.28-32.05l-9.26-4.01l22.5-2.58c1.72-0.21,3.19-0.37,4.42-0.45s2.32-0.13,3.28-0.13
		c5.94,0,10.44,1.22,13.51,3.65s4.6,6.01,4.6,10.74c0,3.93-1.31,7.12-3.93,9.59c-2.62,2.47-6.5,4.17-11.66,5.11L654.78,95.14z
		 M623.87,74.75c0.64,0.35,1.32,0.63,2.02,0.83s1.35,0.31,1.93,0.31c0.82,0,1.55-0.46,2.18-1.38c0.63-0.92,0.95-1.96,0.95-3.13
		c0-1.45-0.48-2.71-1.44-3.81c-0.96-1.09-2.46-2.08-4.51-2.96L623.87,74.75z"/>
	<path class="st1" d="M738.42,57.75l-4.57,1.99l-4.69,34.31l6.62,2.64l-15.32,1.2l-21.3-30.29l7.32,27.48l7.73,4.25l-32.7-3.05
		l4.98-3.37l2.11-32.29l-7.09-2.87l24.61-3.49l15.06,32.78l-2.64-28.45l-4.75-3.19L738.42,57.75z"/>
	<path class="st1" d="M785.76,76.88c0,2.11-0.26,4.08-0.79,5.9c-0.53,1.83-1.33,3.52-2.4,5.08c-2.27,3.32-5.38,5.96-9.35,7.92
		s-8.16,2.94-12.6,2.94c-2.36,0-4.58-0.3-6.67-0.91s-4-1.5-5.76-2.7c-3.13-2.11-5.55-4.74-7.27-7.9c-1.72-3.15-2.58-6.56-2.58-10.21
		c0-2.79,0.54-5.45,1.61-7.97s2.64-4.79,4.69-6.8c2.52-2.5,5.45-4.43,8.8-5.79c3.35-1.36,6.86-2.04,10.53-2.04
		c2.3,0,4.46,0.29,6.46,0.86c2,0.58,3.84,1.43,5.52,2.56c3.01,2.03,5.39,4.76,7.15,8.19S785.76,73.09,785.76,76.88z M763.5,61.59
		c-0.57,0.84-1,1.73-1.29,2.67s-0.44,1.89-0.44,2.87c0,1.76,0.67,3.28,2.01,4.56c1.34,1.28,2.92,1.92,4.76,1.92
		c1.45,0,2.82-0.39,4.12-1.17c1.3-0.78,2.23-1.78,2.8-2.99c-1.41-2.42-3.13-4.31-5.17-5.65S765.98,61.71,763.5,61.59z"/>
	<path class="st1" d="M852.09,58.54l-5.95,2.75l-10.93,32.23l8.12,2.08l-22.56,4.22l-6.74-17.29l-6.88,15.47l-17.46-0.94l5.95-2.46
		l-4.75-34.57l-5.39-2.52l30.53-2.7L809,59.13l-4.31,25.75l14.03-20.48l8.99,20.24l1.32-24.9L823,56.61L852.09,58.54z"/>
</g>
<g>
	<path d="M115.62,137.72l-3.66,1.59l-3.75,27.45l5.3,2.11l-12.26,0.96L84.22,145.6l5.86,21.98l6.19,3.4l-26.16-2.44l3.98-2.7
		l1.69-25.83l-5.67-2.3l19.69-2.79l12.05,26.23l-2.11-22.76l-3.8-2.55L115.62,137.72z"/>
	<path d="M144.05,170.14l-2.11-3.89c-2.08,1.31-4.16,2.29-6.23,2.93s-4.23,0.96-6.45,0.96c-4.33,0-7.79-1.07-10.39-3.22
		s-3.9-5-3.9-8.54c0-1.88,0.36-3.68,1.07-5.43s1.71-3.26,3.01-4.56c1.25-1.25,2.7-2.2,4.35-2.84s3.46-0.96,5.45-0.96
		c3.8,0,6.93,0.82,9.4,2.46s3.7,3.7,3.7,6.19c0,2.5-1.14,4.59-3.41,6.28s-5.12,2.53-8.54,2.53c-0.84,0-1.63-0.07-2.37-0.2
		s-1.44-0.33-2.11-0.6c1.47,1,2.91,1.74,4.32,2.21s2.87,0.71,4.37,0.71c1.83,0,3.51-0.41,5.04-1.22s2.84-1.99,3.94-3.54
		L144.05,170.14z M120.73,153.42c0.5,0.41,1.09,0.72,1.76,0.95s1.36,0.34,2.06,0.34c1.23,0,2.24-0.36,3.02-1.08s1.17-1.64,1.17-2.77
		c0-0.55-0.08-1.04-0.23-1.48s-0.4-0.85-0.73-1.24c-1.67,0.25-3.1,0.82-4.28,1.7S121.4,151.92,120.73,153.42z"/>
	<path d="M191.4,144.73l-3.84,2.16l-6.14,20.6l3.8,2.58l-18.05-0.7l3.12-1.92l-6.59-6.77l-3.3,5.18l3.49,3.16l-15.98,1.05l3.8-2.67
		l-5.95-19.59l-3.84-1.62l21.33-1.45l-4.52,2.16l0.23,12.4l8.55-12.21l5.04,11.95l2.98-11.51l-3.66-2.25L191.4,144.73z"/>
	<path d="M263.75,138.35l-4.76,2.2l-8.74,25.78l6.49,1.66l-18.05,3.38l-5.39-13.83l-5.51,12.38l-13.97-0.75l4.76-1.97l-3.8-27.66
		l-4.31-2.02l24.42-2.16l-5.63,3.45l-3.45,20.6l11.23-16.38l7.2,16.2l1.05-19.92l-4.83-2.51L263.75,138.35z"/>
	<path d="M289.27,170.14l-2.11-3.89c-2.08,1.31-4.16,2.29-6.23,2.93s-4.23,0.96-6.45,0.96c-4.33,0-7.79-1.07-10.39-3.22
		s-3.9-5-3.9-8.54c0-1.88,0.36-3.68,1.07-5.43s1.71-3.26,3.01-4.56c1.25-1.25,2.7-2.2,4.35-2.84s3.46-0.96,5.45-0.96
		c3.8,0,6.93,0.82,9.4,2.46s3.7,3.7,3.7,6.19c0,2.5-1.14,4.59-3.41,6.28s-5.12,2.53-8.54,2.53c-0.84,0-1.63-0.07-2.37-0.2
		s-1.44-0.33-2.11-0.6c1.47,1,2.91,1.74,4.32,2.21s2.87,0.71,4.37,0.71c1.83,0,3.51-0.41,5.04-1.22s2.84-1.99,3.94-3.54
		L289.27,170.14z M265.95,153.42c0.5,0.41,1.09,0.72,1.76,0.95s1.36,0.34,2.06,0.34c1.23,0,2.24-0.36,3.02-1.08s1.17-1.64,1.17-2.77
		c0-0.55-0.08-1.04-0.23-1.48s-0.4-0.85-0.73-1.24c-1.67,0.25-3.1,0.82-4.28,1.7S266.62,151.92,265.95,153.42z"/>
	<path d="M301.79,136.29l-3.75,14.58c1.72-2.05,3.43-3.57,5.14-4.56s3.49-1.49,5.33-1.49c2.84,0,5.27,1.07,7.29,3.2
		s3.02,4.71,3.02,7.75c0,3.77-1.43,6.86-4.29,9.29s-6.76,3.85-11.7,4.25l-13.2,1.05l3.75-3.42l-0.77-29.7l-2.79-1.59l15.26-1.1
		L301.79,136.29z M298.86,157.22c0.28,0.48,0.66,0.84,1.14,1.08s1.06,0.35,1.75,0.35c1.22,0,2.29-0.52,3.22-1.57
		s1.39-2.25,1.39-3.61c0-0.53-0.1-1.04-0.29-1.52s-0.52-1-0.97-1.55c-1.45,0.77-2.7,1.72-3.75,2.86S299.47,155.72,298.86,157.22z"/>
	<path d="M345.9,144.59l-4.45,8.48c-1.22-1.09-2.38-1.9-3.48-2.43s-2.18-0.79-3.25-0.79c-0.97,0-1.72,0.22-2.26,0.66
		s-0.81,1.04-0.81,1.8c0,1.39,2.12,2.23,6.35,2.51c0.42,0.03,0.75,0.05,0.98,0.07c3.45,0.23,5.96,0.87,7.51,1.9s2.33,2.58,2.33,4.64
		c0,2.56-1.26,4.65-3.79,6.27s-5.84,2.43-9.95,2.43c-1.86,0-3.74-0.29-5.64-0.87s-3.89-1.46-5.96-2.65l-3.89,3.45l3.02-9.45
		c1.53,1.36,3.01,2.39,4.44,3.08s2.75,1.04,3.95,1.04c1,0,1.8-0.26,2.39-0.79s0.89-1.24,0.89-2.14c0-0.94-0.31-1.63-0.94-2.07
		s-2.13-0.86-4.5-1.23c-2.66-0.44-4.57-1.13-5.73-2.06s-1.75-2.25-1.75-3.94c0-2.47,1.01-4.43,3.04-5.88s4.75-2.18,8.19-2.18
		c1.94,0,3.6,0.23,4.99,0.7s2.69,1.23,3.89,2.27L345.9,144.59z"/>
	<path d="M372,169.32l-24.28,0.75l5.23-2.11l1.64-19.97l-6.4-2.53l23.39-0.87l-7.5,2.65l2.93,20.53L372,169.32z M369.4,139.17
		c0,1.06-0.82,1.94-2.46,2.64s-3.78,1.04-6.42,1.04s-4.79-0.35-6.43-1.04s-2.47-1.57-2.47-2.64s0.83-1.95,2.48-2.65
		s3.8-1.05,6.42-1.05c2.64,0,4.78,0.35,6.42,1.05S369.4,138.11,369.4,139.17z"/>
	<path d="M399.94,170.28l-3.49-3.94c-1.7,1.33-3.42,2.32-5.16,2.96s-3.55,0.97-5.46,0.97c-2.97,0-5.34-0.86-7.13-2.58
		s-2.67-4.02-2.67-6.89c0-0.86,0.07-1.88,0.22-3.07s0.39-2.72,0.74-4.59l-2.72,0.33l-2.51,4.27l-0.87-14.3l3.21,3.21l4.48-0.14
		c0.42-1.55,0.86-3.04,1.32-4.49s0.95-2.85,1.46-4.21l-6-2.3l20.53-0.91l-5.81,3.66c-0.31,1.44-0.6,2.8-0.86,4.08
		s-0.48,2.52-0.67,3.73l5.37-0.23l3.66-4.5l-0.59,13.24l-3.3-3.84l-5.86,0.82c-0.16,1.27-0.27,2.41-0.35,3.45s-0.12,1.93-0.12,2.7
		c0,1.73,0.27,2.98,0.82,3.75s1.44,1.15,2.67,1.15c1.19,0,2.41-0.35,3.68-1.05s2.49-1.71,3.68-3.02L399.94,170.28z"/>
	<path d="M430.22,170.14l-2.11-3.89c-2.08,1.31-4.16,2.29-6.23,2.93s-4.23,0.96-6.45,0.96c-4.33,0-7.79-1.07-10.39-3.22
		s-3.9-5-3.9-8.54c0-1.88,0.36-3.68,1.07-5.43s1.71-3.26,3.01-4.56c1.25-1.25,2.7-2.2,4.35-2.84s3.46-0.96,5.45-0.96
		c3.8,0,6.93,0.82,9.4,2.46s3.7,3.7,3.7,6.19c0,2.5-1.14,4.59-3.41,6.28s-5.12,2.53-8.54,2.53c-0.84,0-1.63-0.07-2.37-0.2
		s-1.44-0.33-2.11-0.6c1.47,1,2.91,1.74,4.32,2.21s2.87,0.71,4.37,0.71c1.83,0,3.51-0.41,5.04-1.22s2.84-1.99,3.94-3.54
		L430.22,170.14z M406.9,153.42c0.5,0.41,1.09,0.72,1.76,0.95s1.36,0.34,2.06,0.34c1.23,0,2.24-0.36,3.02-1.08s1.17-1.64,1.17-2.77
		c0-0.55-0.08-1.04-0.23-1.48s-0.4-0.85-0.73-1.24c-1.67,0.25-3.1,0.82-4.28,1.7S407.57,151.92,406.9,153.42z"/>
	<path d="M455.23,138.64l-6.4-4.27l24.3,2.58c4.44,0.48,7.94,2.06,10.5,4.72s3.84,6.07,3.84,10.21c0,5.16-1.82,9.22-5.47,12.2
		s-8.91,4.71-15.79,5.19l-17.39,1.15l10.1-3.75L455.23,138.64z M465.03,158.14c2.11-1.16,3.73-2.53,4.86-4.11s1.7-3.29,1.7-5.12
		c0-1.59-0.39-3.07-1.16-4.42s-1.92-2.57-3.43-3.64L465.03,158.14z"/>
	<path d="M518.54,170.14l-2.11-3.89c-2.08,1.31-4.16,2.29-6.23,2.93s-4.23,0.96-6.45,0.96c-4.33,0-7.79-1.07-10.39-3.22
		s-3.9-5-3.9-8.54c0-1.88,0.36-3.68,1.07-5.43s1.71-3.26,3.01-4.56c1.25-1.25,2.7-2.2,4.35-2.84s3.46-0.96,5.45-0.96
		c3.8,0,6.93,0.82,9.4,2.46s3.7,3.7,3.7,6.19c0,2.5-1.14,4.59-3.41,6.28s-5.12,2.53-8.54,2.53c-0.84,0-1.63-0.07-2.37-0.2
		s-1.44-0.33-2.11-0.6c1.47,1,2.91,1.74,4.32,2.21s2.87,0.71,4.37,0.71c1.83,0,3.51-0.41,5.04-1.22s2.84-1.99,3.94-3.54
		L518.54,170.14z M495.21,153.42c0.5,0.41,1.09,0.72,1.76,0.95s1.36,0.34,2.06,0.34c1.23,0,2.24-0.36,3.02-1.08s1.17-1.64,1.17-2.77
		c0-0.55-0.08-1.04-0.23-1.48s-0.4-0.85-0.73-1.24c-1.67,0.25-3.1,0.82-4.28,1.7C496.81,150.73,495.89,151.92,495.21,153.42z"/>
	<path d="M545.07,144.59l-4.45,8.48c-1.22-1.09-2.38-1.9-3.48-2.43s-2.18-0.79-3.25-0.79c-0.97,0-1.72,0.22-2.26,0.66
		s-0.81,1.04-0.81,1.8c0,1.39,2.12,2.23,6.35,2.51c0.42,0.03,0.75,0.05,0.98,0.07c3.45,0.23,5.96,0.87,7.51,1.9s2.33,2.58,2.33,4.64
		c0,2.56-1.26,4.65-3.79,6.27s-5.84,2.43-9.95,2.43c-1.86,0-3.74-0.29-5.64-0.87s-3.89-1.46-5.96-2.65l-3.89,3.45l3.02-9.45
		c1.53,1.36,3.01,2.39,4.44,3.08s2.75,1.04,3.95,1.04c1,0,1.8-0.26,2.39-0.79s0.89-1.24,0.89-2.14c0-0.94-0.31-1.63-0.94-2.07
		s-2.13-0.86-4.5-1.23c-2.66-0.44-4.57-1.13-5.73-2.06s-1.75-2.25-1.75-3.94c0-2.47,1.01-4.43,3.04-5.88s4.75-2.18,8.19-2.18
		c1.94,0,3.6,0.23,4.99,0.7s2.69,1.23,3.89,2.27L545.07,144.59z"/>
	<path d="M571.18,169.32l-24.28,0.75l5.23-2.11l1.64-19.97l-6.4-2.53l23.39-0.87l-7.5,2.65l2.93,20.53L571.18,169.32z
		 M568.57,139.17c0,1.06-0.82,1.94-2.46,2.64s-3.78,1.04-6.42,1.04s-4.79-0.35-6.43-1.04s-2.47-1.57-2.47-2.64s0.83-1.95,2.48-2.65
		s3.8-1.05,6.42-1.05c2.64,0,4.78,0.35,6.42,1.05S568.57,138.11,568.57,139.17z"/>
	<path d="M599.89,145.27l-3.45,1.92c1.08,3.58,1.89,6.86,2.44,9.83s0.82,5.6,0.82,7.86c0,4.86-1.2,8.64-3.6,11.33
		s-5.76,4.04-10.09,4.04c-1.81,0-3.6-0.21-5.36-0.63s-3.57-1.08-5.45-1.97l-3.35,2.74l4.85-9.98c1.39,1.58,2.86,2.77,4.39,3.59
		s3.13,1.22,4.77,1.22c1.86,0,3.46-0.77,4.8-2.3s2.02-3.34,2.02-5.44c0-0.81-0.09-1.6-0.27-2.36s-0.46-1.53-0.83-2.31
		c-1.39,2.23-2.93,3.88-4.62,4.92s-3.64,1.57-5.86,1.57c-2.94,0-5.4-1.12-7.38-3.35s-2.98-5.01-2.98-8.32
		c0-3.81,1.05-6.96,3.14-9.46s4.73-3.74,7.9-3.74c1.75,0,3.46,0.45,5.12,1.34s3.3,2.23,4.91,4.03l-2.16-5.37L599.89,145.27z
		 M584.14,149.35c-0.41,0.45-0.71,0.95-0.93,1.5s-0.32,1.13-0.32,1.76c0,1.34,0.45,2.52,1.36,3.53s1.94,1.51,3.09,1.51
		c0.58,0,1.13-0.12,1.65-0.36s1.07-0.63,1.63-1.16c-0.89-1.77-1.87-3.2-2.93-4.31S585.45,149.88,584.14,149.35z"/>
	<path d="M630.17,169.17l-13.1,0.84c0.88-0.98,1.53-2,1.97-3.04s0.66-2.09,0.66-3.15c0-1.42-0.34-2.59-1.01-3.52
		s-1.52-1.38-2.53-1.38c-1.17,0-2.14,0.48-2.92,1.44s-1.16,2.18-1.16,3.64c0,1,0.16,1.9,0.47,2.71s0.78,1.5,1.41,2.1l-12.87,1.5
		l2.93-3.07l1.01-19.27l-3.84-1.92l12.23-1.34l-2.84,5.72c1.97-1.88,3.88-3.29,5.74-4.24s3.63-1.43,5.3-1.43
		c2.59,0,4.67,0.86,6.22,2.57s2.33,4,2.33,6.86c0,2.25-0.4,4.5-1.2,6.74s-1.97,4.43-3.52,6.55L630.17,169.17z"/>
	<path d="M651.66,137.77l18-2.06c1.69-0.19,2.93-0.31,3.73-0.38s1.43-0.09,1.9-0.09c4.77,0,8.46,1.2,11.09,3.59
		s3.94,5.75,3.94,10.08c0,3.89-1.2,7.05-3.59,9.47s-5.5,3.63-9.33,3.63c-2.17,0-4.16-0.32-5.98-0.97s-3.35-1.6-4.62-2.85l1.48,8.34
		l7.69,4.66l-23.63-2.23l3.3-2.34l3.42-25.64L651.66,137.77z M665.75,150.82c2.11-0.89,3.82-2.11,5.13-3.67s1.97-3.08,1.97-4.58
		c0-0.88-0.16-1.52-0.49-1.93s-0.84-0.62-1.52-0.62c-0.47,0-0.93,0.07-1.38,0.21s-0.97,0.38-1.55,0.7L665.75,150.82z"/>
	<path d="M720.89,145.46l-3.45,1.57l0.7,19.64l2.7,2.06l-10.31,1.29l1.76-7.15c-1.44,2.36-3.1,4.14-4.98,5.34s-3.93,1.8-6.15,1.8
		c-2.66,0-4.89-1.09-6.71-3.27s-2.73-4.88-2.73-8.1c0-4.11,0.98-7.49,2.93-10.14s4.41-3.97,7.38-3.97c2.25,0,4.23,0.59,5.94,1.77
		s3.15,2.94,4.32,5.29l-1.48-7.24L720.89,145.46z M704.49,150.35c-0.41,0.47-0.7,0.97-0.89,1.5s-0.28,1.15-0.28,1.85
		c0,1.38,0.45,2.53,1.35,3.46s2,1.39,3.32,1.39c0.47,0,0.95-0.1,1.45-0.29s1.01-0.48,1.52-0.86c-1-1.84-2.04-3.36-3.13-4.54
		S705.63,150.85,704.49,150.35z"/>
	<path d="M748.57,170.28l-2.58-5.2c-1.88,1.73-3.73,3.01-5.57,3.83s-3.76,1.23-5.78,1.23c-3.67,0-6.69-1.09-9.06-3.26
		s-3.55-4.95-3.55-8.32c0-1.97,0.35-3.85,1.05-5.64s1.7-3.32,2.98-4.58c1.17-1.17,2.5-2.06,3.97-2.66s3.08-0.9,4.82-0.9
		c1.72,0,3.36,0.31,4.91,0.93s3.1,1.57,4.63,2.87l0.96-4.13l1.36,10.36c-0.59-0.66-1.26-1.16-2-1.5s-1.54-0.52-2.38-0.52
		c-1.16,0-2.12,0.39-2.88,1.17s-1.15,1.77-1.15,2.95c0,1.17,0.43,2.18,1.3,3.02s1.89,1.27,3.08,1.27c0.81,0,1.59-0.21,2.33-0.62
		s1.54-1.09,2.4-2.03L748.57,170.28z"/>
	<path d="M783.43,166.29l-12.45,4.95l1.88-4.48l-11.51-9.26l3.21,10.41l2.58,1.45l-17.55,0.91l3.54-3.47l-0.7-29.09l-2.46-1.88
		l18.77-1.34l-3.75,2.7l-3.16,17.04l7.15-8.02l-1.43-2.88l14.2,1.01l-11.77,7.88L783.43,166.29z"/>
	<path d="M811.57,145.46l-3.45,1.57l0.7,19.64l2.7,2.06l-10.31,1.29l1.76-7.15c-1.44,2.36-3.1,4.14-4.98,5.34s-3.93,1.8-6.15,1.8
		c-2.66,0-4.89-1.09-6.71-3.27s-2.73-4.88-2.73-8.1c0-4.11,0.98-7.49,2.93-10.14s4.41-3.97,7.38-3.97c2.25,0,4.23,0.59,5.94,1.77
		s3.15,2.94,4.32,5.29l-1.48-7.24L811.57,145.46z M795.17,150.35c-0.41,0.47-0.7,0.97-0.89,1.5S794,153,794,153.71
		c0,1.38,0.45,2.53,1.35,3.46s2,1.39,3.32,1.39c0.47,0,0.95-0.1,1.45-0.29s1.01-0.48,1.52-0.86c-1-1.84-2.04-3.36-3.13-4.54
		S796.31,150.85,795.17,150.35z"/>
	<path d="M841.86,145.27l-3.45,1.92c1.08,3.58,1.89,6.86,2.44,9.83s0.82,5.6,0.82,7.86c0,4.86-1.2,8.64-3.6,11.33
		s-5.76,4.04-10.09,4.04c-1.81,0-3.6-0.21-5.36-0.63s-3.57-1.08-5.45-1.97l-3.35,2.74l4.85-9.98c1.39,1.58,2.86,2.77,4.39,3.59
		s3.13,1.22,4.77,1.22c1.86,0,3.46-0.77,4.8-2.3s2.02-3.34,2.02-5.44c0-0.81-0.09-1.6-0.27-2.36s-0.46-1.53-0.83-2.31
		c-1.39,2.23-2.93,3.88-4.62,4.92s-3.64,1.57-5.86,1.57c-2.94,0-5.4-1.12-7.38-3.35s-2.98-5.01-2.98-8.32
		c0-3.81,1.05-6.96,3.14-9.46s4.73-3.74,7.9-3.74c1.75,0,3.46,0.45,5.12,1.34s3.3,2.23,4.91,4.03l-2.16-5.37L841.86,145.27z
		 M826.11,149.35c-0.41,0.45-0.71,0.95-0.93,1.5s-0.32,1.13-0.32,1.76c0,1.34,0.45,2.52,1.36,3.53s1.94,1.51,3.09,1.51
		c0.58,0,1.13-0.12,1.65-0.36s1.07-0.63,1.63-1.16c-0.89-1.77-1.87-3.2-2.93-4.31S827.42,149.88,826.11,149.35z"/>
	<path d="M873.19,170.14l-2.11-3.89c-2.08,1.31-4.16,2.29-6.23,2.93s-4.23,0.96-6.45,0.96c-4.33,0-7.79-1.07-10.39-3.22
		s-3.9-5-3.9-8.54c0-1.88,0.36-3.68,1.07-5.43s1.71-3.26,3.01-4.56c1.25-1.25,2.7-2.2,4.35-2.84s3.46-0.96,5.45-0.96
		c3.8,0,6.93,0.82,9.4,2.46s3.7,3.7,3.7,6.19c0,2.5-1.14,4.59-3.41,6.28s-5.12,2.53-8.54,2.53c-0.84,0-1.63-0.07-2.37-0.2
		s-1.44-0.33-2.11-0.6c1.47,1,2.91,1.74,4.32,2.21s2.87,0.71,4.37,0.71c1.83,0,3.51-0.41,5.04-1.22s2.84-1.99,3.94-3.54
		L873.19,170.14z M849.87,153.42c0.5,0.41,1.09,0.72,1.76,0.95s1.36,0.34,2.06,0.34c1.23,0,2.24-0.36,3.02-1.08s1.17-1.64,1.17-2.77
		c0-0.55-0.08-1.04-0.23-1.48s-0.4-0.85-0.73-1.24c-1.67,0.25-3.1,0.82-4.28,1.7S850.54,151.92,849.87,153.42z"/>
</g>
<g>
	<path d="M115.34,239.05l-28.73,2.79l4.83-3.61l2.32-26.2l-8.23-6.3l28.29,2.37l-10.52,3.02l4.76,23.32L115.34,239.05z"/>
	<path d="M140.94,239.82l-13.1,0.84c0.88-0.98,1.53-2,1.97-3.04s0.66-2.09,0.66-3.15c0-1.42-0.34-2.59-1.01-3.52
		s-1.52-1.38-2.53-1.38c-1.17,0-2.14,0.48-2.92,1.44s-1.16,2.18-1.16,3.64c0,1,0.16,1.9,0.47,2.71c0.31,0.8,0.78,1.5,1.41,2.1
		l-12.87,1.5l2.93-3.07l1.01-19.27l-3.84-1.92l12.23-1.34l-2.84,5.72c1.97-1.88,3.88-3.29,5.74-4.24s3.63-1.43,5.3-1.43
		c2.59,0,4.67,0.86,6.22,2.57s2.33,4,2.33,6.86c0,2.25-0.4,4.5-1.2,6.74s-1.97,4.43-3.52,6.55L140.94,239.82z"/>
	<path d="M169.58,240.93l-2.58-5.2c-1.88,1.73-3.73,3.01-5.57,3.83s-3.76,1.23-5.78,1.23c-3.67,0-6.69-1.09-9.06-3.26
		s-3.55-4.95-3.55-8.32c0-1.97,0.35-3.85,1.05-5.64s1.7-3.32,2.98-4.58c1.17-1.17,2.5-2.06,3.97-2.66s3.08-0.9,4.82-0.9
		c1.72,0,3.36,0.31,4.91,0.93s3.1,1.57,4.63,2.87l0.96-4.13l1.36,10.36c-0.59-0.66-1.26-1.16-2-1.5s-1.54-0.52-2.38-0.52
		c-1.16,0-2.12,0.39-2.88,1.17s-1.15,1.77-1.15,2.95c0,1.17,0.43,2.18,1.3,3.02s1.89,1.27,3.08,1.27c0.81,0,1.59-0.21,2.33-0.62
		s1.54-1.09,2.4-2.03L169.58,240.93z"/>
	<path d="M188.56,240.06l-19.5,0.96l5.37-3.07l-0.42-26.93l-4.85-0.87l18.4-5.18l-4.29,33.16L188.56,240.06z"/>
	<path d="M218.98,215.33l-5.84,3.16c1.94,1.48,3.37,3.04,4.3,4.68s1.39,3.42,1.39,5.36c0,1.47-0.28,2.86-0.83,4.17
		s-1.36,2.48-2.43,3.52c-1.53,1.52-3.37,2.68-5.51,3.49c-2.14,0.81-4.45,1.22-6.91,1.22c-3.89,0-7.08-1.04-9.57-3.13
		s-3.74-4.72-3.74-7.91c0-2.14,0.47-4.19,1.42-6.15s2.38-3.86,4.3-5.71l-5.86-1.15l13.59-1.55c-1.02,1.14-1.79,2.31-2.32,3.5
		s-0.8,2.36-0.8,3.5c0,1.36,0.31,2.42,0.94,3.18s1.49,1.14,2.6,1.14c1.3,0,2.36-0.45,3.19-1.35s1.24-2.06,1.24-3.48
		c0-0.89-0.16-1.71-0.49-2.46s-0.84-1.48-1.52-2.2L218.98,215.33z"/>
	<path d="M250.48,206.5l-3.02,1.36l-0.28,29.91l2.93,3.3l-15.66-1.01c-4.02-0.27-7.25-1.5-9.7-3.69s-3.68-4.95-3.68-8.26
		c0-3.5,1.02-6.45,3.07-8.85c2.05-2.4,4.55-3.6,7.52-3.6c1.94,0,3.7,0.44,5.27,1.32c1.58,0.88,3.04,2.24,4.38,4.07l-2.65-13.24
		l-3.3-2.55L250.48,206.5z M233.63,220.77c-0.33,0.34-0.58,0.76-0.75,1.25s-0.26,1.03-0.26,1.61c0,1.38,0.49,2.55,1.48,3.53
		s2.14,1.46,3.47,1.46c0.56,0,1.08-0.1,1.56-0.3s0.96-0.53,1.46-0.98c-0.81-1.72-1.8-3.13-2.96-4.22S235.13,221.24,233.63,220.77z"
		/>
	<path d="M280.39,240.78l-2.11-3.89c-2.08,1.31-4.16,2.29-6.23,2.93s-4.23,0.96-6.45,0.96c-4.33,0-7.79-1.07-10.39-3.22
		s-3.9-5-3.9-8.54c0-1.88,0.36-3.68,1.07-5.43s1.71-3.26,3.01-4.56c1.25-1.25,2.7-2.2,4.35-2.84s3.46-0.96,5.45-0.96
		c3.8,0,6.93,0.82,9.4,2.46s3.7,3.7,3.7,6.19c0,2.5-1.14,4.59-3.41,6.28s-5.12,2.53-8.54,2.53c-0.84,0-1.63-0.07-2.37-0.2
		s-1.44-0.33-2.11-0.6c1.47,1,2.91,1.74,4.32,2.21s2.87,0.71,4.37,0.71c1.83,0,3.51-0.41,5.04-1.22s2.84-1.99,3.94-3.54
		L280.39,240.78z M257.07,224.07c0.5,0.41,1.09,0.72,1.76,0.95s1.36,0.34,2.06,0.34c1.23,0,2.24-0.36,3.02-1.08s1.17-1.64,1.17-2.77
		c0-0.55-0.08-1.04-0.23-1.48s-0.4-0.85-0.73-1.24c-1.67,0.25-3.1,0.82-4.28,1.7S257.74,222.57,257.07,224.07z"/>
	<path d="M306.92,215.24l-4.45,8.48c-1.22-1.09-2.38-1.9-3.48-2.43s-2.18-0.79-3.25-0.79c-0.97,0-1.72,0.22-2.26,0.66
		s-0.81,1.04-0.81,1.8c0,1.39,2.12,2.23,6.35,2.51c0.42,0.03,0.75,0.05,0.98,0.07c3.45,0.23,5.96,0.87,7.51,1.9s2.33,2.58,2.33,4.64
		c0,2.56-1.26,4.65-3.79,6.27s-5.84,2.43-9.95,2.43c-1.86,0-3.74-0.29-5.64-0.87s-3.89-1.46-5.96-2.65l-3.89,3.45l3.02-9.45
		c1.53,1.36,3.01,2.39,4.44,3.08s2.75,1.04,3.95,1.04c1,0,1.8-0.26,2.39-0.79s0.89-1.24,0.89-2.14c0-0.94-0.31-1.63-0.94-2.07
		s-2.13-0.86-4.5-1.23c-2.66-0.44-4.57-1.13-5.73-2.06s-1.75-2.25-1.75-3.94c0-2.47,1.01-4.43,3.04-5.88s4.75-2.18,8.19-2.18
		c1.94,0,3.6,0.23,4.99,0.7s2.69,1.23,3.89,2.27L306.92,215.24z"/>
	<path d="M361.34,215.33l-5.84,3.16c1.94,1.48,3.37,3.04,4.3,4.68s1.39,3.42,1.39,5.36c0,1.47-0.28,2.86-0.83,4.17
		s-1.36,2.48-2.43,3.52c-1.53,1.52-3.37,2.68-5.51,3.49s-4.45,1.22-6.91,1.22c-3.89,0-7.08-1.04-9.57-3.13s-3.74-4.72-3.74-7.91
		c0-2.14,0.47-4.19,1.42-6.15s2.38-3.86,4.3-5.71l-5.86-1.15l13.59-1.55c-1.02,1.14-1.79,2.31-2.32,3.5s-0.8,2.36-0.8,3.5
		c0,1.36,0.31,2.42,0.94,3.18s1.49,1.14,2.6,1.14c1.3,0,2.36-0.45,3.19-1.35s1.24-2.06,1.24-3.48c0-0.89-0.16-1.71-0.49-2.46
		s-0.84-1.48-1.52-2.2L361.34,215.33z"/>
	<path d="M369.8,235.84l3.75,12.8l3.26,1.5l-14.25,1.01l2.11-2.41l1.15-30.84l-3.21-1.5l11.72-1.15l-2.65,5.86
		c1.53-1.94,3.18-3.4,4.93-4.38s3.61-1.48,5.54-1.48c2.73,0,5.02,1.06,6.84,3.19s2.74,4.79,2.74,7.99c0,2.2-0.37,4.27-1.11,6.2
		s-1.79,3.59-3.15,4.98c-1.05,1.08-2.23,1.89-3.55,2.45s-2.73,0.83-4.23,0.83c-1.86,0-3.57-0.4-5.14-1.21S371.4,237.59,369.8,235.84
		z M372.31,227.78c0.38,0.47,0.79,0.81,1.23,1.02s0.98,0.32,1.61,0.32c1.22,0,2.23-0.46,3.02-1.39s1.2-2.11,1.2-3.55
		c0-0.64-0.1-1.23-0.29-1.76s-0.5-1.05-0.9-1.55c-1.53,0.98-2.79,2.05-3.76,3.21S372.73,226.46,372.31,227.78z"/>
	<path d="M442.63,240.93l-3.49-3.94c-1.7,1.33-3.42,2.32-5.16,2.96s-3.55,0.97-5.46,0.97c-2.97,0-5.34-0.86-7.13-2.58
		s-2.67-4.02-2.67-6.89c0-0.86,0.07-1.88,0.22-3.07s0.39-2.72,0.74-4.59l-2.72,0.33l-2.51,4.27l-0.87-14.3l3.21,3.21l4.48-0.14
		c0.42-1.55,0.86-3.04,1.32-4.49s0.95-2.85,1.46-4.21l-6-2.3l20.53-0.91l-5.81,3.66c-0.31,1.44-0.6,2.8-0.86,4.08
		s-0.48,2.52-0.67,3.73l5.37-0.23l3.66-4.5l-0.59,13.24l-3.3-3.84l-5.86,0.82c-0.16,1.27-0.27,2.41-0.35,3.45s-0.12,1.93-0.12,2.7
		c0,1.73,0.27,2.98,0.82,3.75s1.44,1.15,2.67,1.15c1.19,0,2.41-0.35,3.68-1.05s2.49-1.71,3.68-3.02L442.63,240.93z"/>
	<path d="M470.98,227.92c0,1.28-0.16,2.48-0.49,3.59s-0.82,2.15-1.48,3.12c-1.3,1.92-2.98,3.44-5.05,4.55s-4.26,1.66-6.57,1.66
		c-3.94,0-7.18-1.18-9.74-3.55s-3.83-5.36-3.83-8.99c0-3.84,1.3-6.99,3.9-9.43s5.96-3.67,10.07-3.67c3.88,0,7.04,1.19,9.5,3.56
		S470.98,224.18,470.98,227.92z M449.19,224.26c0.48,0.59,1.03,1.03,1.64,1.31c0.61,0.28,1.33,0.42,2.16,0.42
		c1.42,0,2.63-0.44,3.61-1.31s1.48-1.95,1.48-3.21c0-0.5-0.08-0.95-0.23-1.36s-0.4-0.77-0.73-1.08c-1.91,0.53-3.52,1.23-4.83,2.1
		S449.94,223.04,449.19,224.26z"/>
	<path d="M533.09,215.05l-0.23,18.42l-1.97-6.19l-6.91,1.69l1.88,8.84l4.57,2.25l-21.75,1.01l3.98-3.8l1.1-7.38l-21.98,1.48
		l17.95-24.09l21.26-1.73l-3.77,2.32l-2.79,13.97l6.82-2.84L533.09,215.05z M514.34,222.1l-0.26-8.41l-8.98,10.62L514.34,222.1z"/>
	<path d="M554.47,208.42l18-2.06c1.69-0.19,2.93-0.31,3.73-0.38s1.43-0.09,1.9-0.09c4.77,0,8.46,1.2,11.09,3.59
		s3.94,5.75,3.94,10.08c0,3.89-1.2,7.05-3.59,9.47s-5.5,3.63-9.33,3.63c-2.17,0-4.16-0.32-5.98-0.97s-3.35-1.6-4.62-2.85l1.48,8.34
		l7.69,4.66l-23.63-2.23l3.3-2.34l3.42-25.64L554.47,208.42z M568.55,221.47c2.11-0.89,3.82-2.11,5.13-3.67s1.97-3.08,1.97-4.58
		c0-0.88-0.16-1.52-0.49-1.93s-0.84-0.62-1.52-0.62c-0.47,0-0.93,0.07-1.38,0.21s-0.97,0.38-1.55,0.7L568.55,221.47z"/>
	<path d="M623.7,216.1l-3.45,1.57l0.7,19.64l2.7,2.06l-10.31,1.29l1.76-7.15c-1.44,2.36-3.1,4.14-4.98,5.34s-3.93,1.8-6.15,1.8
		c-2.66,0-4.89-1.09-6.71-3.27s-2.73-4.88-2.73-8.1c0-4.11,0.98-7.49,2.93-10.14s4.41-3.97,7.38-3.97c2.25,0,4.23,0.59,5.94,1.77
		s3.15,2.94,4.32,5.29l-1.48-7.24L623.7,216.1z M607.3,221c-0.41,0.47-0.7,0.97-0.89,1.5s-0.28,1.15-0.28,1.85
		c0,1.38,0.45,2.53,1.35,3.46s2,1.39,3.32,1.39c0.47,0,0.95-0.1,1.45-0.29s1.01-0.48,1.52-0.86c-1-1.84-2.04-3.36-3.13-4.54
		S608.44,221.5,607.3,221z"/>
	<path d="M653.98,215.92l-3.45,1.92c1.08,3.58,1.89,6.86,2.44,9.83s0.82,5.6,0.82,7.86c0,4.86-1.2,8.64-3.6,11.33
		s-5.76,4.04-10.09,4.04c-1.81,0-3.6-0.21-5.36-0.63s-3.57-1.08-5.45-1.97l-3.35,2.74l4.85-9.98c1.39,1.58,2.86,2.77,4.39,3.59
		s3.13,1.22,4.77,1.22c1.86,0,3.46-0.77,4.8-2.3s2.02-3.34,2.02-5.44c0-0.81-0.09-1.6-0.27-2.36s-0.46-1.53-0.83-2.31
		c-1.39,2.23-2.93,3.88-4.62,4.92s-3.64,1.57-5.86,1.57c-2.94,0-5.4-1.12-7.38-3.35s-2.98-5.01-2.98-8.32
		c0-3.81,1.05-6.96,3.14-9.46s4.73-3.74,7.9-3.74c1.75,0,3.46,0.45,5.12,1.34s3.3,2.23,4.91,4.03l-2.16-5.37L653.98,215.92z
		 M638.23,220c-0.41,0.45-0.71,0.95-0.93,1.5s-0.32,1.13-0.32,1.76c0,1.34,0.45,2.52,1.36,3.53s1.94,1.51,3.09,1.51
		c0.58,0,1.13-0.12,1.65-0.36s1.07-0.63,1.63-1.16c-0.89-1.77-1.87-3.2-2.93-4.31S639.55,220.53,638.23,220z"/>
	<path d="M685.32,240.78l-2.11-3.89c-2.08,1.31-4.16,2.29-6.23,2.93s-4.23,0.96-6.45,0.96c-4.33,0-7.79-1.07-10.39-3.22
		s-3.9-5-3.9-8.54c0-1.88,0.36-3.68,1.07-5.43s1.71-3.26,3.01-4.56c1.25-1.25,2.7-2.2,4.35-2.84s3.46-0.96,5.45-0.96
		c3.8,0,6.93,0.82,9.4,2.46s3.7,3.7,3.7,6.19c0,2.5-1.14,4.59-3.41,6.28s-5.12,2.53-8.54,2.53c-0.84,0-1.63-0.07-2.37-0.2
		s-1.44-0.33-2.11-0.6c1.47,1,2.91,1.74,4.32,2.21s2.87,0.71,4.37,0.71c1.83,0,3.51-0.41,5.04-1.22s2.84-1.99,3.94-3.54
		L685.32,240.78z M662,224.07c0.5,0.41,1.09,0.72,1.76,0.95s1.36,0.34,2.06,0.34c1.23,0,2.24-0.36,3.02-1.08s1.17-1.64,1.17-2.77
		c0-0.55-0.08-1.04-0.23-1.48s-0.4-0.85-0.73-1.24c-1.67,0.25-3.1,0.82-4.28,1.7S662.67,222.57,662,224.07z"/>
	<path d="M711.85,215.24l-4.45,8.48c-1.22-1.09-2.38-1.9-3.48-2.43s-2.18-0.79-3.25-0.79c-0.97,0-1.72,0.22-2.26,0.66
		s-0.81,1.04-0.81,1.8c0,1.39,2.12,2.23,6.35,2.51c0.42,0.03,0.75,0.05,0.98,0.07c3.45,0.23,5.96,0.87,7.51,1.9s2.33,2.58,2.33,4.64
		c0,2.56-1.26,4.65-3.79,6.27s-5.84,2.43-9.95,2.43c-1.86,0-3.74-0.29-5.64-0.87s-3.89-1.46-5.96-2.65l-3.89,3.45l3.02-9.45
		c1.53,1.36,3.01,2.39,4.44,3.08s2.75,1.04,3.95,1.04c1,0,1.8-0.26,2.39-0.79s0.89-1.24,0.89-2.14c0-0.94-0.31-1.63-0.94-2.07
		s-2.13-0.86-4.5-1.23c-2.66-0.44-4.57-1.13-5.73-2.06s-1.75-2.25-1.75-3.94c0-2.47,1.01-4.43,3.04-5.88s4.75-2.18,8.19-2.18
		c1.94,0,3.6,0.23,4.99,0.7s2.69,1.23,3.89,2.27L711.85,215.24z"/>
	<path d="M720.38,251.47l2.93-11.37c-1.63-0.28-2.92-0.77-3.88-1.45s-1.44-1.47-1.44-2.34c0-1.03,0.64-1.93,1.93-2.7
		s2.87-1.15,4.75-1.15c1.84,0,3.41,0.39,4.71,1.16s1.95,1.67,1.95,2.68c0,0.39-0.11,0.82-0.33,1.3s-0.55,1-1.01,1.58L720.38,251.47z
		"/>
	<path d="M115.34,296.65l-28.73,2.79l4.83-3.61l2.32-26.2l-8.23-6.3l28.29,2.37l-10.52,3.02l4.76,23.32L115.34,296.65z"/>
	<path d="M150.15,297.66l-11.95,0.91c1.22-1.27,2.13-2.51,2.72-3.73s0.89-2.45,0.89-3.68c0-1.2-0.27-2.18-0.8-2.92
		s-1.23-1.11-2.09-1.11c-0.98,0-1.86,0.49-2.61,1.48s-1.14,2.14-1.14,3.47c0,0.73,0.11,1.41,0.32,2.03s0.54,1.22,0.97,1.82
		l-9.16-0.52c0.44-0.56,0.77-1.12,0.98-1.66c0.22-0.55,0.33-1.1,0.33-1.66c0-1.25-0.29-2.28-0.87-3.09s-1.3-1.22-2.16-1.22
		c-0.94,0-1.75,0.47-2.44,1.42s-1.03,2.09-1.03,3.43c0,0.98,0.18,1.89,0.54,2.72s0.91,1.63,1.66,2.41l-12.47,0.82l3.94-3.07
		l-0.49-20.02l-3.3-1.41l10.57-1.1l-1.31,5.48c1.08-1.75,2.29-3.09,3.63-4.03s2.71-1.41,4.1-1.41c1.33,0,2.52,0.57,3.59,1.71
		s1.77,2.63,2.13,4.48c0.89-2.03,1.99-3.57,3.29-4.62s2.78-1.57,4.42-1.57c2.17,0,3.99,1.02,5.45,3.05s2.19,4.59,2.19,7.66
		c0,2.09-0.34,4.13-1.02,6.12s-1.73,4.01-3.15,6.07L150.15,297.66z"/>
	<path d="M181.6,273.71l-3.45,1.57l0.7,19.64l2.7,2.06l-10.31,1.29l1.76-7.15c-1.44,2.36-3.1,4.14-4.98,5.34s-3.93,1.8-6.15,1.8
		c-2.66,0-4.89-1.09-6.71-3.27s-2.73-4.88-2.73-8.1c0-4.11,0.98-7.49,2.93-10.14s4.41-3.97,7.38-3.97c2.25,0,4.23,0.59,5.94,1.77
		s3.15,2.94,4.32,5.29l-1.48-7.24L181.6,273.71z M165.2,278.6c-0.41,0.47-0.7,0.97-0.89,1.5s-0.28,1.15-0.28,1.85
		c0,1.38,0.45,2.53,1.35,3.46s2,1.39,3.32,1.39c0.47,0,0.95-0.1,1.45-0.29s1.01-0.48,1.52-0.86c-1-1.84-2.04-3.36-3.13-4.54
		S166.34,279.1,165.2,278.6z"/>
	<path d="M211.88,273.52l-3.45,1.92c1.08,3.58,1.89,6.86,2.44,9.83s0.82,5.6,0.82,7.86c0,4.86-1.2,8.64-3.6,11.33
		s-5.76,4.04-10.09,4.04c-1.81,0-3.6-0.21-5.36-0.63s-3.57-1.08-5.45-1.97l-3.35,2.74l4.85-9.98c1.39,1.58,2.86,2.77,4.39,3.59
		s3.13,1.22,4.77,1.22c1.86,0,3.46-0.77,4.8-2.3s2.02-3.34,2.02-5.44c0-0.81-0.09-1.6-0.27-2.36s-0.46-1.53-0.83-2.31
		c-1.39,2.23-2.93,3.88-4.62,4.92s-3.64,1.57-5.86,1.57c-2.94,0-5.4-1.12-7.38-3.35s-2.98-5.01-2.98-8.32
		c0-3.81,1.05-6.96,3.14-9.46s4.73-3.74,7.9-3.74c1.75,0,3.46,0.45,5.12,1.34s3.3,2.23,4.91,4.03l-2.16-5.37L211.88,273.52z
		 M196.13,277.6c-0.41,0.45-0.71,0.95-0.93,1.5s-0.32,1.13-0.32,1.76c0,1.34,0.45,2.52,1.36,3.53s1.94,1.51,3.09,1.51
		c0.58,0,1.13-0.12,1.65-0.36s1.07-0.63,1.63-1.16c-0.89-1.77-1.87-3.2-2.93-4.31S197.45,278.13,196.13,277.6z"/>
	<path d="M243.22,298.38l-2.11-3.89c-2.08,1.31-4.16,2.29-6.23,2.93s-4.23,0.96-6.45,0.96c-4.33,0-7.79-1.07-10.39-3.22
		s-3.9-5-3.9-8.54c0-1.88,0.36-3.68,1.07-5.43s1.71-3.26,3.01-4.56c1.25-1.25,2.7-2.2,4.35-2.84s3.46-0.96,5.45-0.96
		c3.8,0,6.93,0.82,9.4,2.46c2.47,1.64,3.7,3.7,3.7,6.19c0,2.5-1.14,4.59-3.41,6.28s-5.12,2.53-8.54,2.53c-0.84,0-1.63-0.07-2.37-0.2
		s-1.44-0.33-2.11-0.6c1.47,1,2.91,1.74,4.32,2.21s2.87,0.71,4.37,0.71c1.83,0,3.51-0.41,5.04-1.22s2.84-1.99,3.94-3.54
		L243.22,298.38z M219.9,281.67c0.5,0.41,1.09,0.72,1.76,0.95s1.36,0.34,2.06,0.34c1.23,0,2.24-0.36,3.02-1.08s1.17-1.64,1.17-2.77
		c0-0.55-0.08-1.04-0.23-1.48s-0.4-0.85-0.73-1.24c-1.67,0.25-3.1,0.82-4.28,1.7S220.57,280.17,219.9,281.67z"/>
	<path d="M269.75,272.84l-4.45,8.48c-1.22-1.09-2.38-1.9-3.48-2.43s-2.18-0.79-3.25-0.79c-0.97,0-1.72,0.22-2.26,0.66
		s-0.81,1.04-0.81,1.8c0,1.39,2.12,2.23,6.35,2.51c0.42,0.03,0.75,0.05,0.98,0.07c3.45,0.23,5.96,0.87,7.51,1.9s2.33,2.58,2.33,4.64
		c0,2.56-1.26,4.65-3.79,6.27s-5.84,2.43-9.95,2.43c-1.86,0-3.74-0.29-5.64-0.87s-3.89-1.46-5.96-2.65l-3.89,3.45l3.02-9.45
		c1.53,1.36,3.01,2.39,4.44,3.08s2.75,1.04,3.95,1.04c1,0,1.8-0.26,2.39-0.79s0.89-1.24,0.89-2.14c0-0.94-0.31-1.63-0.94-2.07
		s-2.13-0.86-4.5-1.23c-2.66-0.44-4.57-1.13-5.73-2.06s-1.75-2.25-1.75-3.94c0-2.47,1.01-4.43,3.04-5.88s4.75-2.18,8.19-2.18
		c1.94,0,3.6,0.23,4.99,0.7s2.69,1.23,3.89,2.27L269.75,272.84z"/>
	<path d="M278.28,309.07l2.93-11.37c-1.63-0.28-2.92-0.77-3.88-1.45s-1.44-1.47-1.44-2.34c0-1.03,0.64-1.93,1.93-2.7
		s2.87-1.15,4.75-1.15c1.84,0,3.41,0.39,4.71,1.16s1.95,1.67,1.95,2.68c0,0.39-0.11,0.82-0.33,1.3s-0.55,1-1.01,1.58L278.28,309.07z
		"/>
	<path d="M354.62,277.69l-3.47,3.3l1.41,12.19c-2.59,1.92-5.28,3.36-8.06,4.3s-5.7,1.42-8.74,1.42c-2.48,0-4.89-0.36-7.22-1.08
		s-4.47-1.77-6.42-3.14c-2.56-1.83-4.54-4.01-5.93-6.55s-2.09-5.24-2.09-8.1c0-2.67,0.62-5.11,1.86-7.32s3.04-4.07,5.38-5.59
		c2.19-1.42,4.61-2.49,7.28-3.2s5.57-1.07,8.71-1.07c2.33,0,4.54,0.28,6.62,0.83s3.98,1.36,5.68,2.43l1.15-3.16l1.83,12.73
		c-2.02-2.41-4.06-4.18-6.13-5.31s-4.29-1.7-6.64-1.7c-3.19,0-5.75,1.05-7.7,3.16s-2.92,4.91-2.92,8.39c0,3.09,0.9,5.61,2.7,7.54
		s4.13,2.89,7.01,2.89c0.06,0,0.26-0.01,0.59-0.04s0.61-0.04,0.84-0.06l2.06-6.82l-4.95,0.56l-1.52,2.88l-0.63-14.34l2.41,3.35
		L354.62,277.69z"/>
	<path d="M384.41,273.12L380.7,288c-1.09-1.34-2.28-2.34-3.56-3s-2.68-0.98-4.2-0.98c-1.94,0-3.53,0.63-4.77,1.89
		s-1.86,2.86-1.86,4.79c0,1.22,0.29,2.36,0.87,3.43s1.52,2.2,2.84,3.39l-15.02,0.8l2.67-2.2l1.31-20.72l-3.7-1.55l11.86-0.63
		l-1.97,5.34c1.77-1.84,3.45-3.21,5.05-4.1s3.18-1.34,4.75-1.34c1.27,0,2.43,0.26,3.49,0.79s1.96,1.27,2.7,2.24L384.41,273.12z"/>
	<path d="M413.21,273.71l-3.45,1.57l0.7,19.64l2.7,2.06l-10.31,1.29l1.76-7.15c-1.44,2.36-3.1,4.14-4.98,5.34s-3.93,1.8-6.15,1.8
		c-2.66,0-4.89-1.09-6.71-3.27s-2.73-4.88-2.73-8.1c0-4.11,0.98-7.49,2.93-10.14s4.41-3.97,7.38-3.97c2.25,0,4.23,0.59,5.94,1.77
		s3.15,2.94,4.32,5.29l-1.48-7.24L413.21,273.71z M396.8,278.6c-0.41,0.47-0.7,0.97-0.89,1.5s-0.28,1.15-0.28,1.85
		c0,1.38,0.45,2.53,1.35,3.46s2,1.39,3.32,1.39c0.47,0,0.95-0.1,1.45-0.29s1.01-0.48,1.52-0.86c-1-1.84-2.04-3.36-3.13-4.54
		S397.95,279.1,396.8,278.6z"/>
	<path d="M420.73,293.44l3.75,12.8l3.26,1.5l-14.25,1.01l2.11-2.41l1.15-30.84l-3.21-1.5l11.72-1.15l-2.65,5.86
		c1.53-1.94,3.18-3.4,4.93-4.38s3.61-1.48,5.54-1.48c2.73,0,5.02,1.06,6.84,3.19s2.74,4.79,2.74,7.99c0,2.2-0.37,4.27-1.11,6.2
		s-1.79,3.59-3.15,4.98c-1.05,1.08-2.23,1.89-3.55,2.45s-2.73,0.83-4.23,0.83c-1.86,0-3.57-0.4-5.14-1.21
		S422.33,295.19,420.73,293.44z M423.24,285.38c0.38,0.47,0.79,0.81,1.23,1.02s0.98,0.32,1.61,0.32c1.22,0,2.23-0.46,3.02-1.39
		s1.2-2.11,1.2-3.55c0-0.64-0.1-1.23-0.29-1.76s-0.5-1.05-0.9-1.55c-1.53,0.98-2.79,2.05-3.76,3.21S423.66,284.06,423.24,285.38z"/>
	<path d="M455.59,265.15l-4.27,14.41c1.69-2.2,3.47-3.84,5.36-4.92s3.9-1.62,6.06-1.62c2.83,0,5.2,0.95,7.11,2.86
		s2.87,4.28,2.87,7.13c0,1.98-0.46,4.02-1.39,6.12s-2.32,4.23-4.16,6.42l5.46,1.83l-13.97,1.2c1.05-1.03,1.84-2.14,2.37-3.32
		s0.8-2.41,0.8-3.69c0-1.3-0.3-2.33-0.9-3.09s-1.42-1.15-2.45-1.15c-1.23,0-2.28,0.52-3.13,1.57s-1.28,2.35-1.28,3.91
		c0,0.83,0.11,1.61,0.34,2.36s0.57,1.43,1.04,2.05l-12.09,1.41l3.63-3.07l-0.42-30.14l-3.12-1.55l16.5-1.05L455.59,265.15z"/>
	<path d="M496.48,297.56l-24.28,0.75l5.23-2.11l1.64-19.97l-6.4-2.53l23.39-0.87l-7.5,2.65l2.93,20.53L496.48,297.56z
		 M493.88,267.42c0,1.06-0.82,1.94-2.46,2.64c-1.64,0.7-3.78,1.04-6.42,1.04s-4.79-0.35-6.43-1.04s-2.47-1.57-2.47-2.64
		s0.83-1.95,2.48-2.65s3.8-1.05,6.42-1.05c2.64,0,4.78,0.35,6.42,1.05C493.06,265.48,493.88,266.36,493.88,267.42z"/>
	<path d="M522.59,298.53l-2.58-5.2c-1.88,1.73-3.73,3.01-5.57,3.83s-3.76,1.23-5.78,1.23c-3.67,0-6.69-1.09-9.06-3.26
		s-3.55-4.95-3.55-8.32c0-1.97,0.35-3.85,1.05-5.64s1.7-3.32,2.98-4.58c1.17-1.17,2.5-2.06,3.97-2.66s3.08-0.9,4.82-0.9
		c1.72,0,3.36,0.31,4.91,0.93s3.1,1.57,4.63,2.87l0.96-4.13l1.36,10.36c-0.59-0.66-1.26-1.16-2-1.5s-1.54-0.52-2.38-0.52
		c-1.16,0-2.12,0.39-2.88,1.17s-1.15,1.77-1.15,2.95c0,1.17,0.43,2.18,1.3,3.02s1.89,1.27,3.08,1.27c0.81,0,1.59-0.21,2.33-0.62
		s1.54-1.09,2.4-2.03L522.59,298.53z"/>
	<path d="M549.15,272.84l-4.45,8.48c-1.22-1.09-2.38-1.9-3.48-2.43s-2.18-0.79-3.25-0.79c-0.97,0-1.72,0.22-2.26,0.66
		s-0.81,1.04-0.81,1.8c0,1.39,2.12,2.23,6.35,2.51c0.42,0.03,0.75,0.05,0.98,0.07c3.45,0.23,5.96,0.87,7.51,1.9s2.33,2.58,2.33,4.64
		c0,2.56-1.26,4.65-3.79,6.27s-5.84,2.43-9.95,2.43c-1.86,0-3.74-0.29-5.64-0.87s-3.89-1.46-5.96-2.65l-3.89,3.45l3.02-9.45
		c1.53,1.36,3.01,2.39,4.44,3.08s2.75,1.04,3.95,1.04c1,0,1.8-0.26,2.39-0.79s0.89-1.24,0.89-2.14c0-0.94-0.31-1.63-0.94-2.07
		s-2.13-0.86-4.5-1.23c-2.66-0.44-4.57-1.13-5.73-2.06s-1.75-2.25-1.75-3.94c0-2.47,1.01-4.43,3.04-5.88s4.75-2.18,8.19-2.18
		c1.94,0,3.6,0.23,4.99,0.7s2.69,1.23,3.89,2.27L549.15,272.84z"/>
	<path d="M557.68,309.07l2.93-11.37c-1.63-0.28-2.92-0.77-3.88-1.45s-1.44-1.47-1.44-2.34c0-1.03,0.64-1.93,1.93-2.7
		s2.87-1.15,4.75-1.15c1.84,0,3.41,0.39,4.71,1.16s1.95,1.67,1.95,2.68c0,0.39-0.11,0.82-0.33,1.3s-0.55,1-1.01,1.58L557.68,309.07z
		"/>
	<path d="M633.85,263.91l-5.37,3.07l-11.58,28.57l5.2,3.54l-22.71-1.24l4.57-3.07l-10.05-27.8l-4.22-1.43l23.44-2.51l-3.52,2.98
		l2.51,22.99l5.79-21.8l-2.81-2.02L633.85,263.91z"/>
	<path d="M653.73,297.56l-24.28,0.75l5.23-2.11l1.64-19.97l-6.4-2.53l23.39-0.87l-7.5,2.65l2.93,20.53L653.73,297.56z
		 M651.13,267.42c0,1.06-0.82,1.94-2.46,2.64s-3.78,1.04-6.42,1.04s-4.79-0.35-6.43-1.04s-2.47-1.57-2.47-2.64s0.83-1.95,2.48-2.65
		s3.8-1.05,6.42-1.05c2.64,0,4.78,0.35,6.42,1.05S651.13,266.36,651.13,267.42z"/>
	<path d="M682.72,264.1l-3.02,1.36l-0.28,29.91l2.93,3.3l-15.66-1.01c-4.02-0.27-7.25-1.5-9.7-3.69s-3.68-4.95-3.68-8.26
		c0-3.5,1.02-6.45,3.07-8.85s4.55-3.6,7.52-3.6c1.94,0,3.7,0.44,5.27,1.32s3.04,2.24,4.38,4.07l-2.65-13.24l-3.3-2.55L682.72,264.1z
		 M665.87,278.37c-0.33,0.34-0.58,0.76-0.75,1.25s-0.26,1.03-0.26,1.61c0,1.38,0.49,2.55,1.48,3.53s2.14,1.46,3.47,1.46
		c0.56,0,1.08-0.1,1.56-0.3s0.96-0.53,1.46-0.98c-0.81-1.72-1.8-3.13-2.96-4.22S667.37,278.84,665.87,278.37z"/>
	<path d="M712.63,298.38l-2.11-3.89c-2.08,1.31-4.16,2.29-6.23,2.93s-4.23,0.96-6.45,0.96c-4.33,0-7.79-1.07-10.39-3.22
		s-3.9-5-3.9-8.54c0-1.88,0.36-3.68,1.07-5.43s1.71-3.26,3.01-4.56c1.25-1.25,2.7-2.2,4.35-2.84s3.46-0.96,5.45-0.96
		c3.8,0,6.93,0.82,9.4,2.46s3.7,3.7,3.7,6.19c0,2.5-1.14,4.59-3.41,6.28s-5.12,2.53-8.54,2.53c-0.84,0-1.63-0.07-2.37-0.2
		s-1.44-0.33-2.11-0.6c1.47,1,2.91,1.74,4.32,2.21s2.87,0.71,4.37,0.71c1.83,0,3.51-0.41,5.04-1.22s2.84-1.99,3.94-3.54
		L712.63,298.38z M689.3,281.67c0.5,0.41,1.09,0.72,1.76,0.95s1.36,0.34,2.06,0.34c1.23,0,2.24-0.36,3.02-1.08s1.17-1.64,1.17-2.77
		c0-0.55-0.08-1.04-0.23-1.48s-0.4-0.85-0.73-1.24c-1.67,0.25-3.1,0.82-4.28,1.7S689.98,280.17,689.3,281.67z"/>
	<path d="M741.03,285.52c0,1.28-0.16,2.48-0.49,3.59s-0.82,2.15-1.48,3.12c-1.3,1.92-2.98,3.44-5.05,4.55s-4.26,1.66-6.57,1.66
		c-3.94,0-7.18-1.18-9.74-3.55s-3.83-5.36-3.83-8.99c0-3.84,1.3-6.99,3.9-9.43s5.96-3.67,10.07-3.67c3.88,0,7.04,1.19,9.5,3.56
		S741.03,281.78,741.03,285.52z M719.23,281.86c0.48,0.59,1.03,1.03,1.64,1.31s1.33,0.42,2.16,0.42c1.42,0,2.63-0.44,3.61-1.31
		s1.48-1.95,1.48-3.21c0-0.5-0.08-0.95-0.23-1.36s-0.4-0.77-0.73-1.08c-1.91,0.53-3.52,1.23-4.83,2.1S719.98,280.64,719.23,281.86z"
		/>
	<path d="M747.27,309.07l2.93-11.37c-1.63-0.28-2.92-0.77-3.88-1.45s-1.44-1.47-1.44-2.34c0-1.03,0.64-1.93,1.93-2.7
		s2.87-1.15,4.75-1.15c1.84,0,3.41,0.39,4.71,1.16s1.95,1.67,1.95,2.68c0,0.39-0.11,0.82-0.33,1.3s-0.55,1-1.01,1.58L747.27,309.07z
		"/>
	<path d="M116.07,331.3l-3.45,1.57l0.7,19.64l2.7,2.06l-10.31,1.29l1.76-7.15c-1.44,2.36-3.1,4.14-4.98,5.34s-3.93,1.8-6.15,1.8
		c-2.66,0-4.89-1.09-6.71-3.27s-2.73-4.88-2.73-8.1c0-4.11,0.98-7.49,2.93-10.14s4.41-3.97,7.38-3.97c2.25,0,4.23,0.59,5.94,1.77
		s3.15,2.94,4.32,5.29l-1.48-7.24L116.07,331.3z M99.66,336.2c-0.41,0.47-0.7,0.97-0.89,1.5s-0.28,1.15-0.28,1.85
		c0,1.38,0.45,2.53,1.35,3.46s2,1.39,3.32,1.39c0.47,0,0.95-0.1,1.45-0.29s1.01-0.48,1.52-0.86c-1-1.84-2.04-3.36-3.13-4.54
		S100.8,336.7,99.66,336.2z"/>
	<path d="M145.25,355.02l-13.1,0.84c0.88-0.98,1.53-2,1.97-3.04s0.66-2.09,0.66-3.15c0-1.42-0.34-2.59-1.01-3.52
		c-0.67-0.92-1.52-1.38-2.53-1.38c-1.17,0-2.14,0.48-2.92,1.44s-1.16,2.18-1.16,3.64c0,1,0.16,1.9,0.47,2.71
		c0.31,0.8,0.78,1.5,1.41,2.1l-12.87,1.5l2.93-3.07l1.01-19.27l-3.84-1.92l12.23-1.34l-2.84,5.72c1.97-1.88,3.88-3.29,5.74-4.24
		s3.63-1.43,5.3-1.43c2.59,0,4.67,0.86,6.22,2.57s2.33,4,2.33,6.86c0,2.25-0.4,4.5-1.2,6.74s-1.97,4.43-3.52,6.55L145.25,355.02z"/>
	<path d="M176.77,321.7l-3.02,1.36l-0.28,29.91l2.93,3.3l-15.66-1.01c-4.02-0.27-7.25-1.5-9.7-3.69s-3.68-4.95-3.68-8.26
		c0-3.5,1.02-6.45,3.07-8.85s4.55-3.6,7.52-3.6c1.94,0,3.7,0.44,5.27,1.32s3.04,2.24,4.38,4.07l-2.65-13.24l-3.3-2.55L176.77,321.7z
		 M159.92,335.97c-0.33,0.34-0.58,0.76-0.75,1.25s-0.26,1.03-0.26,1.61c0,1.38,0.49,2.55,1.48,3.53s2.14,1.46,3.47,1.46
		c0.56,0,1.08-0.1,1.56-0.3s0.96-0.53,1.46-0.98c-0.81-1.72-1.8-3.13-2.96-4.22S161.42,336.44,159.92,335.97z"/>
	<path d="M201.73,319.73l-22.03,41.25l-2.25-2.32l19.1-43.01L201.73,319.73z"/>
	<path d="M230.73,343.12c0,1.28-0.16,2.48-0.49,3.59c-0.33,1.11-0.82,2.15-1.48,3.12c-1.3,1.92-2.98,3.44-5.05,4.55
		s-4.26,1.66-6.57,1.66c-3.94,0-7.18-1.18-9.74-3.55s-3.83-5.36-3.83-8.99c0-3.84,1.3-6.99,3.9-9.43s5.96-3.67,10.07-3.67
		c3.88,0,7.04,1.19,9.5,3.56S230.73,339.38,230.73,343.12z M208.93,339.46c0.48,0.59,1.03,1.03,1.64,1.31s1.33,0.42,2.16,0.42
		c1.42,0,2.63-0.44,3.61-1.31s1.48-1.95,1.48-3.21c0-0.5-0.08-0.95-0.23-1.36s-0.4-0.77-0.73-1.08c-1.91,0.53-3.52,1.23-4.83,2.1
		S209.68,338.24,208.93,339.46z"/>
	<path d="M260.68,330.72l-3.7,14.88c-1.09-1.34-2.28-2.34-3.56-3s-2.68-0.98-4.2-0.98c-1.94,0-3.53,0.63-4.77,1.89
		s-1.86,2.86-1.86,4.79c0,1.22,0.29,2.36,0.87,3.43s1.52,2.2,2.84,3.39l-15.02,0.8l2.67-2.2l1.31-20.72l-3.7-1.55l11.86-0.63
		l-1.97,5.34c1.77-1.84,3.45-3.21,5.05-4.1s3.18-1.34,4.75-1.34c1.27,0,2.43,0.26,3.49,0.79s1.96,1.27,2.7,2.24L260.68,330.72z"/>
	<path d="M323.94,350.36l-20.44,6.33l5.23-7.01l-1.48-5.18l-7.59,0.59l-2.2,6.05l3.3,2.58l-22.22,1.59l5.41-4.03l7.2-27.98
		l-4.08-2.65l27.56,0.91l-6.42,2.3l11.27,25.17L323.94,350.36z M305.02,336.91l-3.26-9.35l-3.16,11.53L305.02,336.91z"/>
	<path d="M352.81,330.53l-5.84,3.16c1.94,1.48,3.37,3.04,4.3,4.68s1.39,3.42,1.39,5.36c0,1.47-0.28,2.86-0.83,4.17
		s-1.36,2.48-2.43,3.52c-1.53,1.52-3.37,2.68-5.51,3.49s-4.45,1.22-6.91,1.22c-3.89,0-7.08-1.04-9.57-3.13s-3.74-4.72-3.74-7.91
		c0-2.14,0.47-4.19,1.42-6.15s2.38-3.86,4.3-5.71l-5.86-1.15l13.59-1.55c-1.02,1.14-1.79,2.31-2.32,3.5s-0.8,2.36-0.8,3.5
		c0,1.36,0.31,2.42,0.94,3.18s1.49,1.14,2.6,1.14c1.3,0,2.36-0.45,3.19-1.35s1.24-2.06,1.24-3.48c0-0.89-0.16-1.71-0.49-2.46
		s-0.84-1.48-1.52-2.2L352.81,330.53z"/>
	<path d="M384.31,321.7l-3.02,1.36l-0.28,29.91l2.93,3.3l-15.66-1.01c-4.02-0.27-7.25-1.5-9.7-3.69s-3.68-4.95-3.68-8.26
		c0-3.5,1.02-6.45,3.07-8.85s4.55-3.6,7.52-3.6c1.94,0,3.7,0.44,5.27,1.32s3.04,2.24,4.38,4.07l-2.65-13.24l-3.3-2.55L384.31,321.7z
		 M367.46,335.97c-0.33,0.34-0.58,0.76-0.75,1.25s-0.26,1.03-0.26,1.61c0,1.38,0.49,2.55,1.48,3.53s2.14,1.46,3.47,1.46
		c0.56,0,1.08-0.1,1.56-0.3s0.96-0.53,1.46-0.98c-0.81-1.72-1.8-3.13-2.96-4.22S368.96,336.44,367.46,335.97z"/>
	<path d="M407.21,355.16l-24.28,0.75l5.23-2.11l1.64-19.97l-6.4-2.53l23.39-0.87l-7.5,2.65l2.93,20.53L407.21,355.16z
		 M404.61,325.02c0,1.06-0.82,1.94-2.46,2.64s-3.78,1.04-6.42,1.04s-4.79-0.35-6.43-1.04s-2.47-1.57-2.47-2.64s0.83-1.95,2.48-2.65
		s3.8-1.05,6.42-1.05c2.64,0,4.78,0.35,6.42,1.05S404.61,323.96,404.61,325.02z"/>
	<path d="M433.95,343.12c0,1.28-0.16,2.48-0.49,3.59s-0.82,2.15-1.48,3.12c-1.3,1.92-2.98,3.44-5.05,4.55s-4.26,1.66-6.57,1.66
		c-3.94,0-7.18-1.18-9.74-3.55s-3.83-5.36-3.83-8.99c0-3.84,1.3-6.99,3.9-9.43s5.96-3.67,10.07-3.67c3.88,0,7.04,1.19,9.5,3.56
		S433.95,339.38,433.95,343.12z M412.16,339.46c0.48,0.59,1.03,1.03,1.64,1.31c0.61,0.28,1.33,0.42,2.16,0.42
		c1.42,0,2.63-0.44,3.61-1.31c0.98-0.88,1.48-1.95,1.48-3.21c0-0.5-0.08-0.95-0.23-1.36s-0.4-0.77-0.73-1.08
		c-1.91,0.53-3.52,1.23-4.83,2.1C413.94,337.2,412.91,338.24,412.16,339.46z"/>
</g>
<g>
	<path d="M156.47,512.52l-2.38,1.1l-4.37,12.89l3.25,0.83l-9.02,1.69l-2.7-6.91l-2.75,6.19l-6.98-0.38l2.38-0.98l-1.9-13.83
		l-2.16-1.01l12.21-1.08l-2.81,1.72l-1.72,10.3l5.61-8.19l3.6,8.1l0.53-9.96l-2.41-1.25L156.47,512.52z"/>
	<path d="M169.23,528.41l-1.05-1.95c-1.04,0.66-2.08,1.14-3.12,1.46c-1.04,0.32-2.11,0.48-3.22,0.48c-2.16,0-3.9-0.54-5.2-1.61
		s-1.95-2.5-1.95-4.27c0-0.94,0.18-1.84,0.53-2.71s0.86-1.63,1.51-2.28c0.63-0.63,1.35-1.1,2.17-1.42s1.73-0.48,2.72-0.48
		c1.9,0,3.46,0.41,4.7,1.23c1.23,0.82,1.85,1.85,1.85,3.09c0,1.25-0.57,2.3-1.71,3.14s-2.56,1.27-4.27,1.27
		c-0.42,0-0.82-0.03-1.18-0.1s-0.72-0.17-1.05-0.3c0.73,0.5,1.46,0.87,2.16,1.11s1.44,0.36,2.19,0.36c0.91,0,1.75-0.2,2.52-0.61
		s1.42-1,1.97-1.77L169.23,528.41z M157.57,520.05c0.25,0.2,0.54,0.36,0.88,0.47s0.68,0.17,1.03,0.17c0.62,0,1.12-0.18,1.51-0.54
		s0.59-0.82,0.59-1.38c0-0.27-0.04-0.52-0.12-0.74s-0.2-0.43-0.36-0.62c-0.84,0.13-1.55,0.41-2.14,0.85S157.91,519.3,157.57,520.05z
		"/>
	<path d="M175.49,511.49l-1.88,7.29c0.86-1.02,1.72-1.78,2.57-2.28s1.74-0.74,2.67-0.74c1.42,0,2.64,0.53,3.64,1.6
		s1.51,2.36,1.51,3.87c0,1.88-0.71,3.43-2.14,4.65c-1.43,1.21-3.38,1.92-5.85,2.13l-6.6,0.53l1.88-1.71l-0.39-14.85l-1.39-0.8
		l7.63-0.55L175.49,511.49z M174.03,521.95c0.14,0.24,0.33,0.42,0.57,0.54s0.53,0.18,0.87,0.18c0.61,0,1.15-0.26,1.61-0.79
		s0.7-1.13,0.7-1.8c0-0.27-0.05-0.52-0.15-0.76s-0.26-0.5-0.49-0.77c-0.73,0.38-1.35,0.86-1.88,1.43S174.33,521.2,174.03,521.95z"/>
	<path d="M210,511.27l-1.51,0.68l-0.14,14.95l1.46,1.65l-7.83-0.5c-2.01-0.13-3.63-0.75-4.85-1.85s-1.84-2.47-1.84-4.13
		c0-1.75,0.51-3.22,1.54-4.42s2.28-1.8,3.76-1.8c0.97,0,1.85,0.22,2.64,0.66s1.52,1.12,2.19,2.03l-1.32-6.62l-1.65-1.28L210,511.27z
		 M201.58,518.4c-0.16,0.17-0.29,0.38-0.38,0.63s-0.13,0.51-0.13,0.8c0,0.69,0.25,1.28,0.74,1.76c0.49,0.49,1.07,0.73,1.73,0.73
		c0.28,0,0.54-0.05,0.78-0.15s0.48-0.27,0.73-0.49c-0.41-0.86-0.9-1.56-1.48-2.11S202.33,518.64,201.58,518.4z"/>
	<path d="M224,521.98c0,0.64-0.08,1.24-0.25,1.79s-0.41,1.07-0.74,1.56c-0.65,0.96-1.49,1.72-2.53,2.27s-2.13,0.83-3.29,0.83
		c-1.97,0-3.59-0.59-4.87-1.78s-1.92-2.68-1.92-4.49c0-1.92,0.65-3.49,1.95-4.72s2.98-1.83,5.03-1.83c1.94,0,3.52,0.59,4.75,1.78
		S224,520.11,224,521.98z M213.1,520.15c0.24,0.3,0.52,0.52,0.82,0.66s0.66,0.21,1.08,0.21c0.71,0,1.31-0.22,1.8-0.66
		s0.74-0.97,0.74-1.61c0-0.25-0.04-0.48-0.12-0.68s-0.2-0.38-0.36-0.54c-0.95,0.27-1.76,0.62-2.41,1.05S213.47,519.54,213.1,520.15z
		"/>
	<path d="M243.48,528.05l-5.98,0.46c0.61-0.63,1.06-1.25,1.36-1.86s0.45-1.22,0.45-1.84c0-0.6-0.13-1.09-0.4-1.46
		s-0.61-0.56-1.04-0.56c-0.49,0-0.93,0.25-1.31,0.74s-0.57,1.07-0.57,1.73c0,0.37,0.05,0.71,0.16,1.01s0.27,0.61,0.49,0.91
		l-4.58-0.26c0.22-0.28,0.38-0.56,0.49-0.83s0.16-0.55,0.16-0.83c0-0.63-0.14-1.14-0.43-1.55s-0.65-0.61-1.08-0.61
		c-0.47,0-0.88,0.24-1.22,0.71s-0.52,1.04-0.52,1.72c0,0.49,0.09,0.95,0.27,1.36s0.46,0.82,0.83,1.21l-6.23,0.41l1.97-1.54
		l-0.25-10.01l-1.65-0.7l5.29-0.55l-0.66,2.74c0.54-0.88,1.14-1.55,1.82-2.02s1.36-0.7,2.05-0.7c0.66,0,1.26,0.29,1.79,0.86
		s0.89,1.32,1.07,2.24c0.45-1.02,0.99-1.79,1.65-2.31s1.39-0.79,2.21-0.79c1.09,0,1.99,0.51,2.72,1.52s1.1,2.29,1.1,3.83
		c0,1.05-0.17,2.07-0.51,3.06s-0.87,2-1.58,3.04L243.48,528.05z"/>
	<path d="M259.21,516.07l-1.72,0.79l0.35,9.82l1.35,1.03l-5.16,0.64l0.88-3.57c-0.72,1.18-1.55,2.07-2.49,2.67s-1.97,0.9-3.08,0.9
		c-1.33,0-2.45-0.54-3.36-1.63s-1.37-2.44-1.37-4.05c0-2.05,0.49-3.74,1.46-5.07c0.98-1.32,2.21-1.99,3.69-1.99
		c1.13,0,2.12,0.29,2.97,0.88s1.58,1.47,2.16,2.64l-0.74-3.62L259.21,516.07z M251.01,518.52c-0.2,0.23-0.35,0.48-0.45,0.75
		c-0.09,0.27-0.14,0.57-0.14,0.93c0,0.69,0.22,1.26,0.67,1.73s1,0.7,1.66,0.7c0.23,0,0.48-0.05,0.73-0.15s0.5-0.24,0.76-0.43
		c-0.5-0.92-1.02-1.68-1.56-2.27S251.58,518.77,251.01,518.52z"/>
	<path d="M270.82,528l-12.14,0.38l2.61-1.05l0.82-9.98l-3.2-1.27l11.7-0.43l-3.75,1.32l1.46,10.27L270.82,528z M269.52,512.93
		c0,0.53-0.41,0.97-1.23,1.32s-1.89,0.52-3.21,0.52s-2.39-0.17-3.22-0.52s-1.24-0.79-1.24-1.32s0.41-0.97,1.24-1.32
		s1.9-0.53,3.21-0.53c1.32,0,2.39,0.18,3.21,0.53S269.52,512.4,269.52,512.93z"/>
	<path d="M284.63,527.93l-6.55,0.42c0.44-0.49,0.77-1,0.98-1.52s0.33-1.04,0.33-1.58c0-0.71-0.17-1.3-0.5-1.76s-0.76-0.69-1.27-0.69
		c-0.59,0-1.07,0.24-1.46,0.72s-0.58,1.09-0.58,1.82c0,0.5,0.08,0.95,0.23,1.35s0.39,0.75,0.7,1.05l-6.43,0.75l1.46-1.54l0.5-9.63
		l-1.92-0.96l6.12-0.67l-1.42,2.86c0.98-0.94,1.94-1.64,2.87-2.12s1.81-0.71,2.65-0.71c1.3,0,2.33,0.43,3.11,1.28s1.17,2,1.17,3.43
		c0,1.13-0.2,2.25-0.6,3.37s-0.98,2.21-1.76,3.28L284.63,527.93z"/>
	<path d="M310.64,516.07l-1.72,0.79l0.35,9.82l1.35,1.03l-5.16,0.64l0.88-3.57c-0.72,1.18-1.55,2.07-2.49,2.67s-1.97,0.9-3.08,0.9
		c-1.33,0-2.45-0.54-3.36-1.63s-1.37-2.44-1.37-4.05c0-2.05,0.49-3.74,1.46-5.07s2.21-1.99,3.69-1.99c1.13,0,2.12,0.29,2.97,0.88
		s1.58,1.47,2.16,2.64l-0.74-3.62L310.64,516.07z M302.44,518.52c-0.2,0.23-0.35,0.48-0.45,0.75s-0.14,0.57-0.14,0.93
		c0,0.69,0.22,1.26,0.67,1.73s1,0.7,1.66,0.7c0.23,0,0.48-0.05,0.73-0.15s0.5-0.24,0.76-0.43c-0.5-0.92-1.02-1.68-1.56-2.27
		S303.01,518.77,302.44,518.52z"/>
	<path d="M325.23,527.93l-6.55,0.42c0.44-0.49,0.77-1,0.98-1.52s0.33-1.04,0.33-1.58c0-0.71-0.17-1.3-0.5-1.76s-0.76-0.69-1.27-0.69
		c-0.59,0-1.07,0.24-1.46,0.72s-0.58,1.09-0.58,1.82c0,0.5,0.08,0.95,0.23,1.35s0.39,0.75,0.7,1.05l-6.43,0.75l1.46-1.54l0.5-9.63
		l-1.92-0.96l6.12-0.67l-1.42,2.86c0.98-0.94,1.94-1.64,2.87-2.12s1.81-0.71,2.65-0.71c1.3,0,2.33,0.43,3.11,1.28s1.17,2,1.17,3.43
		c0,1.13-0.2,2.25-0.6,3.37s-0.98,2.21-1.76,3.28L325.23,527.93z"/>
	<path d="M341,511.27l-1.51,0.68l-0.14,14.95l1.46,1.65l-7.83-0.5c-2.01-0.13-3.63-0.75-4.85-1.85s-1.84-2.47-1.84-4.13
		c0-1.75,0.51-3.22,1.54-4.42s2.28-1.8,3.76-1.8c0.97,0,1.85,0.22,2.64,0.66s1.52,1.12,2.19,2.03l-1.32-6.62l-1.65-1.28L341,511.27z
		 M332.57,518.4c-0.16,0.17-0.29,0.38-0.38,0.63s-0.13,0.51-0.13,0.8c0,0.69,0.25,1.28,0.74,1.76s1.07,0.73,1.73,0.73
		c0.28,0,0.54-0.05,0.78-0.15s0.48-0.27,0.73-0.49c-0.41-0.86-0.9-1.56-1.48-2.11S333.32,518.64,332.57,518.4z"/>
	<path d="M377.77,512.52l-2.38,1.1l-4.37,12.89l3.25,0.83l-9.02,1.69l-2.7-6.91l-2.75,6.19l-6.98-0.38l2.38-0.98l-1.9-13.83
		l-2.16-1.01l12.21-1.08l-2.81,1.72l-1.72,10.3l5.61-8.19l3.6,8.1l0.53-9.96l-2.41-1.25L377.77,512.52z"/>
	<path d="M390.53,528.41l-1.05-1.95c-1.04,0.66-2.08,1.14-3.12,1.46s-2.11,0.48-3.22,0.48c-2.16,0-3.9-0.54-5.2-1.61
		s-1.95-2.5-1.95-4.27c0-0.94,0.18-1.84,0.53-2.71s0.86-1.63,1.51-2.28c0.63-0.63,1.35-1.1,2.17-1.42s1.73-0.48,2.72-0.48
		c1.9,0,3.46,0.41,4.7,1.23s1.85,1.85,1.85,3.09c0,1.25-0.57,2.3-1.71,3.14s-2.56,1.27-4.27,1.27c-0.42,0-0.82-0.03-1.18-0.1
		s-0.72-0.17-1.05-0.3c0.73,0.5,1.46,0.87,2.16,1.11s1.44,0.36,2.19,0.36c0.91,0,1.75-0.2,2.52-0.61s1.42-1,1.97-1.77L390.53,528.41
		z M378.87,520.05c0.25,0.2,0.54,0.36,0.88,0.47s0.68,0.17,1.03,0.17c0.62,0,1.12-0.18,1.51-0.54s0.59-0.82,0.59-1.38
		c0-0.27-0.04-0.52-0.12-0.74s-0.2-0.43-0.36-0.62c-0.84,0.13-1.55,0.41-2.14,0.85S379.21,519.3,378.87,520.05z"/>
	<path d="M396.79,511.49l-1.88,7.29c0.86-1.02,1.72-1.78,2.57-2.28s1.74-0.74,2.67-0.74c1.42,0,2.64,0.53,3.64,1.6
		s1.51,2.36,1.51,3.87c0,1.88-0.71,3.43-2.14,4.65s-3.38,1.92-5.85,2.13l-6.6,0.53l1.88-1.71l-0.39-14.85l-1.39-0.8l7.63-0.55
		L396.79,511.49z M395.32,521.95c0.14,0.24,0.33,0.42,0.57,0.54s0.53,0.18,0.87,0.18c0.61,0,1.15-0.26,1.61-0.79s0.7-1.13,0.7-1.8
		c0-0.27-0.05-0.52-0.15-0.76s-0.26-0.5-0.49-0.77c-0.73,0.38-1.35,0.86-1.88,1.43S395.63,521.2,395.32,521.95z"/>
	<path d="M422.18,511.79l-2.13,7.21c0.84-1.1,1.74-1.92,2.68-2.46s1.95-0.81,3.03-0.81c1.41,0,2.6,0.48,3.56,1.43
		s1.44,2.14,1.44,3.56c0,0.99-0.23,2.01-0.7,3.06s-1.16,2.12-2.08,3.21l2.73,0.91l-6.98,0.6c0.52-0.52,0.92-1.07,1.18-1.66
		s0.4-1.21,0.4-1.85c0-0.65-0.15-1.16-0.45-1.55s-0.71-0.57-1.22-0.57c-0.62,0-1.14,0.26-1.56,0.79s-0.64,1.18-0.64,1.96
		c0,0.41,0.06,0.81,0.17,1.18s0.29,0.71,0.52,1.03l-6.05,0.7l1.82-1.54l-0.21-15.07l-1.56-0.77l8.25-0.53L422.18,511.79z"/>
	<path d="M445.18,521.98c0,0.64-0.08,1.24-0.25,1.79s-0.41,1.07-0.74,1.56c-0.65,0.96-1.49,1.72-2.53,2.27s-2.13,0.83-3.29,0.83
		c-1.97,0-3.59-0.59-4.87-1.78s-1.92-2.68-1.92-4.49c0-1.92,0.65-3.49,1.95-4.72s2.98-1.83,5.03-1.83c1.94,0,3.52,0.59,4.75,1.78
		S445.18,520.11,445.18,521.98z M434.28,520.15c0.24,0.3,0.52,0.52,0.82,0.66s0.66,0.21,1.08,0.21c0.71,0,1.31-0.22,1.8-0.66
		s0.74-0.97,0.74-1.61c0-0.25-0.04-0.48-0.12-0.68s-0.2-0.38-0.36-0.54c-0.95,0.27-1.76,0.62-2.41,1.05S434.65,519.54,434.28,520.15
		z"/>
	<path d="M458.69,515.64l-2.23,4.24c-0.61-0.55-1.19-0.95-1.74-1.21s-1.09-0.39-1.62-0.39c-0.48,0-0.86,0.11-1.13,0.33
		s-0.4,0.52-0.4,0.9c0,0.7,1.06,1.11,3.18,1.25c0.21,0.02,0.38,0.03,0.49,0.04c1.73,0.12,2.98,0.43,3.76,0.95s1.17,1.29,1.17,2.32
		c0,1.28-0.63,2.33-1.89,3.13s-2.92,1.21-4.97,1.21c-0.93,0-1.87-0.14-2.82-0.43s-1.94-0.73-2.98-1.32l-1.95,1.72l1.51-4.72
		c0.77,0.68,1.51,1.19,2.22,1.54s1.37,0.52,1.97,0.52c0.5,0,0.9-0.13,1.2-0.39s0.45-0.62,0.45-1.07c0-0.47-0.16-0.81-0.47-1.04
		s-1.06-0.43-2.25-0.62c-1.33-0.22-2.28-0.56-2.87-1.03s-0.87-1.13-0.87-1.97c0-1.23,0.51-2.21,1.52-2.94s2.38-1.09,4.1-1.09
		c0.97,0,1.8,0.12,2.5,0.35s1.34,0.61,1.95,1.14L458.69,515.64z"/>
	<path d="M474.88,528.48l-1.75-1.97c-0.85,0.66-1.71,1.16-2.58,1.48s-1.78,0.49-2.73,0.49c-1.48,0-2.67-0.43-3.56-1.29
		s-1.34-2.01-1.34-3.45c0-0.43,0.04-0.94,0.11-1.54s0.2-1.36,0.37-2.3l-1.36,0.16l-1.25,2.13l-0.43-7.15l1.61,1.61l2.24-0.07
		c0.21-0.77,0.43-1.52,0.66-2.24s0.47-1.42,0.73-2.1l-3-1.15l10.27-0.46l-2.91,1.83c-0.16,0.72-0.3,1.4-0.43,2.04
		s-0.24,1.26-0.33,1.86l2.68-0.12l1.83-2.25l-0.29,6.62l-1.65-1.92l-2.93,0.41c-0.08,0.63-0.14,1.21-0.18,1.72s-0.06,0.96-0.06,1.35
		c0,0.87,0.14,1.49,0.41,1.88s0.72,0.57,1.34,0.57c0.59,0,1.21-0.18,1.84-0.53c0.63-0.35,1.25-0.86,1.84-1.51L474.88,528.48z"/>
	<path d="M486.45,528l-12.14,0.38l2.61-1.05l0.82-9.98l-3.2-1.27l11.7-0.43l-3.75,1.32l1.46,10.27L486.45,528z M485.15,512.93
		c0,0.53-0.41,0.97-1.23,1.32s-1.89,0.52-3.21,0.52s-2.39-0.17-3.22-0.52s-1.24-0.79-1.24-1.32s0.41-0.97,1.24-1.32
		s1.9-0.53,3.21-0.53c1.32,0,2.39,0.18,3.21,0.53S485.15,512.4,485.15,512.93z"/>
	<path d="M500.25,527.93l-6.55,0.42c0.44-0.49,0.77-1,0.98-1.52c0.22-0.52,0.33-1.04,0.33-1.58c0-0.71-0.17-1.3-0.5-1.76
		s-0.76-0.69-1.27-0.69c-0.59,0-1.07,0.24-1.46,0.72s-0.58,1.09-0.58,1.82c0,0.5,0.08,0.95,0.23,1.35s0.39,0.75,0.7,1.05l-6.43,0.75
		l1.46-1.54l0.5-9.63l-1.92-0.96l6.12-0.67l-1.42,2.86c0.98-0.94,1.94-1.64,2.87-2.12s1.81-0.71,2.65-0.71
		c1.3,0,2.33,0.43,3.11,1.28s1.17,2,1.17,3.43c0,1.13-0.2,2.25-0.6,3.37s-0.98,2.21-1.76,3.28L500.25,527.93z"/>
	<path d="M515.88,515.98l-1.72,0.96c0.54,1.79,0.95,3.43,1.22,4.92s0.41,2.8,0.41,3.93c0,2.43-0.6,4.32-1.8,5.67
		s-2.88,2.02-5.04,2.02c-0.91,0-1.8-0.11-2.68-0.32s-1.79-0.54-2.72-0.98l-1.68,1.37l2.43-4.99c0.7,0.79,1.43,1.39,2.2,1.79
		s1.56,0.61,2.38,0.61c0.93,0,1.73-0.38,2.4-1.15s1.01-1.67,1.01-2.72c0-0.41-0.04-0.8-0.13-1.18s-0.23-0.76-0.42-1.15
		c-0.7,1.12-1.46,1.94-2.31,2.46s-1.82,0.79-2.93,0.79c-1.47,0-2.7-0.56-3.69-1.68s-1.49-2.5-1.49-4.16c0-1.91,0.52-3.48,1.57-4.73
		s2.36-1.87,3.95-1.87c0.88,0,1.73,0.22,2.56,0.67s1.65,1.12,2.46,2.02l-1.08-2.68L515.88,515.98z M508,518.02
		c-0.2,0.23-0.36,0.48-0.46,0.75s-0.16,0.57-0.16,0.88c0,0.67,0.23,1.26,0.68,1.76s0.97,0.76,1.55,0.76c0.29,0,0.56-0.06,0.83-0.18
		s0.53-0.31,0.81-0.58c-0.45-0.88-0.93-1.6-1.46-2.16C509.25,518.69,508.66,518.28,508,518.02z"/>
	<path d="M541.41,527.93l-6.55,0.42c0.44-0.49,0.77-1,0.98-1.52s0.33-1.04,0.33-1.58c0-0.71-0.17-1.3-0.5-1.76s-0.76-0.69-1.27-0.69
		c-0.59,0-1.07,0.24-1.46,0.72s-0.58,1.09-0.58,1.82c0,0.5,0.08,0.95,0.23,1.35s0.39,0.75,0.7,1.05l-6.43,0.75l1.46-1.54l0.5-9.63
		l-1.92-0.96l6.12-0.67l-1.42,2.86c0.98-0.94,1.94-1.64,2.87-2.12s1.81-0.71,2.65-0.71c1.3,0,2.33,0.43,3.11,1.28s1.17,2,1.17,3.43
		c0,1.13-0.2,2.25-0.6,3.37s-0.98,2.21-1.76,3.28L541.41,527.93z"/>
	<path d="M556.05,521.98c0,0.64-0.08,1.24-0.25,1.79s-0.41,1.07-0.74,1.56c-0.65,0.96-1.49,1.72-2.53,2.27s-2.13,0.83-3.29,0.83
		c-1.97,0-3.59-0.59-4.87-1.78s-1.92-2.68-1.92-4.49c0-1.92,0.65-3.49,1.95-4.72s2.98-1.83,5.03-1.83c1.94,0,3.52,0.59,4.75,1.78
		S556.05,520.11,556.05,521.98z M545.15,520.15c0.24,0.3,0.52,0.52,0.82,0.66s0.66,0.21,1.08,0.21c0.71,0,1.31-0.22,1.8-0.66
		s0.74-0.97,0.74-1.61c0-0.25-0.04-0.48-0.12-0.68s-0.2-0.38-0.36-0.54c-0.95,0.27-1.76,0.62-2.41,1.05S545.52,519.54,545.15,520.15
		z"/>
	<path d="M571.07,528.48l-1.75-1.97c-0.85,0.66-1.71,1.16-2.58,1.48s-1.78,0.49-2.73,0.49c-1.48,0-2.67-0.43-3.56-1.29
		s-1.34-2.01-1.34-3.45c0-0.43,0.04-0.94,0.11-1.54s0.2-1.36,0.37-2.3l-1.36,0.16l-1.25,2.13l-0.43-7.15l1.61,1.61l2.24-0.07
		c0.21-0.77,0.43-1.52,0.66-2.24s0.47-1.42,0.73-2.1l-3-1.15l10.27-0.46l-2.91,1.83c-0.16,0.72-0.3,1.4-0.43,2.04
		s-0.24,1.26-0.33,1.86l2.68-0.12l1.83-2.25l-0.29,6.62l-1.65-1.92l-2.93,0.41c-0.08,0.63-0.14,1.21-0.18,1.72s-0.06,0.96-0.06,1.35
		c0,0.87,0.14,1.49,0.41,1.88s0.72,0.57,1.34,0.57c0.59,0,1.21-0.18,1.84-0.53s1.25-0.86,1.84-1.51L571.07,528.48z"/>
	<path d="M593.03,528l-12.14,0.38l2.61-1.05l0.82-9.98l-3.2-1.27l11.7-0.43l-3.75,1.32l1.46,10.27L593.03,528z M591.73,512.93
		c0,0.53-0.41,0.97-1.23,1.32s-1.89,0.52-3.21,0.52s-2.39-0.17-3.22-0.52s-1.24-0.79-1.24-1.32s0.41-0.97,1.24-1.32
		s1.9-0.53,3.21-0.53c1.32,0,2.39,0.18,3.21,0.53S591.73,512.4,591.73,512.93z"/>
	<path d="M606.84,527.93l-6.55,0.42c0.44-0.49,0.77-1,0.98-1.52s0.33-1.04,0.33-1.58c0-0.71-0.17-1.3-0.5-1.76s-0.76-0.69-1.27-0.69
		c-0.59,0-1.07,0.24-1.46,0.72s-0.58,1.09-0.58,1.82c0,0.5,0.08,0.95,0.23,1.35s0.39,0.75,0.7,1.05l-6.43,0.75l1.46-1.54l0.5-9.63
		l-1.92-0.96l6.12-0.67l-1.42,2.86c0.98-0.94,1.94-1.64,2.87-2.12s1.81-0.71,2.65-0.71c1.3,0,2.33,0.43,3.11,1.28s1.17,2,1.17,3.43
		c0,1.13-0.2,2.25-0.6,3.37s-0.98,2.21-1.76,3.28L606.84,527.93z"/>
	<path d="M621.16,528.48l-1.29-2.6c-0.94,0.87-1.87,1.51-2.78,1.92s-1.88,0.62-2.89,0.62c-1.84,0-3.35-0.54-4.53-1.63
		s-1.78-2.47-1.78-4.16c0-0.98,0.18-1.92,0.53-2.82s0.85-1.66,1.49-2.29c0.59-0.59,1.25-1.03,1.99-1.33s1.54-0.45,2.41-0.45
		c0.86,0,1.68,0.15,2.46,0.46s1.55,0.79,2.31,1.44l0.48-2.06l0.68,5.18c-0.3-0.33-0.63-0.58-1-0.75s-0.77-0.26-1.19-0.26
		c-0.58,0-1.06,0.2-1.44,0.59s-0.57,0.88-0.57,1.48c0,0.59,0.22,1.09,0.65,1.51s0.95,0.63,1.54,0.63c0.41,0,0.79-0.1,1.17-0.31
		s0.77-0.54,1.2-1.01L621.16,528.48z"/>
	<path d="M630.65,528.05l-9.75,0.48l2.68-1.54l-0.21-13.46l-2.43-0.43l9.2-2.59L628,527.09L630.65,528.05z"/>
	<path d="M645.86,515.68l-2.92,1.58c0.97,0.74,1.69,1.52,2.15,2.34s0.7,1.71,0.7,2.68c0,0.73-0.14,1.43-0.42,2.09
		s-0.68,1.24-1.21,1.76c-0.77,0.76-1.68,1.34-2.75,1.75s-2.22,0.61-3.46,0.61c-1.95,0-3.54-0.52-4.79-1.56s-1.87-2.36-1.87-3.96
		c0-1.07,0.24-2.1,0.71-3.08s1.19-1.93,2.15-2.85l-2.93-0.57l6.8-0.77c-0.51,0.57-0.89,1.15-1.16,1.75s-0.4,1.18-0.4,1.75
		c0,0.68,0.16,1.21,0.47,1.59s0.75,0.57,1.3,0.57c0.65,0,1.18-0.22,1.59-0.67s0.62-1.03,0.62-1.74c0-0.45-0.08-0.86-0.25-1.23
		s-0.42-0.74-0.76-1.1L645.86,515.68z"/>
	<path d="M661.61,511.27l-1.51,0.68l-0.14,14.95l1.46,1.65l-7.83-0.5c-2.01-0.13-3.63-0.75-4.85-1.85s-1.84-2.47-1.84-4.13
		c0-1.75,0.51-3.22,1.54-4.42s2.28-1.8,3.76-1.8c0.97,0,1.85,0.22,2.64,0.66s1.52,1.12,2.19,2.03l-1.32-6.62l-1.65-1.28
		L661.61,511.27z M653.18,518.4c-0.16,0.17-0.29,0.38-0.38,0.63s-0.13,0.51-0.13,0.8c0,0.69,0.25,1.28,0.74,1.76
		s1.07,0.73,1.73,0.73c0.28,0,0.54-0.05,0.78-0.15s0.48-0.27,0.73-0.49c-0.41-0.86-0.9-1.56-1.48-2.11S653.93,518.64,653.18,518.4z"
		/>
	<path d="M676.56,528.41l-1.05-1.95c-1.04,0.66-2.08,1.14-3.12,1.46s-2.11,0.48-3.22,0.48c-2.16,0-3.9-0.54-5.2-1.61
		s-1.95-2.5-1.95-4.27c0-0.94,0.18-1.84,0.53-2.71s0.86-1.63,1.51-2.28c0.63-0.63,1.35-1.1,2.17-1.42s1.73-0.48,2.72-0.48
		c1.9,0,3.46,0.41,4.7,1.23s1.85,1.85,1.85,3.09c0,1.25-0.57,2.3-1.71,3.14s-2.56,1.27-4.27,1.27c-0.42,0-0.82-0.03-1.18-0.1
		s-0.72-0.17-1.05-0.3c0.73,0.5,1.46,0.87,2.16,1.11s1.44,0.36,2.19,0.36c0.91,0,1.75-0.2,2.52-0.61s1.42-1,1.97-1.77L676.56,528.41
		z M664.9,520.05c0.25,0.2,0.54,0.36,0.88,0.47s0.68,0.17,1.03,0.17c0.62,0,1.12-0.18,1.51-0.54s0.59-0.82,0.59-1.38
		c0-0.27-0.04-0.52-0.12-0.74s-0.2-0.43-0.36-0.62c-0.84,0.13-1.55,0.41-2.14,0.85S665.24,519.3,664.9,520.05z"/>
	<path d="M691.89,511.27l-1.51,0.68l-0.14,14.95l1.46,1.65l-7.83-0.5c-2.01-0.13-3.63-0.75-4.85-1.85s-1.84-2.47-1.84-4.13
		c0-1.75,0.51-3.22,1.54-4.42s2.28-1.8,3.76-1.8c0.97,0,1.85,0.22,2.64,0.66s1.52,1.12,2.19,2.03l-1.32-6.62l-1.65-1.28
		L691.89,511.27z M683.46,518.4c-0.16,0.17-0.29,0.38-0.38,0.63s-0.13,0.51-0.13,0.8c0,0.69,0.25,1.28,0.74,1.76
		s1.07,0.73,1.73,0.73c0.28,0,0.54-0.05,0.78-0.15s0.48-0.27,0.73-0.49c-0.41-0.86-0.9-1.56-1.48-2.11S684.21,518.64,683.46,518.4z"
		/>
	<path d="M713.73,528l-12.14,0.38l2.61-1.05l0.82-9.98l-3.2-1.27l11.7-0.43l-3.75,1.32l1.46,10.27L713.73,528z M712.43,512.93
		c0,0.53-0.41,0.97-1.23,1.32s-1.89,0.52-3.21,0.52s-2.39-0.17-3.22-0.52s-1.24-0.79-1.24-1.32s0.41-0.97,1.24-1.32
		s1.9-0.53,3.21-0.53c1.32,0,2.39,0.18,3.21,0.53S712.43,512.4,712.43,512.93z"/>
	<path d="M727.54,527.93l-6.55,0.42c0.44-0.49,0.77-1,0.98-1.52s0.33-1.04,0.33-1.58c0-0.71-0.17-1.3-0.5-1.76s-0.76-0.69-1.27-0.69
		c-0.59,0-1.07,0.24-1.46,0.72s-0.58,1.09-0.58,1.82c0,0.5,0.08,0.95,0.23,1.35s0.39,0.75,0.7,1.05L713,528.5l1.46-1.54l0.5-9.63
		l-1.92-0.96l6.12-0.67l-1.42,2.86c0.98-0.94,1.94-1.64,2.87-2.12s1.81-0.71,2.65-0.71c1.3,0,2.33,0.43,3.11,1.28s1.17,2,1.17,3.43
		c0,1.13-0.2,2.25-0.6,3.37s-0.98,2.21-1.76,3.28L727.54,527.93z"/>
	<path d="M742.18,525.94l1.88,6.4l1.63,0.75l-7.13,0.5l1.05-1.21l0.57-15.42l-1.61-0.75l5.86-0.57l-1.32,2.93
		c0.77-0.97,1.59-1.7,2.47-2.19s1.8-0.74,2.77-0.74c1.37,0,2.51,0.53,3.42,1.59s1.37,2.39,1.37,4c0,1.1-0.19,2.13-0.56,3.1
		s-0.9,1.79-1.58,2.49c-0.52,0.54-1.12,0.95-1.78,1.22s-1.37,0.42-2.12,0.42c-0.93,0-1.79-0.2-2.57-0.6S742.97,526.81,742.18,525.94
		z M743.43,521.91c0.19,0.23,0.39,0.4,0.62,0.51s0.49,0.16,0.8,0.16c0.61,0,1.11-0.23,1.51-0.7s0.6-1.06,0.6-1.78
		c0-0.32-0.05-0.61-0.15-0.88s-0.25-0.52-0.45-0.77c-0.77,0.49-1.39,1.03-1.88,1.61S743.64,521.25,743.43,521.91z"/>
	<path d="M768.12,515.78l-1.85,7.44c-0.55-0.67-1.14-1.17-1.78-1.5s-1.34-0.49-2.1-0.49c-0.97,0-1.76,0.31-2.38,0.94
		s-0.93,1.43-0.93,2.4c0,0.61,0.14,1.18,0.43,1.72s0.76,1.1,1.42,1.69l-7.51,0.4l1.34-1.1l0.66-10.36l-1.85-0.77l5.93-0.32
		l-0.98,2.67c0.88-0.92,1.72-1.61,2.53-2.05s1.59-0.67,2.37-0.67c0.63,0,1.21,0.13,1.75,0.39s0.98,0.63,1.35,1.12L768.12,515.78z"/>
	<path d="M780.06,528l-12.14,0.38l2.61-1.05l0.82-9.98l-3.2-1.27l11.7-0.43l-3.75,1.32l1.46,10.27L780.06,528z M778.76,512.93
		c0,0.53-0.41,0.97-1.23,1.32s-1.89,0.52-3.21,0.52s-2.39-0.17-3.22-0.52s-1.24-0.79-1.24-1.32s0.41-0.97,1.24-1.32
		s1.9-0.53,3.21-0.53c1.32,0,2.39,0.18,3.21,0.53S778.76,512.4,778.76,512.93z"/>
	<path d="M793.12,528.48l-1.29-2.6c-0.94,0.87-1.87,1.51-2.78,1.92s-1.88,0.62-2.89,0.62c-1.84,0-3.35-0.54-4.53-1.63
		s-1.78-2.47-1.78-4.16c0-0.98,0.18-1.92,0.53-2.82s0.85-1.66,1.49-2.29c0.59-0.59,1.25-1.03,1.99-1.33s1.54-0.45,2.41-0.45
		c0.86,0,1.68,0.15,2.46,0.46s1.55,0.79,2.31,1.44l0.48-2.06l0.68,5.18c-0.3-0.33-0.63-0.58-1-0.75s-0.77-0.26-1.19-0.26
		c-0.58,0-1.06,0.2-1.44,0.59s-0.57,0.88-0.57,1.48c0,0.59,0.22,1.09,0.65,1.51s0.95,0.63,1.54,0.63c0.41,0,0.79-0.1,1.17-0.31
		s0.77-0.54,1.2-1.01L793.12,528.48z"/>
	<path d="M808.29,528.41l-1.05-1.95c-1.04,0.66-2.08,1.14-3.12,1.46s-2.11,0.48-3.22,0.48c-2.16,0-3.9-0.54-5.2-1.61
		s-1.95-2.5-1.95-4.27c0-0.94,0.18-1.84,0.53-2.71s0.86-1.63,1.51-2.28c0.63-0.63,1.35-1.1,2.17-1.42s1.73-0.48,2.72-0.48
		c1.9,0,3.46,0.41,4.7,1.23s1.85,1.85,1.85,3.09c0,1.25-0.57,2.3-1.71,3.14s-2.56,1.27-4.27,1.27c-0.42,0-0.82-0.03-1.18-0.1
		s-0.72-0.17-1.05-0.3c0.73,0.5,1.46,0.87,2.16,1.11s1.44,0.36,2.19,0.36c0.91,0,1.75-0.2,2.52-0.61s1.42-1,1.97-1.77L808.29,528.41
		z M796.63,520.05c0.25,0.2,0.54,0.36,0.88,0.47s0.68,0.17,1.03,0.17c0.62,0,1.12-0.18,1.51-0.54s0.59-0.82,0.59-1.38
		c0-0.27-0.04-0.52-0.12-0.74s-0.2-0.43-0.36-0.62c-0.84,0.13-1.55,0.41-2.14,0.85S796.97,519.3,796.63,520.05z"/>
</g>
<g>
	<path d="M392.11,425.5c0,1.27-0.16,2.45-0.47,3.54s-0.8,2.11-1.44,3.05c-1.36,1.99-3.23,3.58-5.61,4.75s-4.9,1.77-7.56,1.77
		c-1.42,0-2.75-0.18-4-0.54s-2.4-0.9-3.45-1.62c-1.88-1.27-3.33-2.84-4.36-4.74s-1.55-3.93-1.55-6.13c0-1.68,0.32-3.27,0.97-4.78
		s1.58-2.87,2.81-4.08c1.51-1.5,3.27-2.66,5.28-3.47s4.12-1.22,6.32-1.22c1.38,0,2.67,0.17,3.88,0.52s2.31,0.86,3.31,1.54
		c1.8,1.22,3.23,2.86,4.29,4.91S392.11,423.23,392.11,425.5z M378.75,416.33c-0.34,0.5-0.6,1.04-0.77,1.6s-0.26,1.14-0.26,1.72
		c0,1.05,0.4,1.97,1.2,2.73s1.75,1.15,2.86,1.15c0.87,0,1.69-0.23,2.47-0.7s1.34-1.07,1.68-1.79c-0.84-1.45-1.88-2.58-3.1-3.39
		S380.24,416.4,378.75,416.33z"/>
	<path d="M427.28,414.02l-2.74,1.2l-2.81,20.58l3.97,1.58l-9.19,0.72l-12.78-18.18l4.39,16.49l4.64,2.55l-19.62-1.83l2.99-2.02
		l1.27-19.37l-4.25-1.72l14.77-2.09l9.04,19.67l-1.58-17.07l-2.85-1.92L427.28,414.02z"/>
	<path d="M452.61,439.48l-2.3-2.71l-23.75,1.3l3.23-2.27l0.86-20.02l-4.78-1.42l17.17-1.88l-4.5,3.27l2.99,16.17l6.29-3.2l2.02-4.64
		L452.61,439.48z"/>
	<path d="M486.1,414.5l-3.85,1.93l-11,12.39l1.76,8.31l4.46,2.02l-21.67-1.2l4.22-2.06l2.14-7.88l-9.39-13.39l-3.71-1.16l18.35-1.44
		l-3.13,2.02l4.73,10.72l4.03-9.35l-3.09-1.58L486.1,414.5z"/>
</g>
<g>
	<path class="st2" d="M555.62,395.32l4.86,15.47c-2.54-2.32-4.85-4.08-6.94-5.27s-3.9-1.79-5.42-1.79c-1.04,0-1.85,0.27-2.43,0.81
		s-0.88,1.28-0.88,2.24c0,1.62,0.76,2.92,2.29,3.88s4.27,1.83,8.23,2.59c4.32,0.86,7.36,2.03,9.14,3.5s2.67,3.51,2.67,6.11
		c0,4.43-1.85,8.03-5.55,10.8s-8.76,4.3-15.19,4.61l1.26,4.45l4.6,2.52l-19.13,1.44l5.16-3.6l1.38-5.16c-2.36-0.35-4.68-1-6.96-1.95
		s-4.56-2.2-6.84-3.76v6.68l-4.8-15.23c2.36,1.91,4.65,3.36,6.86,4.34s4.29,1.46,6.24,1.46c1.99,0,3.56-0.44,4.7-1.33
		s1.71-2.1,1.71-3.65c0-1.7-0.55-3-1.64-3.9s-3.56-1.78-7.41-2.64c-4.45-0.98-7.61-2.26-9.46-3.84s-2.78-3.72-2.78-6.42
		c0-3.69,1.55-6.74,4.64-9.16s7.05-3.62,11.85-3.62c0.47,0,1.01,0.02,1.63,0.06s1.41,0.12,2.39,0.23l-0.64-4.57l-6.18-4.25
		l21.36,1.32l-6.01,2.81l-2.23,6.18c1.37,0.51,2.74,1.13,4.12,1.86s2.83,1.62,4.35,2.65L555.62,395.32z"/>
	<path class="st2" d="M582.49,402.47l-3.96,8.7c1.27-0.53,2.72-0.91,4.35-1.16s3.71-0.37,6.23-0.37c8.09,0,14.39,1.3,18.93,3.91
		s6.8,6.21,6.8,10.8c0,4.41-2.05,7.95-6.15,10.61s-9.61,3.98-16.52,3.98c-3.75,0-7.22-0.56-10.42-1.67s-6.14-2.8-8.83-5.07
		l-3.98,3.37l4.1-14.94c2.13,3.26,4.26,5.64,6.4,7.13s4.46,2.24,6.96,2.24c2.29,0,4.07-0.53,5.35-1.6s1.92-2.53,1.92-4.41
		c0-2.38-0.87-4.22-2.62-5.51s-4.23-1.93-7.46-1.93c-2.81,0-5.42,0.28-7.84,0.83s-4.63,1.4-6.67,2.53l4.89-25.46l33.43,2.23
		l1.55-3.11l2.05,18.4l-2.81-4.25L582.49,402.47z"/>
	<path class="st2" d="M665.83,417.29c0,1.91-0.25,3.75-0.75,5.49s-1.25,3.41-2.24,5c-2.23,3.42-5.34,6.14-9.33,8.17
		S645.25,439,640.7,439c-2.34,0-4.55-0.3-6.62-0.91s-4-1.5-5.8-2.7c-3.11-2.07-5.52-4.69-7.25-7.87s-2.59-6.59-2.59-10.24
		c0-2.81,0.53-5.48,1.6-8s2.61-4.78,4.64-6.77c2.52-2.5,5.46-4.43,8.83-5.79s6.89-2.04,10.56-2.04c3.05,0,5.81,0.49,8.29,1.48
		s4.74,2.48,6.77,4.47c2.07,2.05,3.71,4.56,4.91,7.53S665.83,414.19,665.83,417.29z M643.57,401.88c-0.57,0.86-1,1.76-1.29,2.7
		s-0.44,1.88-0.44,2.81c0,1.74,0.67,3.25,2.02,4.54s2.93,1.93,4.75,1.93c1.43,0,2.79-0.4,4.1-1.19s2.23-1.78,2.75-2.97
		c-1.43-2.46-3.15-4.36-5.17-5.7S646.03,401.96,643.57,401.88z"/>
	<path class="st2" d="M716.4,417.29c0,1.91-0.25,3.75-0.75,5.49s-1.25,3.41-2.24,5c-2.23,3.42-5.34,6.14-9.33,8.17
		s-8.27,3.05-12.82,3.05c-2.34,0-4.55-0.3-6.62-0.91s-4-1.5-5.8-2.7c-3.11-2.07-5.52-4.69-7.25-7.87s-2.59-6.59-2.59-10.24
		c0-2.81,0.53-5.48,1.6-8s2.61-4.78,4.64-6.77c2.52-2.5,5.46-4.43,8.83-5.79s6.89-2.04,10.56-2.04c3.05,0,5.81,0.49,8.29,1.48
		s4.74,2.48,6.77,4.47c2.07,2.05,3.71,4.56,4.91,7.53S716.4,414.19,716.4,417.29z M694.14,401.88c-0.57,0.86-1,1.76-1.29,2.7
		s-0.44,1.88-0.44,2.81c0,1.74,0.67,3.25,2.02,4.54s2.93,1.93,4.75,1.93c1.43,0,2.79-0.4,4.1-1.19s2.23-1.78,2.75-2.97
		c-1.43-2.46-3.15-4.36-5.17-5.7S696.6,401.96,694.14,401.88z"/>
	<path class="st2" d="M738.34,432.88c0,1.29-0.82,2.44-2.46,3.46s-3.59,1.52-5.86,1.52c-2.3,0-4.27-0.5-5.9-1.51
		s-2.45-2.16-2.45-3.47c0-1.27,0.81-2.38,2.42-3.33s3.59-1.42,5.93-1.42c2.32,0,4.29,0.48,5.9,1.44S738.34,431.63,738.34,432.88z"/>
	<path class="st2" d="M791.14,417.29c0,1.91-0.25,3.75-0.75,5.49s-1.25,3.41-2.24,5c-2.23,3.42-5.34,6.14-9.33,8.17
		S770.55,439,766,439c-2.34,0-4.55-0.3-6.62-0.91s-4-1.5-5.8-2.7c-3.11-2.07-5.52-4.69-7.25-7.87s-2.59-6.59-2.59-10.24
		c0-2.81,0.53-5.48,1.6-8s2.61-4.78,4.64-6.77c2.52-2.5,5.46-4.43,8.83-5.79s6.89-2.04,10.56-2.04c3.05,0,5.81,0.49,8.29,1.48
		s4.74,2.48,6.77,4.47c2.07,2.05,3.71,4.56,4.91,7.53S791.14,414.19,791.14,417.29z M768.87,401.88c-0.57,0.86-1,1.76-1.29,2.7
		s-0.44,1.88-0.44,2.81c0,1.74,0.67,3.25,2.02,4.54s2.93,1.93,4.75,1.93c1.43,0,2.79-0.4,4.1-1.19s2.23-1.78,2.75-2.97
		c-1.43-2.46-3.15-4.36-5.17-5.7S771.33,401.96,768.87,401.88z"/>
	<path class="st2" d="M841.7,417.29c0,1.91-0.25,3.75-0.75,5.49s-1.25,3.41-2.24,5c-2.23,3.42-5.34,6.14-9.33,8.17
		s-8.27,3.05-12.82,3.05c-2.34,0-4.55-0.3-6.62-0.91s-4-1.5-5.8-2.7c-3.11-2.07-5.52-4.69-7.25-7.87s-2.59-6.59-2.59-10.24
		c0-2.81,0.53-5.48,1.6-8s2.61-4.78,4.64-6.77c2.52-2.5,5.46-4.43,8.83-5.79s6.89-2.04,10.56-2.04c3.05,0,5.81,0.49,8.29,1.48
		s4.74,2.48,6.77,4.47c2.07,2.05,3.71,4.56,4.91,7.53S841.7,414.19,841.7,417.29z M819.44,401.88c-0.57,0.86-1,1.76-1.29,2.7
		s-0.44,1.88-0.44,2.81c0,1.74,0.67,3.25,2.02,4.54s2.93,1.93,4.75,1.93c1.43,0,2.79-0.4,4.1-1.19s2.23-1.78,2.75-2.97
		c-1.43-2.46-3.15-4.36-5.17-5.7S821.9,401.96,819.44,401.88z"/>
</g>
<g>
	<path d="M117.27,404.17l-2.46,1.22c0.84,1.74,1.48,3.33,1.9,4.76s0.64,2.7,0.64,3.8c0,1.19-0.18,2.29-0.54,3.3
		s-0.88,1.88-1.56,2.62c-0.65,0.71-1.39,1.25-2.24,1.63s-1.74,0.56-2.7,0.56c-0.9,0-1.77-0.1-2.63-0.31s-1.68-0.52-2.5-0.94
		l-2.09,1.3l3.07-4.95c0.72,0.85,1.45,1.49,2.18,1.91s1.48,0.63,2.24,0.63c1.01,0,1.82-0.32,2.43-0.96s0.91-1.5,0.91-2.57
		c0-0.4-0.05-0.79-0.14-1.18s-0.23-0.77-0.41-1.15c-0.59,0.92-1.33,1.62-2.2,2.1s-1.85,0.71-2.95,0.71c-1.61,0-2.93-0.46-3.97-1.37
		s-1.55-2.07-1.55-3.48c0-1.08,0.23-2.11,0.7-3.1s1.2-2.01,2.21-3.06l-3-0.62l7.08-0.82c-0.53,0.63-0.94,1.28-1.22,1.95
		s-0.43,1.29-0.43,1.88c0,0.62,0.15,1.12,0.45,1.52s0.69,0.59,1.15,0.59c0.66,0,1.21-0.26,1.63-0.77s0.63-1.19,0.63-2.02
		c0-0.55-0.06-1.04-0.18-1.49s-0.3-0.85-0.55-1.22L117.27,404.17z"/>
	<path d="M131.96,410.49c0,0.64-0.08,1.24-0.25,1.79s-0.41,1.07-0.74,1.56c-0.65,0.96-1.49,1.72-2.53,2.27s-2.13,0.83-3.29,0.83
		c-1.97,0-3.59-0.59-4.87-1.78s-1.92-2.68-1.92-4.49c0-1.92,0.65-3.49,1.95-4.72s2.98-1.83,5.03-1.83c1.94,0,3.52,0.59,4.75,1.78
		S131.96,408.62,131.96,410.49z M121.07,408.66c0.24,0.3,0.52,0.52,0.82,0.66s0.66,0.21,1.08,0.21c0.71,0,1.31-0.22,1.8-0.66
		s0.74-0.97,0.74-1.61c0-0.25-0.04-0.48-0.12-0.68s-0.2-0.38-0.36-0.54c-0.95,0.27-1.76,0.62-2.41,1.05S121.44,408.05,121.07,408.66
		z"/>
	<path d="M147.63,404.19l-2.92,1.58c0.97,0.74,1.69,1.52,2.15,2.34s0.7,1.71,0.7,2.68c0,0.73-0.14,1.43-0.42,2.09
		s-0.68,1.24-1.21,1.76c-0.77,0.76-1.68,1.34-2.75,1.75s-2.22,0.61-3.46,0.61c-1.95,0-3.54-0.52-4.79-1.56s-1.87-2.36-1.87-3.96
		c0-1.07,0.24-2.1,0.71-3.08s1.19-1.93,2.15-2.85l-2.93-0.57l6.8-0.77c-0.51,0.57-0.89,1.15-1.16,1.75s-0.4,1.18-0.4,1.75
		c0,0.68,0.16,1.21,0.47,1.59s0.75,0.57,1.3,0.57c0.65,0,1.18-0.22,1.59-0.67s0.62-1.03,0.62-1.74c0-0.45-0.08-0.86-0.25-1.23
		s-0.42-0.74-0.76-1.1L147.63,404.19z"/>
	<path d="M171.71,404.15l-2.23,4.24c-0.61-0.55-1.19-0.95-1.74-1.21s-1.09-0.39-1.62-0.39c-0.48,0-0.86,0.11-1.13,0.33
		s-0.4,0.52-0.4,0.9c0,0.7,1.06,1.11,3.18,1.25c0.21,0.02,0.38,0.03,0.49,0.04c1.73,0.12,2.98,0.43,3.76,0.95s1.17,1.29,1.17,2.32
		c0,1.28-0.63,2.33-1.89,3.13s-2.92,1.21-4.97,1.21c-0.93,0-1.87-0.14-2.82-0.43s-1.94-0.73-2.98-1.32l-1.95,1.72l1.51-4.72
		c0.77,0.68,1.51,1.19,2.22,1.54s1.37,0.52,1.97,0.52c0.5,0,0.9-0.13,1.2-0.39s0.45-0.62,0.45-1.07c0-0.47-0.16-0.81-0.47-1.04
		s-1.06-0.43-2.25-0.62c-1.33-0.22-2.28-0.56-2.87-1.03s-0.87-1.13-0.87-1.97c0-1.23,0.51-2.21,1.52-2.94s2.38-1.09,4.1-1.09
		c0.97,0,1.8,0.12,2.5,0.35s1.34,0.61,1.95,1.14L171.71,404.15z"/>
	<path d="M188.53,404.19l-2.92,1.58c0.97,0.74,1.69,1.52,2.15,2.34s0.7,1.71,0.7,2.68c0,0.73-0.14,1.43-0.42,2.09
		s-0.68,1.24-1.21,1.76c-0.77,0.76-1.68,1.34-2.75,1.75s-2.22,0.61-3.46,0.61c-1.95,0-3.54-0.52-4.79-1.56s-1.87-2.36-1.87-3.96
		c0-1.07,0.24-2.1,0.71-3.08s1.19-1.93,2.15-2.85l-2.93-0.57l6.8-0.77c-0.51,0.57-0.89,1.15-1.16,1.75s-0.4,1.18-0.4,1.75
		c0,0.68,0.16,1.21,0.47,1.59s0.75,0.57,1.3,0.57c0.65,0,1.18-0.22,1.59-0.67s0.62-1.03,0.62-1.74c0-0.45-0.08-0.86-0.25-1.23
		s-0.42-0.74-0.76-1.1L188.53,404.19z"/>
	<path d="M192.76,414.45l1.88,6.4l1.63,0.75l-7.13,0.5l1.05-1.21l0.57-15.42l-1.61-0.75l5.86-0.57l-1.32,2.93
		c0.77-0.97,1.59-1.7,2.47-2.19s1.8-0.74,2.77-0.74c1.37,0,2.51,0.53,3.42,1.59s1.37,2.39,1.37,4c0,1.1-0.19,2.13-0.56,3.1
		s-0.9,1.79-1.58,2.49c-0.52,0.54-1.12,0.95-1.78,1.22s-1.37,0.42-2.12,0.42c-0.93,0-1.79-0.2-2.57-0.6S193.56,415.32,192.76,414.45
		z M194.02,410.42c0.19,0.23,0.39,0.4,0.62,0.51s0.49,0.16,0.8,0.16c0.61,0,1.11-0.23,1.51-0.7s0.6-1.06,0.6-1.78
		c0-0.32-0.05-0.61-0.15-0.88s-0.25-0.52-0.45-0.77c-0.77,0.49-1.39,1.03-1.88,1.61S194.23,409.76,194.02,410.42z"/>
	<path d="M207.79,414.45l1.88,6.4l1.63,0.75l-7.13,0.5l1.05-1.21l0.57-15.42l-1.61-0.75l5.86-0.57l-1.32,2.93
		c0.77-0.97,1.59-1.7,2.47-2.19s1.8-0.74,2.77-0.74c1.37,0,2.51,0.53,3.42,1.59s1.37,2.39,1.37,4c0,1.1-0.19,2.13-0.56,3.1
		s-0.9,1.79-1.58,2.49c-0.52,0.54-1.12,0.95-1.78,1.22s-1.37,0.42-2.12,0.42c-0.93,0-1.79-0.2-2.57-0.6S208.58,415.32,207.79,414.45
		z M209.04,410.42c0.19,0.23,0.39,0.4,0.62,0.51s0.49,0.16,0.8,0.16c0.61,0,1.11-0.23,1.51-0.7s0.6-1.06,0.6-1.78
		c0-0.32-0.05-0.61-0.15-0.88s-0.25-0.52-0.45-0.77c-0.77,0.49-1.39,1.03-1.88,1.61S209.25,409.76,209.04,410.42z"/>
	<path d="M228.48,416.56l-9.75,0.48l2.68-1.54l-0.21-13.46l-2.43-0.43l9.2-2.59l-2.14,16.58L228.48,416.56z"/>
	<path d="M243.36,404.17l-2.46,1.22c0.84,1.74,1.48,3.33,1.9,4.76s0.64,2.7,0.64,3.8c0,1.19-0.18,2.29-0.54,3.3
		s-0.88,1.88-1.56,2.62c-0.65,0.71-1.39,1.25-2.24,1.63s-1.74,0.56-2.7,0.56c-0.9,0-1.77-0.1-2.63-0.31s-1.68-0.52-2.5-0.94
		l-2.09,1.3l3.07-4.95c0.72,0.85,1.45,1.49,2.18,1.91s1.48,0.63,2.24,0.63c1.01,0,1.82-0.32,2.43-0.96s0.91-1.5,0.91-2.57
		c0-0.4-0.05-0.79-0.14-1.18s-0.23-0.77-0.41-1.15c-0.59,0.92-1.33,1.62-2.2,2.1s-1.85,0.71-2.95,0.71c-1.61,0-2.93-0.46-3.97-1.37
		s-1.55-2.07-1.55-3.48c0-1.08,0.23-2.11,0.7-3.1s1.2-2.01,2.21-3.06l-3-0.62l7.08-0.82c-0.53,0.63-0.94,1.28-1.22,1.95
		s-0.43,1.29-0.43,1.88c0,0.62,0.15,1.12,0.45,1.52s0.69,0.59,1.15,0.59c0.66,0,1.21-0.26,1.63-0.77s0.63-1.19,0.63-2.02
		c0-0.55-0.06-1.04-0.18-1.49s-0.3-0.85-0.55-1.22L243.36,404.17z"/>
	<path d="M121.09,445.36l-5.98,0.46c0.61-0.63,1.06-1.25,1.36-1.86s0.45-1.22,0.45-1.84c0-0.6-0.13-1.09-0.4-1.46
		s-0.61-0.56-1.04-0.56c-0.49,0-0.93,0.25-1.31,0.74s-0.57,1.07-0.57,1.73c0,0.37,0.05,0.71,0.16,1.01s0.27,0.61,0.49,0.91
		l-4.58-0.26c0.22-0.28,0.38-0.56,0.49-0.83s0.16-0.55,0.16-0.83c0-0.63-0.14-1.14-0.43-1.55s-0.65-0.61-1.08-0.61
		c-0.47,0-0.88,0.24-1.22,0.71s-0.52,1.04-0.52,1.72c0,0.49,0.09,0.95,0.27,1.36s0.46,0.82,0.83,1.21l-6.23,0.41l1.97-1.54
		l-0.25-10.01l-1.65-0.7l5.29-0.55l-0.66,2.74c0.54-0.88,1.14-1.55,1.82-2.02s1.36-0.7,2.05-0.7c0.66,0,1.26,0.29,1.79,0.86
		s0.89,1.32,1.07,2.24c0.45-1.02,0.99-1.79,1.65-2.31s1.39-0.79,2.21-0.79c1.09,0,1.99,0.51,2.72,1.52s1.1,2.29,1.1,3.83
		c0,1.05-0.17,2.07-0.51,3.06s-0.87,2-1.58,3.04L121.09,445.36z"/>
	<path d="M136.79,445.72l-1.05-1.95c-1.04,0.66-2.08,1.14-3.12,1.46s-2.11,0.48-3.22,0.48c-2.16,0-3.9-0.54-5.2-1.61
		s-1.95-2.5-1.95-4.27c0-0.94,0.18-1.84,0.53-2.71s0.86-1.63,1.51-2.28c0.63-0.63,1.35-1.1,2.17-1.42s1.73-0.48,2.72-0.48
		c1.9,0,3.46,0.41,4.7,1.23s1.85,1.85,1.85,3.09c0,1.25-0.57,2.3-1.71,3.14s-2.56,1.27-4.27,1.27c-0.42,0-0.82-0.03-1.18-0.1
		s-0.72-0.17-1.05-0.3c0.73,0.5,1.46,0.87,2.16,1.11s1.44,0.36,2.19,0.36c0.91,0,1.75-0.2,2.52-0.61s1.42-1,1.97-1.77L136.79,445.72
		z M125.13,437.36c0.25,0.2,0.54,0.36,0.88,0.47s0.68,0.17,1.03,0.17c0.62,0,1.12-0.18,1.51-0.54s0.59-0.82,0.59-1.38
		c0-0.27-0.04-0.52-0.12-0.74s-0.2-0.43-0.36-0.62c-0.84,0.13-1.55,0.41-2.14,0.85S125.47,436.61,125.13,437.36z"/>
	<path d="M152.12,428.57l-1.51,0.68l-0.14,14.95l1.46,1.65l-7.83-0.5c-2.01-0.13-3.63-0.75-4.85-1.85s-1.84-2.47-1.84-4.13
		c0-1.75,0.51-3.22,1.54-4.42s2.28-1.8,3.76-1.8c0.97,0,1.85,0.22,2.64,0.66s1.52,1.12,2.19,2.03l-1.32-6.62l-1.65-1.28
		L152.12,428.57z M143.7,435.71c-0.16,0.17-0.29,0.38-0.38,0.63s-0.13,0.51-0.13,0.8c0,0.69,0.25,1.28,0.74,1.76
		s1.07,0.73,1.73,0.73c0.28,0,0.54-0.05,0.78-0.15s0.48-0.27,0.73-0.49c-0.41-0.86-0.9-1.56-1.48-2.11S144.45,435.95,143.7,435.71z"
		/>
	<path d="M163.57,445.31l-12.14,0.38l2.61-1.05l0.82-9.98l-3.2-1.27l11.7-0.43l-3.75,1.32l1.46,10.27L163.57,445.31z M162.27,430.24
		c0,0.53-0.41,0.97-1.23,1.32s-1.89,0.52-3.21,0.52s-2.39-0.17-3.22-0.52s-1.24-0.79-1.24-1.32s0.41-0.97,1.24-1.32
		s1.9-0.53,3.21-0.53c1.32,0,2.39,0.18,3.21,0.53S162.27,429.71,162.27,430.24z"/>
	<path d="M177.93,433.38l-1.72,0.79l0.35,9.82l1.35,1.03l-5.16,0.64l0.88-3.57c-0.72,1.18-1.55,2.07-2.49,2.67s-1.97,0.9-3.08,0.9
		c-1.33,0-2.45-0.54-3.36-1.63s-1.37-2.44-1.37-4.05c0-2.05,0.49-3.74,1.46-5.07s2.21-1.99,3.69-1.99c1.13,0,2.12,0.29,2.97,0.88
		s1.58,1.47,2.16,2.64l-0.74-3.62L177.93,433.38z M169.72,435.83c-0.2,0.23-0.35,0.48-0.45,0.75s-0.14,0.57-0.14,0.93
		c0,0.69,0.22,1.26,0.67,1.73s1,0.7,1.66,0.7c0.23,0,0.48-0.05,0.73-0.15s0.5-0.24,0.76-0.43c-0.5-0.92-1.02-1.68-1.56-2.27
		S170.29,436.08,169.72,435.83z"/>
</g>
</svg>
